G04 #@! TF.GenerationSoftware,KiCad,Pcbnew,5.1.4+dfsg1-1*
G04 #@! TF.CreationDate,2020-04-11T12:55:28-07:00*
G04 #@! TF.ProjectId,esp32_sensornode,65737033-325f-4736-956e-736f726e6f64,rev?*
G04 #@! TF.SameCoordinates,Original*
G04 #@! TF.FileFunction,Soldermask,Bot*
G04 #@! TF.FilePolarity,Negative*
%FSLAX46Y46*%
G04 Gerber Fmt 4.6, Leading zero omitted, Abs format (unit mm)*
G04 Created by KiCad (PCBNEW 5.1.4+dfsg1-1) date 2020-04-11 12:55:28*
%MOMM*%
%LPD*%
G04 APERTURE LIST*
%ADD10C,0.100000*%
G04 APERTURE END LIST*
D10*
G36*
X53415600Y-73902000D02*
G01*
X51613600Y-73902000D01*
X51613600Y-72100000D01*
X53415600Y-72100000D01*
X53415600Y-73902000D01*
X53415600Y-73902000D01*
G37*
G36*
X117458543Y-71535019D02*
G01*
X117524727Y-71541537D01*
X117694566Y-71593057D01*
X117851091Y-71676722D01*
X117886829Y-71706052D01*
X117988286Y-71789314D01*
X118071548Y-71890771D01*
X118100878Y-71926509D01*
X118184543Y-72083034D01*
X118236063Y-72252873D01*
X118253459Y-72429500D01*
X118236063Y-72606127D01*
X118184543Y-72775966D01*
X118100878Y-72932491D01*
X118071548Y-72968229D01*
X117988286Y-73069686D01*
X117886829Y-73152948D01*
X117851091Y-73182278D01*
X117694566Y-73265943D01*
X117524727Y-73317463D01*
X117458543Y-73323981D01*
X117392360Y-73330500D01*
X117303840Y-73330500D01*
X117237657Y-73323981D01*
X117171473Y-73317463D01*
X117001634Y-73265943D01*
X116845109Y-73182278D01*
X116809371Y-73152948D01*
X116707914Y-73069686D01*
X116624652Y-72968229D01*
X116595322Y-72932491D01*
X116511657Y-72775966D01*
X116460137Y-72606127D01*
X116442741Y-72429500D01*
X116460137Y-72252873D01*
X116511657Y-72083034D01*
X116595322Y-71926509D01*
X116624652Y-71890771D01*
X116707914Y-71789314D01*
X116809371Y-71706052D01*
X116845109Y-71676722D01*
X117001634Y-71593057D01*
X117171473Y-71541537D01*
X117237657Y-71535019D01*
X117303840Y-71528500D01*
X117392360Y-71528500D01*
X117458543Y-71535019D01*
X117458543Y-71535019D01*
G37*
G36*
X114918543Y-71535019D02*
G01*
X114984727Y-71541537D01*
X115154566Y-71593057D01*
X115311091Y-71676722D01*
X115346829Y-71706052D01*
X115448286Y-71789314D01*
X115531548Y-71890771D01*
X115560878Y-71926509D01*
X115644543Y-72083034D01*
X115696063Y-72252873D01*
X115713459Y-72429500D01*
X115696063Y-72606127D01*
X115644543Y-72775966D01*
X115560878Y-72932491D01*
X115531548Y-72968229D01*
X115448286Y-73069686D01*
X115346829Y-73152948D01*
X115311091Y-73182278D01*
X115154566Y-73265943D01*
X114984727Y-73317463D01*
X114918543Y-73323981D01*
X114852360Y-73330500D01*
X114763840Y-73330500D01*
X114697657Y-73323981D01*
X114631473Y-73317463D01*
X114461634Y-73265943D01*
X114305109Y-73182278D01*
X114269371Y-73152948D01*
X114167914Y-73069686D01*
X114084652Y-72968229D01*
X114055322Y-72932491D01*
X113971657Y-72775966D01*
X113920137Y-72606127D01*
X113902741Y-72429500D01*
X113920137Y-72252873D01*
X113971657Y-72083034D01*
X114055322Y-71926509D01*
X114084652Y-71890771D01*
X114167914Y-71789314D01*
X114269371Y-71706052D01*
X114305109Y-71676722D01*
X114461634Y-71593057D01*
X114631473Y-71541537D01*
X114697657Y-71535019D01*
X114763840Y-71528500D01*
X114852360Y-71528500D01*
X114918543Y-71535019D01*
X114918543Y-71535019D01*
G37*
G36*
X113169100Y-73330500D02*
G01*
X111367100Y-73330500D01*
X111367100Y-71528500D01*
X113169100Y-71528500D01*
X113169100Y-73330500D01*
X113169100Y-73330500D01*
G37*
G36*
X52625043Y-69566519D02*
G01*
X52691227Y-69573037D01*
X52861066Y-69624557D01*
X53017591Y-69708222D01*
X53053329Y-69737552D01*
X53154786Y-69820814D01*
X53211154Y-69889500D01*
X53267378Y-69958009D01*
X53351043Y-70114534D01*
X53402563Y-70284373D01*
X53419959Y-70461000D01*
X53402563Y-70637627D01*
X53351043Y-70807466D01*
X53267378Y-70963991D01*
X53238048Y-70999729D01*
X53154786Y-71101186D01*
X53053329Y-71184448D01*
X53017591Y-71213778D01*
X52861066Y-71297443D01*
X52691227Y-71348963D01*
X52625043Y-71355481D01*
X52558860Y-71362000D01*
X52470340Y-71362000D01*
X52404157Y-71355481D01*
X52337973Y-71348963D01*
X52168134Y-71297443D01*
X52011609Y-71213778D01*
X51975871Y-71184448D01*
X51874414Y-71101186D01*
X51791152Y-70999729D01*
X51761822Y-70963991D01*
X51678157Y-70807466D01*
X51626637Y-70637627D01*
X51609241Y-70461000D01*
X51626637Y-70284373D01*
X51678157Y-70114534D01*
X51761822Y-69958009D01*
X51818046Y-69889500D01*
X51874414Y-69820814D01*
X51975871Y-69737552D01*
X52011609Y-69708222D01*
X52168134Y-69624557D01*
X52337973Y-69573037D01*
X52404157Y-69566519D01*
X52470340Y-69560000D01*
X52558860Y-69560000D01*
X52625043Y-69566519D01*
X52625043Y-69566519D01*
G37*
G36*
X112378543Y-68995019D02*
G01*
X112444727Y-69001537D01*
X112614566Y-69053057D01*
X112771091Y-69136722D01*
X112806829Y-69166052D01*
X112908286Y-69249314D01*
X112991548Y-69350771D01*
X113020878Y-69386509D01*
X113104543Y-69543034D01*
X113156063Y-69712873D01*
X113173459Y-69889500D01*
X113156063Y-70066127D01*
X113104543Y-70235966D01*
X113020878Y-70392491D01*
X112991548Y-70428229D01*
X112908286Y-70529686D01*
X112806829Y-70612948D01*
X112771091Y-70642278D01*
X112614566Y-70725943D01*
X112444727Y-70777463D01*
X112378543Y-70783981D01*
X112312360Y-70790500D01*
X112223840Y-70790500D01*
X112157657Y-70783981D01*
X112091473Y-70777463D01*
X111921634Y-70725943D01*
X111765109Y-70642278D01*
X111729371Y-70612948D01*
X111627914Y-70529686D01*
X111544652Y-70428229D01*
X111515322Y-70392491D01*
X111431657Y-70235966D01*
X111380137Y-70066127D01*
X111362741Y-69889500D01*
X111380137Y-69712873D01*
X111431657Y-69543034D01*
X111515322Y-69386509D01*
X111544652Y-69350771D01*
X111627914Y-69249314D01*
X111729371Y-69166052D01*
X111765109Y-69136722D01*
X111921634Y-69053057D01*
X112091473Y-69001537D01*
X112157657Y-68995019D01*
X112223840Y-68988500D01*
X112312360Y-68988500D01*
X112378543Y-68995019D01*
X112378543Y-68995019D01*
G37*
G36*
X117458543Y-68995019D02*
G01*
X117524727Y-69001537D01*
X117694566Y-69053057D01*
X117851091Y-69136722D01*
X117886829Y-69166052D01*
X117988286Y-69249314D01*
X118071548Y-69350771D01*
X118100878Y-69386509D01*
X118184543Y-69543034D01*
X118236063Y-69712873D01*
X118253459Y-69889500D01*
X118236063Y-70066127D01*
X118184543Y-70235966D01*
X118100878Y-70392491D01*
X118071548Y-70428229D01*
X117988286Y-70529686D01*
X117886829Y-70612948D01*
X117851091Y-70642278D01*
X117694566Y-70725943D01*
X117524727Y-70777463D01*
X117458543Y-70783981D01*
X117392360Y-70790500D01*
X117303840Y-70790500D01*
X117237657Y-70783981D01*
X117171473Y-70777463D01*
X117001634Y-70725943D01*
X116845109Y-70642278D01*
X116809371Y-70612948D01*
X116707914Y-70529686D01*
X116624652Y-70428229D01*
X116595322Y-70392491D01*
X116511657Y-70235966D01*
X116460137Y-70066127D01*
X116442741Y-69889500D01*
X116460137Y-69712873D01*
X116511657Y-69543034D01*
X116595322Y-69386509D01*
X116624652Y-69350771D01*
X116707914Y-69249314D01*
X116809371Y-69166052D01*
X116845109Y-69136722D01*
X117001634Y-69053057D01*
X117171473Y-69001537D01*
X117237657Y-68995019D01*
X117303840Y-68988500D01*
X117392360Y-68988500D01*
X117458543Y-68995019D01*
X117458543Y-68995019D01*
G37*
G36*
X114918543Y-68995019D02*
G01*
X114984727Y-69001537D01*
X115154566Y-69053057D01*
X115311091Y-69136722D01*
X115346829Y-69166052D01*
X115448286Y-69249314D01*
X115531548Y-69350771D01*
X115560878Y-69386509D01*
X115644543Y-69543034D01*
X115696063Y-69712873D01*
X115713459Y-69889500D01*
X115696063Y-70066127D01*
X115644543Y-70235966D01*
X115560878Y-70392491D01*
X115531548Y-70428229D01*
X115448286Y-70529686D01*
X115346829Y-70612948D01*
X115311091Y-70642278D01*
X115154566Y-70725943D01*
X114984727Y-70777463D01*
X114918543Y-70783981D01*
X114852360Y-70790500D01*
X114763840Y-70790500D01*
X114697657Y-70783981D01*
X114631473Y-70777463D01*
X114461634Y-70725943D01*
X114305109Y-70642278D01*
X114269371Y-70612948D01*
X114167914Y-70529686D01*
X114084652Y-70428229D01*
X114055322Y-70392491D01*
X113971657Y-70235966D01*
X113920137Y-70066127D01*
X113902741Y-69889500D01*
X113920137Y-69712873D01*
X113971657Y-69543034D01*
X114055322Y-69386509D01*
X114084652Y-69350771D01*
X114167914Y-69249314D01*
X114269371Y-69166052D01*
X114305109Y-69136722D01*
X114461634Y-69053057D01*
X114631473Y-69001537D01*
X114697657Y-68995019D01*
X114763840Y-68988500D01*
X114852360Y-68988500D01*
X114918543Y-68995019D01*
X114918543Y-68995019D01*
G37*
G36*
X52625042Y-67026518D02*
G01*
X52691227Y-67033037D01*
X52861066Y-67084557D01*
X53017591Y-67168222D01*
X53053329Y-67197552D01*
X53154786Y-67280814D01*
X53238048Y-67382271D01*
X53267378Y-67418009D01*
X53351043Y-67574534D01*
X53402563Y-67744373D01*
X53419959Y-67921000D01*
X53402563Y-68097627D01*
X53351043Y-68267466D01*
X53267378Y-68423991D01*
X53238048Y-68459729D01*
X53154786Y-68561186D01*
X53053329Y-68644448D01*
X53017591Y-68673778D01*
X52861066Y-68757443D01*
X52691227Y-68808963D01*
X52625042Y-68815482D01*
X52558860Y-68822000D01*
X52470340Y-68822000D01*
X52404158Y-68815482D01*
X52337973Y-68808963D01*
X52168134Y-68757443D01*
X52011609Y-68673778D01*
X51975871Y-68644448D01*
X51874414Y-68561186D01*
X51791152Y-68459729D01*
X51761822Y-68423991D01*
X51678157Y-68267466D01*
X51626637Y-68097627D01*
X51609241Y-67921000D01*
X51626637Y-67744373D01*
X51678157Y-67574534D01*
X51761822Y-67418009D01*
X51791152Y-67382271D01*
X51874414Y-67280814D01*
X51975871Y-67197552D01*
X52011609Y-67168222D01*
X52168134Y-67084557D01*
X52337973Y-67033037D01*
X52404158Y-67026518D01*
X52470340Y-67020000D01*
X52558860Y-67020000D01*
X52625042Y-67026518D01*
X52625042Y-67026518D01*
G37*
G36*
X52625043Y-64486519D02*
G01*
X52691227Y-64493037D01*
X52861066Y-64544557D01*
X53017591Y-64628222D01*
X53053329Y-64657552D01*
X53154786Y-64740814D01*
X53209712Y-64807743D01*
X53267378Y-64878009D01*
X53351043Y-65034534D01*
X53402563Y-65204373D01*
X53419959Y-65381000D01*
X53402563Y-65557627D01*
X53351043Y-65727466D01*
X53267378Y-65883991D01*
X53238048Y-65919729D01*
X53154786Y-66021186D01*
X53053329Y-66104448D01*
X53017591Y-66133778D01*
X52861066Y-66217443D01*
X52691227Y-66268963D01*
X52625043Y-66275481D01*
X52558860Y-66282000D01*
X52470340Y-66282000D01*
X52404157Y-66275481D01*
X52337973Y-66268963D01*
X52168134Y-66217443D01*
X52011609Y-66133778D01*
X51975871Y-66104448D01*
X51874414Y-66021186D01*
X51791152Y-65919729D01*
X51761822Y-65883991D01*
X51678157Y-65727466D01*
X51626637Y-65557627D01*
X51609241Y-65381000D01*
X51626637Y-65204373D01*
X51678157Y-65034534D01*
X51761822Y-64878009D01*
X51819488Y-64807743D01*
X51874414Y-64740814D01*
X51975871Y-64657552D01*
X52011609Y-64628222D01*
X52168134Y-64544557D01*
X52337973Y-64493037D01*
X52404157Y-64486519D01*
X52470340Y-64480000D01*
X52558860Y-64480000D01*
X52625043Y-64486519D01*
X52625043Y-64486519D01*
G37*
G36*
X114664543Y-63076819D02*
G01*
X114730727Y-63083337D01*
X114900566Y-63134857D01*
X115057091Y-63218522D01*
X115092829Y-63247852D01*
X115194286Y-63331114D01*
X115277548Y-63432571D01*
X115306878Y-63468309D01*
X115390543Y-63624834D01*
X115442063Y-63794673D01*
X115459459Y-63971300D01*
X115442063Y-64147927D01*
X115390543Y-64317766D01*
X115306878Y-64474291D01*
X115291493Y-64493037D01*
X115194286Y-64611486D01*
X115092829Y-64694748D01*
X115057091Y-64724078D01*
X114900566Y-64807743D01*
X114730727Y-64859263D01*
X114664542Y-64865782D01*
X114598360Y-64872300D01*
X114509840Y-64872300D01*
X114443658Y-64865782D01*
X114377473Y-64859263D01*
X114207634Y-64807743D01*
X114051109Y-64724078D01*
X114015371Y-64694748D01*
X113913914Y-64611486D01*
X113816707Y-64493037D01*
X113801322Y-64474291D01*
X113717657Y-64317766D01*
X113666137Y-64147927D01*
X113648741Y-63971300D01*
X113666137Y-63794673D01*
X113717657Y-63624834D01*
X113801322Y-63468309D01*
X113830652Y-63432571D01*
X113913914Y-63331114D01*
X114015371Y-63247852D01*
X114051109Y-63218522D01*
X114207634Y-63134857D01*
X114377473Y-63083337D01*
X114443657Y-63076819D01*
X114509840Y-63070300D01*
X114598360Y-63070300D01*
X114664543Y-63076819D01*
X114664543Y-63076819D01*
G37*
G36*
X117204543Y-63076819D02*
G01*
X117270727Y-63083337D01*
X117440566Y-63134857D01*
X117597091Y-63218522D01*
X117632829Y-63247852D01*
X117734286Y-63331114D01*
X117817548Y-63432571D01*
X117846878Y-63468309D01*
X117930543Y-63624834D01*
X117982063Y-63794673D01*
X117999459Y-63971300D01*
X117982063Y-64147927D01*
X117930543Y-64317766D01*
X117846878Y-64474291D01*
X117831493Y-64493037D01*
X117734286Y-64611486D01*
X117632829Y-64694748D01*
X117597091Y-64724078D01*
X117440566Y-64807743D01*
X117270727Y-64859263D01*
X117204542Y-64865782D01*
X117138360Y-64872300D01*
X117049840Y-64872300D01*
X116983658Y-64865782D01*
X116917473Y-64859263D01*
X116747634Y-64807743D01*
X116591109Y-64724078D01*
X116555371Y-64694748D01*
X116453914Y-64611486D01*
X116356707Y-64493037D01*
X116341322Y-64474291D01*
X116257657Y-64317766D01*
X116206137Y-64147927D01*
X116188741Y-63971300D01*
X116206137Y-63794673D01*
X116257657Y-63624834D01*
X116341322Y-63468309D01*
X116370652Y-63432571D01*
X116453914Y-63331114D01*
X116555371Y-63247852D01*
X116591109Y-63218522D01*
X116747634Y-63134857D01*
X116917473Y-63083337D01*
X116983657Y-63076819D01*
X117049840Y-63070300D01*
X117138360Y-63070300D01*
X117204543Y-63076819D01*
X117204543Y-63076819D01*
G37*
G36*
X112915100Y-64872300D02*
G01*
X111113100Y-64872300D01*
X111113100Y-63070300D01*
X112915100Y-63070300D01*
X112915100Y-64872300D01*
X112915100Y-64872300D01*
G37*
G36*
X52625042Y-61946518D02*
G01*
X52691227Y-61953037D01*
X52861066Y-62004557D01*
X53017591Y-62088222D01*
X53053329Y-62117552D01*
X53154786Y-62200814D01*
X53209712Y-62267743D01*
X53267378Y-62338009D01*
X53351043Y-62494534D01*
X53402563Y-62664373D01*
X53419959Y-62841000D01*
X53402563Y-63017627D01*
X53351043Y-63187466D01*
X53267378Y-63343991D01*
X53238048Y-63379729D01*
X53154786Y-63481186D01*
X53053329Y-63564448D01*
X53017591Y-63593778D01*
X52861066Y-63677443D01*
X52691227Y-63728963D01*
X52625043Y-63735481D01*
X52558860Y-63742000D01*
X52470340Y-63742000D01*
X52404157Y-63735481D01*
X52337973Y-63728963D01*
X52168134Y-63677443D01*
X52011609Y-63593778D01*
X51975871Y-63564448D01*
X51874414Y-63481186D01*
X51791152Y-63379729D01*
X51761822Y-63343991D01*
X51678157Y-63187466D01*
X51626637Y-63017627D01*
X51609241Y-62841000D01*
X51626637Y-62664373D01*
X51678157Y-62494534D01*
X51761822Y-62338009D01*
X51819488Y-62267743D01*
X51874414Y-62200814D01*
X51975871Y-62117552D01*
X52011609Y-62088222D01*
X52168134Y-62004557D01*
X52337973Y-61953037D01*
X52404158Y-61946518D01*
X52470340Y-61940000D01*
X52558860Y-61940000D01*
X52625042Y-61946518D01*
X52625042Y-61946518D01*
G37*
G36*
X117204543Y-60536819D02*
G01*
X117270727Y-60543337D01*
X117440566Y-60594857D01*
X117597091Y-60678522D01*
X117632829Y-60707852D01*
X117734286Y-60791114D01*
X117817548Y-60892571D01*
X117846878Y-60928309D01*
X117930543Y-61084834D01*
X117982063Y-61254673D01*
X117999459Y-61431300D01*
X117982063Y-61607927D01*
X117930543Y-61777766D01*
X117846878Y-61934291D01*
X117831493Y-61953037D01*
X117734286Y-62071486D01*
X117632829Y-62154748D01*
X117597091Y-62184078D01*
X117440566Y-62267743D01*
X117270727Y-62319263D01*
X117204542Y-62325782D01*
X117138360Y-62332300D01*
X117049840Y-62332300D01*
X116983658Y-62325782D01*
X116917473Y-62319263D01*
X116747634Y-62267743D01*
X116591109Y-62184078D01*
X116555371Y-62154748D01*
X116453914Y-62071486D01*
X116356707Y-61953037D01*
X116341322Y-61934291D01*
X116257657Y-61777766D01*
X116206137Y-61607927D01*
X116188741Y-61431300D01*
X116206137Y-61254673D01*
X116257657Y-61084834D01*
X116341322Y-60928309D01*
X116370652Y-60892571D01*
X116453914Y-60791114D01*
X116555371Y-60707852D01*
X116591109Y-60678522D01*
X116747634Y-60594857D01*
X116917473Y-60543337D01*
X116983657Y-60536819D01*
X117049840Y-60530300D01*
X117138360Y-60530300D01*
X117204543Y-60536819D01*
X117204543Y-60536819D01*
G37*
G36*
X112124543Y-60536819D02*
G01*
X112190727Y-60543337D01*
X112360566Y-60594857D01*
X112517091Y-60678522D01*
X112552829Y-60707852D01*
X112654286Y-60791114D01*
X112737548Y-60892571D01*
X112766878Y-60928309D01*
X112850543Y-61084834D01*
X112902063Y-61254673D01*
X112919459Y-61431300D01*
X112902063Y-61607927D01*
X112850543Y-61777766D01*
X112766878Y-61934291D01*
X112751493Y-61953037D01*
X112654286Y-62071486D01*
X112552829Y-62154748D01*
X112517091Y-62184078D01*
X112360566Y-62267743D01*
X112190727Y-62319263D01*
X112124542Y-62325782D01*
X112058360Y-62332300D01*
X111969840Y-62332300D01*
X111903658Y-62325782D01*
X111837473Y-62319263D01*
X111667634Y-62267743D01*
X111511109Y-62184078D01*
X111475371Y-62154748D01*
X111373914Y-62071486D01*
X111276707Y-61953037D01*
X111261322Y-61934291D01*
X111177657Y-61777766D01*
X111126137Y-61607927D01*
X111108741Y-61431300D01*
X111126137Y-61254673D01*
X111177657Y-61084834D01*
X111261322Y-60928309D01*
X111290652Y-60892571D01*
X111373914Y-60791114D01*
X111475371Y-60707852D01*
X111511109Y-60678522D01*
X111667634Y-60594857D01*
X111837473Y-60543337D01*
X111903657Y-60536819D01*
X111969840Y-60530300D01*
X112058360Y-60530300D01*
X112124543Y-60536819D01*
X112124543Y-60536819D01*
G37*
G36*
X114664543Y-60536819D02*
G01*
X114730727Y-60543337D01*
X114900566Y-60594857D01*
X115057091Y-60678522D01*
X115092829Y-60707852D01*
X115194286Y-60791114D01*
X115277548Y-60892571D01*
X115306878Y-60928309D01*
X115390543Y-61084834D01*
X115442063Y-61254673D01*
X115459459Y-61431300D01*
X115442063Y-61607927D01*
X115390543Y-61777766D01*
X115306878Y-61934291D01*
X115291493Y-61953037D01*
X115194286Y-62071486D01*
X115092829Y-62154748D01*
X115057091Y-62184078D01*
X114900566Y-62267743D01*
X114730727Y-62319263D01*
X114664542Y-62325782D01*
X114598360Y-62332300D01*
X114509840Y-62332300D01*
X114443658Y-62325782D01*
X114377473Y-62319263D01*
X114207634Y-62267743D01*
X114051109Y-62184078D01*
X114015371Y-62154748D01*
X113913914Y-62071486D01*
X113816707Y-61953037D01*
X113801322Y-61934291D01*
X113717657Y-61777766D01*
X113666137Y-61607927D01*
X113648741Y-61431300D01*
X113666137Y-61254673D01*
X113717657Y-61084834D01*
X113801322Y-60928309D01*
X113830652Y-60892571D01*
X113913914Y-60791114D01*
X114015371Y-60707852D01*
X114051109Y-60678522D01*
X114207634Y-60594857D01*
X114377473Y-60543337D01*
X114443657Y-60536819D01*
X114509840Y-60530300D01*
X114598360Y-60530300D01*
X114664543Y-60536819D01*
X114664543Y-60536819D01*
G37*
G36*
X52625043Y-59406519D02*
G01*
X52691227Y-59413037D01*
X52861066Y-59464557D01*
X53017591Y-59548222D01*
X53053329Y-59577552D01*
X53154786Y-59660814D01*
X53238048Y-59762271D01*
X53267378Y-59798009D01*
X53351043Y-59954534D01*
X53402563Y-60124373D01*
X53419959Y-60301000D01*
X53402563Y-60477627D01*
X53351043Y-60647466D01*
X53267378Y-60803991D01*
X53238048Y-60839729D01*
X53154786Y-60941186D01*
X53053329Y-61024448D01*
X53017591Y-61053778D01*
X52861066Y-61137443D01*
X52691227Y-61188963D01*
X52625043Y-61195481D01*
X52558860Y-61202000D01*
X52470340Y-61202000D01*
X52404157Y-61195481D01*
X52337973Y-61188963D01*
X52168134Y-61137443D01*
X52011609Y-61053778D01*
X51975871Y-61024448D01*
X51874414Y-60941186D01*
X51791152Y-60839729D01*
X51761822Y-60803991D01*
X51678157Y-60647466D01*
X51626637Y-60477627D01*
X51609241Y-60301000D01*
X51626637Y-60124373D01*
X51678157Y-59954534D01*
X51761822Y-59798009D01*
X51791152Y-59762271D01*
X51874414Y-59660814D01*
X51975871Y-59577552D01*
X52011609Y-59548222D01*
X52168134Y-59464557D01*
X52337973Y-59413037D01*
X52404157Y-59406519D01*
X52470340Y-59400000D01*
X52558860Y-59400000D01*
X52625043Y-59406519D01*
X52625043Y-59406519D01*
G37*
G36*
X57045426Y-47667937D02*
G01*
X57215265Y-47719457D01*
X57215267Y-47719458D01*
X57371789Y-47803121D01*
X57508986Y-47915714D01*
X57592248Y-48017171D01*
X57621578Y-48052909D01*
X57705243Y-48209434D01*
X57756763Y-48379273D01*
X57769800Y-48511642D01*
X57769800Y-48900157D01*
X57756763Y-49032526D01*
X57705243Y-49202366D01*
X57621578Y-49358891D01*
X57592248Y-49394629D01*
X57508986Y-49496086D01*
X57414050Y-49573997D01*
X57371791Y-49608678D01*
X57215266Y-49692343D01*
X57045427Y-49743863D01*
X56868800Y-49761259D01*
X56692174Y-49743863D01*
X56522335Y-49692343D01*
X56365810Y-49608678D01*
X56228615Y-49496085D01*
X56116022Y-49358891D01*
X56032357Y-49202366D01*
X55980837Y-49032527D01*
X55967800Y-48900158D01*
X55967800Y-48511643D01*
X55980837Y-48379274D01*
X56032357Y-48209435D01*
X56032359Y-48209432D01*
X56116021Y-48052911D01*
X56228614Y-47915714D01*
X56330071Y-47832452D01*
X56365809Y-47803122D01*
X56522334Y-47719457D01*
X56692173Y-47667937D01*
X56868800Y-47650541D01*
X57045426Y-47667937D01*
X57045426Y-47667937D01*
G37*
G36*
X55127400Y-47658889D02*
G01*
X55160452Y-47668915D01*
X55190903Y-47685192D01*
X55217599Y-47707101D01*
X55239508Y-47733797D01*
X55255785Y-47764248D01*
X55265811Y-47797300D01*
X55269800Y-47837803D01*
X55269800Y-49573997D01*
X55265811Y-49614500D01*
X55255785Y-49647552D01*
X55239508Y-49678003D01*
X55217599Y-49704699D01*
X55190903Y-49726608D01*
X55160452Y-49742885D01*
X55127400Y-49752911D01*
X55086897Y-49756900D01*
X53650703Y-49756900D01*
X53610200Y-49752911D01*
X53577148Y-49742885D01*
X53546697Y-49726608D01*
X53520001Y-49704699D01*
X53498092Y-49678003D01*
X53481815Y-49647552D01*
X53471789Y-49614500D01*
X53467800Y-49573997D01*
X53467800Y-47837803D01*
X53471789Y-47797300D01*
X53481815Y-47764248D01*
X53498092Y-47733797D01*
X53520001Y-47707101D01*
X53546697Y-47685192D01*
X53577148Y-47668915D01*
X53610200Y-47658889D01*
X53650703Y-47654900D01*
X55086897Y-47654900D01*
X55127400Y-47658889D01*
X55127400Y-47658889D01*
G37*
G36*
X77333921Y-47468374D02*
G01*
X77434195Y-47509909D01*
X77434196Y-47509910D01*
X77524442Y-47570210D01*
X77601190Y-47646958D01*
X77615861Y-47668915D01*
X77661491Y-47737205D01*
X77703026Y-47837479D01*
X77724200Y-47943930D01*
X77724200Y-48052470D01*
X77703026Y-48158921D01*
X77661491Y-48259195D01*
X77661490Y-48259196D01*
X77601190Y-48349442D01*
X77524442Y-48426190D01*
X77479012Y-48456545D01*
X77434195Y-48486491D01*
X77333921Y-48528026D01*
X77227470Y-48549200D01*
X77118930Y-48549200D01*
X77012479Y-48528026D01*
X76912205Y-48486491D01*
X76867388Y-48456545D01*
X76821958Y-48426190D01*
X76745210Y-48349442D01*
X76684910Y-48259196D01*
X76684909Y-48259195D01*
X76643374Y-48158921D01*
X76622200Y-48052470D01*
X76622200Y-47943930D01*
X76643374Y-47837479D01*
X76684909Y-47737205D01*
X76730539Y-47668915D01*
X76745210Y-47646958D01*
X76821958Y-47570210D01*
X76912204Y-47509910D01*
X76912205Y-47509909D01*
X77012479Y-47468374D01*
X77118930Y-47447200D01*
X77227470Y-47447200D01*
X77333921Y-47468374D01*
X77333921Y-47468374D01*
G37*
G36*
X72933921Y-47468374D02*
G01*
X73034195Y-47509909D01*
X73034196Y-47509910D01*
X73124442Y-47570210D01*
X73201190Y-47646958D01*
X73215861Y-47668915D01*
X73261491Y-47737205D01*
X73303026Y-47837479D01*
X73324200Y-47943930D01*
X73324200Y-48052470D01*
X73303026Y-48158921D01*
X73261491Y-48259195D01*
X73261490Y-48259196D01*
X73201190Y-48349442D01*
X73124442Y-48426190D01*
X73079012Y-48456545D01*
X73034195Y-48486491D01*
X72933921Y-48528026D01*
X72827470Y-48549200D01*
X72718930Y-48549200D01*
X72612479Y-48528026D01*
X72512205Y-48486491D01*
X72467388Y-48456545D01*
X72421958Y-48426190D01*
X72345210Y-48349442D01*
X72284910Y-48259196D01*
X72284909Y-48259195D01*
X72243374Y-48158921D01*
X72222200Y-48052470D01*
X72222200Y-47943930D01*
X72243374Y-47837479D01*
X72284909Y-47737205D01*
X72330539Y-47668915D01*
X72345210Y-47646958D01*
X72421958Y-47570210D01*
X72512204Y-47509910D01*
X72512205Y-47509909D01*
X72612479Y-47468374D01*
X72718930Y-47447200D01*
X72827470Y-47447200D01*
X72933921Y-47468374D01*
X72933921Y-47468374D01*
G37*
G36*
X95449442Y-43633118D02*
G01*
X95515627Y-43639637D01*
X95685466Y-43691157D01*
X95841991Y-43774822D01*
X95877729Y-43804152D01*
X95979186Y-43887414D01*
X96062448Y-43988871D01*
X96091778Y-44024609D01*
X96175443Y-44181134D01*
X96226963Y-44350973D01*
X96244359Y-44527600D01*
X96226963Y-44704227D01*
X96175443Y-44874066D01*
X96091778Y-45030591D01*
X96062448Y-45066329D01*
X95979186Y-45167786D01*
X95877729Y-45251048D01*
X95841991Y-45280378D01*
X95685466Y-45364043D01*
X95515627Y-45415563D01*
X95449442Y-45422082D01*
X95383260Y-45428600D01*
X95294740Y-45428600D01*
X95228558Y-45422082D01*
X95162373Y-45415563D01*
X94992534Y-45364043D01*
X94836009Y-45280378D01*
X94800271Y-45251048D01*
X94698814Y-45167786D01*
X94615552Y-45066329D01*
X94586222Y-45030591D01*
X94502557Y-44874066D01*
X94451037Y-44704227D01*
X94433641Y-44527600D01*
X94451037Y-44350973D01*
X94502557Y-44181134D01*
X94586222Y-44024609D01*
X94615552Y-43988871D01*
X94698814Y-43887414D01*
X94800271Y-43804152D01*
X94836009Y-43774822D01*
X94992534Y-43691157D01*
X95162373Y-43639637D01*
X95228557Y-43633119D01*
X95294740Y-43626600D01*
X95383260Y-43626600D01*
X95449442Y-43633118D01*
X95449442Y-43633118D01*
G37*
G36*
X97989442Y-43633118D02*
G01*
X98055627Y-43639637D01*
X98225466Y-43691157D01*
X98381991Y-43774822D01*
X98417729Y-43804152D01*
X98519186Y-43887414D01*
X98602448Y-43988871D01*
X98631778Y-44024609D01*
X98715443Y-44181134D01*
X98766963Y-44350973D01*
X98784359Y-44527600D01*
X98766963Y-44704227D01*
X98715443Y-44874066D01*
X98631778Y-45030591D01*
X98602448Y-45066329D01*
X98519186Y-45167786D01*
X98417729Y-45251048D01*
X98381991Y-45280378D01*
X98225466Y-45364043D01*
X98055627Y-45415563D01*
X97989442Y-45422082D01*
X97923260Y-45428600D01*
X97834740Y-45428600D01*
X97768558Y-45422082D01*
X97702373Y-45415563D01*
X97532534Y-45364043D01*
X97376009Y-45280378D01*
X97340271Y-45251048D01*
X97238814Y-45167786D01*
X97155552Y-45066329D01*
X97126222Y-45030591D01*
X97042557Y-44874066D01*
X96991037Y-44704227D01*
X96973641Y-44527600D01*
X96991037Y-44350973D01*
X97042557Y-44181134D01*
X97126222Y-44024609D01*
X97155552Y-43988871D01*
X97238814Y-43887414D01*
X97340271Y-43804152D01*
X97376009Y-43774822D01*
X97532534Y-43691157D01*
X97702373Y-43639637D01*
X97768557Y-43633119D01*
X97834740Y-43626600D01*
X97923260Y-43626600D01*
X97989442Y-43633118D01*
X97989442Y-43633118D01*
G37*
G36*
X100529442Y-43633118D02*
G01*
X100595627Y-43639637D01*
X100765466Y-43691157D01*
X100921991Y-43774822D01*
X100957729Y-43804152D01*
X101059186Y-43887414D01*
X101142448Y-43988871D01*
X101171778Y-44024609D01*
X101255443Y-44181134D01*
X101306963Y-44350973D01*
X101324359Y-44527600D01*
X101306963Y-44704227D01*
X101255443Y-44874066D01*
X101171778Y-45030591D01*
X101142448Y-45066329D01*
X101059186Y-45167786D01*
X100957729Y-45251048D01*
X100921991Y-45280378D01*
X100765466Y-45364043D01*
X100595627Y-45415563D01*
X100529442Y-45422082D01*
X100463260Y-45428600D01*
X100374740Y-45428600D01*
X100308558Y-45422082D01*
X100242373Y-45415563D01*
X100072534Y-45364043D01*
X99916009Y-45280378D01*
X99880271Y-45251048D01*
X99778814Y-45167786D01*
X99695552Y-45066329D01*
X99666222Y-45030591D01*
X99582557Y-44874066D01*
X99531037Y-44704227D01*
X99513641Y-44527600D01*
X99531037Y-44350973D01*
X99582557Y-44181134D01*
X99666222Y-44024609D01*
X99695552Y-43988871D01*
X99778814Y-43887414D01*
X99880271Y-43804152D01*
X99916009Y-43774822D01*
X100072534Y-43691157D01*
X100242373Y-43639637D01*
X100308557Y-43633119D01*
X100374740Y-43626600D01*
X100463260Y-43626600D01*
X100529442Y-43633118D01*
X100529442Y-43633118D01*
G37*
G36*
X103069442Y-43633118D02*
G01*
X103135627Y-43639637D01*
X103305466Y-43691157D01*
X103461991Y-43774822D01*
X103497729Y-43804152D01*
X103599186Y-43887414D01*
X103682448Y-43988871D01*
X103711778Y-44024609D01*
X103795443Y-44181134D01*
X103846963Y-44350973D01*
X103864359Y-44527600D01*
X103846963Y-44704227D01*
X103795443Y-44874066D01*
X103711778Y-45030591D01*
X103682448Y-45066329D01*
X103599186Y-45167786D01*
X103497729Y-45251048D01*
X103461991Y-45280378D01*
X103305466Y-45364043D01*
X103135627Y-45415563D01*
X103069442Y-45422082D01*
X103003260Y-45428600D01*
X102914740Y-45428600D01*
X102848558Y-45422082D01*
X102782373Y-45415563D01*
X102612534Y-45364043D01*
X102456009Y-45280378D01*
X102420271Y-45251048D01*
X102318814Y-45167786D01*
X102235552Y-45066329D01*
X102206222Y-45030591D01*
X102122557Y-44874066D01*
X102071037Y-44704227D01*
X102053641Y-44527600D01*
X102071037Y-44350973D01*
X102122557Y-44181134D01*
X102206222Y-44024609D01*
X102235552Y-43988871D01*
X102318814Y-43887414D01*
X102420271Y-43804152D01*
X102456009Y-43774822D01*
X102612534Y-43691157D01*
X102782373Y-43639637D01*
X102848557Y-43633119D01*
X102914740Y-43626600D01*
X103003260Y-43626600D01*
X103069442Y-43633118D01*
X103069442Y-43633118D01*
G37*
G36*
X105609442Y-43633118D02*
G01*
X105675627Y-43639637D01*
X105845466Y-43691157D01*
X106001991Y-43774822D01*
X106037729Y-43804152D01*
X106139186Y-43887414D01*
X106222448Y-43988871D01*
X106251778Y-44024609D01*
X106335443Y-44181134D01*
X106386963Y-44350973D01*
X106404359Y-44527600D01*
X106386963Y-44704227D01*
X106335443Y-44874066D01*
X106251778Y-45030591D01*
X106222448Y-45066329D01*
X106139186Y-45167786D01*
X106037729Y-45251048D01*
X106001991Y-45280378D01*
X105845466Y-45364043D01*
X105675627Y-45415563D01*
X105609442Y-45422082D01*
X105543260Y-45428600D01*
X105454740Y-45428600D01*
X105388558Y-45422082D01*
X105322373Y-45415563D01*
X105152534Y-45364043D01*
X104996009Y-45280378D01*
X104960271Y-45251048D01*
X104858814Y-45167786D01*
X104775552Y-45066329D01*
X104746222Y-45030591D01*
X104662557Y-44874066D01*
X104611037Y-44704227D01*
X104593641Y-44527600D01*
X104611037Y-44350973D01*
X104662557Y-44181134D01*
X104746222Y-44024609D01*
X104775552Y-43988871D01*
X104858814Y-43887414D01*
X104960271Y-43804152D01*
X104996009Y-43774822D01*
X105152534Y-43691157D01*
X105322373Y-43639637D01*
X105388557Y-43633119D01*
X105454740Y-43626600D01*
X105543260Y-43626600D01*
X105609442Y-43633118D01*
X105609442Y-43633118D01*
G37*
G36*
X108149442Y-43633118D02*
G01*
X108215627Y-43639637D01*
X108385466Y-43691157D01*
X108541991Y-43774822D01*
X108577729Y-43804152D01*
X108679186Y-43887414D01*
X108762448Y-43988871D01*
X108791778Y-44024609D01*
X108875443Y-44181134D01*
X108926963Y-44350973D01*
X108944359Y-44527600D01*
X108926963Y-44704227D01*
X108875443Y-44874066D01*
X108791778Y-45030591D01*
X108762448Y-45066329D01*
X108679186Y-45167786D01*
X108577729Y-45251048D01*
X108541991Y-45280378D01*
X108385466Y-45364043D01*
X108215627Y-45415563D01*
X108149442Y-45422082D01*
X108083260Y-45428600D01*
X107994740Y-45428600D01*
X107928558Y-45422082D01*
X107862373Y-45415563D01*
X107692534Y-45364043D01*
X107536009Y-45280378D01*
X107500271Y-45251048D01*
X107398814Y-45167786D01*
X107315552Y-45066329D01*
X107286222Y-45030591D01*
X107202557Y-44874066D01*
X107151037Y-44704227D01*
X107133641Y-44527600D01*
X107151037Y-44350973D01*
X107202557Y-44181134D01*
X107286222Y-44024609D01*
X107315552Y-43988871D01*
X107398814Y-43887414D01*
X107500271Y-43804152D01*
X107536009Y-43774822D01*
X107692534Y-43691157D01*
X107862373Y-43639637D01*
X107928557Y-43633119D01*
X107994740Y-43626600D01*
X108083260Y-43626600D01*
X108149442Y-43633118D01*
X108149442Y-43633118D01*
G37*
G36*
X111480000Y-45428600D02*
G01*
X109678000Y-45428600D01*
X109678000Y-43626600D01*
X111480000Y-43626600D01*
X111480000Y-45428600D01*
X111480000Y-45428600D01*
G37*
M02*
