G04 #@! TF.GenerationSoftware,KiCad,Pcbnew,5.1.4+dfsg1-1*
G04 #@! TF.CreationDate,2020-04-01T15:50:02-07:00*
G04 #@! TF.ProjectId,esp32_sensornode,65737033-325f-4736-956e-736f726e6f64,rev?*
G04 #@! TF.SameCoordinates,Original*
G04 #@! TF.FileFunction,Copper,L1,Top*
G04 #@! TF.FilePolarity,Positive*
%FSLAX46Y46*%
G04 Gerber Fmt 4.6, Leading zero omitted, Abs format (unit mm)*
G04 Created by KiCad (PCBNEW 5.1.4+dfsg1-1) date 2020-04-01 15:50:02*
%MOMM*%
%LPD*%
G04 APERTURE LIST*
%ADD10R,1.000000X1.550000*%
%ADD11R,1.500000X1.500000*%
%ADD12R,0.700000X1.750000*%
%ADD13R,0.800000X1.400000*%
%ADD14R,1.450000X1.000000*%
%ADD15R,0.800000X1.500000*%
%ADD16R,1.300000X1.500000*%
%ADD17C,0.100000*%
%ADD18C,0.875000*%
%ADD19R,1.700000X1.700000*%
%ADD20O,1.700000X1.700000*%
%ADD21R,0.500000X2.000000*%
%ADD22R,2.000000X1.700000*%
%ADD23R,5.000000X5.000000*%
%ADD24R,2.000000X0.900000*%
%ADD25R,0.900000X2.000000*%
%ADD26R,0.500000X0.350000*%
%ADD27C,1.700000*%
%ADD28C,0.600000*%
%ADD29C,0.250000*%
%ADD30R,3.800000X2.000000*%
%ADD31R,1.500000X2.000000*%
%ADD32R,0.900000X0.800000*%
%ADD33R,0.800000X0.900000*%
%ADD34R,0.400000X0.650000*%
%ADD35O,1.700000X2.000000*%
%ADD36C,1.000000*%
%ADD37C,0.800000*%
%ADD38C,0.750000*%
%ADD39C,0.250000*%
G04 APERTURE END LIST*
D10*
X68682500Y-63176900D03*
D11*
X68732500Y-73851900D03*
D12*
X66282500Y-73976900D03*
X65182500Y-73976900D03*
X64082500Y-73976900D03*
X62982500Y-73976900D03*
X61882500Y-73976900D03*
X60782500Y-73976900D03*
X59682500Y-73976900D03*
D13*
X69082500Y-65601900D03*
D14*
X57457500Y-64751900D03*
D15*
X57132500Y-66251900D03*
D16*
X57382500Y-73851900D03*
D12*
X58582500Y-73976900D03*
D17*
G36*
X97433291Y-72120653D02*
G01*
X97454526Y-72123803D01*
X97475350Y-72129019D01*
X97495562Y-72136251D01*
X97514968Y-72145430D01*
X97533381Y-72156466D01*
X97550624Y-72169254D01*
X97566530Y-72183670D01*
X97580946Y-72199576D01*
X97593734Y-72216819D01*
X97604770Y-72235232D01*
X97613949Y-72254638D01*
X97621181Y-72274850D01*
X97626397Y-72295674D01*
X97629547Y-72316909D01*
X97630600Y-72338350D01*
X97630600Y-72850850D01*
X97629547Y-72872291D01*
X97626397Y-72893526D01*
X97621181Y-72914350D01*
X97613949Y-72934562D01*
X97604770Y-72953968D01*
X97593734Y-72972381D01*
X97580946Y-72989624D01*
X97566530Y-73005530D01*
X97550624Y-73019946D01*
X97533381Y-73032734D01*
X97514968Y-73043770D01*
X97495562Y-73052949D01*
X97475350Y-73060181D01*
X97454526Y-73065397D01*
X97433291Y-73068547D01*
X97411850Y-73069600D01*
X96974350Y-73069600D01*
X96952909Y-73068547D01*
X96931674Y-73065397D01*
X96910850Y-73060181D01*
X96890638Y-73052949D01*
X96871232Y-73043770D01*
X96852819Y-73032734D01*
X96835576Y-73019946D01*
X96819670Y-73005530D01*
X96805254Y-72989624D01*
X96792466Y-72972381D01*
X96781430Y-72953968D01*
X96772251Y-72934562D01*
X96765019Y-72914350D01*
X96759803Y-72893526D01*
X96756653Y-72872291D01*
X96755600Y-72850850D01*
X96755600Y-72338350D01*
X96756653Y-72316909D01*
X96759803Y-72295674D01*
X96765019Y-72274850D01*
X96772251Y-72254638D01*
X96781430Y-72235232D01*
X96792466Y-72216819D01*
X96805254Y-72199576D01*
X96819670Y-72183670D01*
X96835576Y-72169254D01*
X96852819Y-72156466D01*
X96871232Y-72145430D01*
X96890638Y-72136251D01*
X96910850Y-72129019D01*
X96931674Y-72123803D01*
X96952909Y-72120653D01*
X96974350Y-72119600D01*
X97411850Y-72119600D01*
X97433291Y-72120653D01*
X97433291Y-72120653D01*
G37*
D18*
X97193100Y-72594600D03*
D17*
G36*
X99008291Y-72120653D02*
G01*
X99029526Y-72123803D01*
X99050350Y-72129019D01*
X99070562Y-72136251D01*
X99089968Y-72145430D01*
X99108381Y-72156466D01*
X99125624Y-72169254D01*
X99141530Y-72183670D01*
X99155946Y-72199576D01*
X99168734Y-72216819D01*
X99179770Y-72235232D01*
X99188949Y-72254638D01*
X99196181Y-72274850D01*
X99201397Y-72295674D01*
X99204547Y-72316909D01*
X99205600Y-72338350D01*
X99205600Y-72850850D01*
X99204547Y-72872291D01*
X99201397Y-72893526D01*
X99196181Y-72914350D01*
X99188949Y-72934562D01*
X99179770Y-72953968D01*
X99168734Y-72972381D01*
X99155946Y-72989624D01*
X99141530Y-73005530D01*
X99125624Y-73019946D01*
X99108381Y-73032734D01*
X99089968Y-73043770D01*
X99070562Y-73052949D01*
X99050350Y-73060181D01*
X99029526Y-73065397D01*
X99008291Y-73068547D01*
X98986850Y-73069600D01*
X98549350Y-73069600D01*
X98527909Y-73068547D01*
X98506674Y-73065397D01*
X98485850Y-73060181D01*
X98465638Y-73052949D01*
X98446232Y-73043770D01*
X98427819Y-73032734D01*
X98410576Y-73019946D01*
X98394670Y-73005530D01*
X98380254Y-72989624D01*
X98367466Y-72972381D01*
X98356430Y-72953968D01*
X98347251Y-72934562D01*
X98340019Y-72914350D01*
X98334803Y-72893526D01*
X98331653Y-72872291D01*
X98330600Y-72850850D01*
X98330600Y-72338350D01*
X98331653Y-72316909D01*
X98334803Y-72295674D01*
X98340019Y-72274850D01*
X98347251Y-72254638D01*
X98356430Y-72235232D01*
X98367466Y-72216819D01*
X98380254Y-72199576D01*
X98394670Y-72183670D01*
X98410576Y-72169254D01*
X98427819Y-72156466D01*
X98446232Y-72145430D01*
X98465638Y-72136251D01*
X98485850Y-72129019D01*
X98506674Y-72123803D01*
X98527909Y-72120653D01*
X98549350Y-72119600D01*
X98986850Y-72119600D01*
X99008291Y-72120653D01*
X99008291Y-72120653D01*
G37*
D18*
X98768100Y-72594600D03*
D19*
X52514600Y-73001000D03*
D20*
X52514600Y-70461000D03*
X52514600Y-67921000D03*
X52514600Y-65381000D03*
X52514600Y-62841000D03*
X52514600Y-60301000D03*
D19*
X110579000Y-44527600D03*
D20*
X108039000Y-44527600D03*
X105499000Y-44527600D03*
X102959000Y-44527600D03*
X100419000Y-44527600D03*
X97879000Y-44527600D03*
X95339000Y-44527600D03*
D21*
X76573200Y-50698200D03*
X75773200Y-50698200D03*
X74973200Y-50698200D03*
X74173200Y-50698200D03*
X73373200Y-50698200D03*
D22*
X79423200Y-50598200D03*
X79423200Y-45148200D03*
X70523200Y-50598200D03*
X70523200Y-45148200D03*
D23*
X85692700Y-65755000D03*
D24*
X93192700Y-73255000D03*
X93192700Y-71985000D03*
X93192700Y-70715000D03*
X93192700Y-69445000D03*
X93192700Y-68175000D03*
X93192700Y-66905000D03*
X93192700Y-65635000D03*
X93192700Y-64365000D03*
X93192700Y-63095000D03*
X93192700Y-61825000D03*
X93192700Y-60555000D03*
X93192700Y-59285000D03*
X93192700Y-58015000D03*
X93192700Y-56745000D03*
D25*
X90407700Y-55745000D03*
X89137700Y-55745000D03*
X87867700Y-55745000D03*
X86597700Y-55745000D03*
X85327700Y-55745000D03*
X84057700Y-55745000D03*
X82787700Y-55745000D03*
X81517700Y-55745000D03*
X80247700Y-55745000D03*
X78977700Y-55745000D03*
D24*
X76192700Y-56745000D03*
X76192700Y-58015000D03*
X76192700Y-59285000D03*
X76192700Y-60555000D03*
X76192700Y-61825000D03*
X76192700Y-63095000D03*
X76192700Y-64365000D03*
X76192700Y-65635000D03*
X76192700Y-66905000D03*
X76192700Y-68175000D03*
X76192700Y-69445000D03*
X76192700Y-70715000D03*
X76192700Y-71985000D03*
X76192700Y-73255000D03*
D26*
X116103500Y-52719100D03*
X116103500Y-53369100D03*
X116103500Y-54019100D03*
X116103500Y-54669100D03*
X118153500Y-54669100D03*
X118153500Y-54019100D03*
X118153500Y-53369100D03*
X118153500Y-52719100D03*
D17*
G36*
X64403304Y-56342904D02*
G01*
X64427573Y-56346504D01*
X64451371Y-56352465D01*
X64474471Y-56360730D01*
X64496649Y-56371220D01*
X64517693Y-56383833D01*
X64537398Y-56398447D01*
X64555577Y-56414923D01*
X64572053Y-56433102D01*
X64586667Y-56452807D01*
X64599280Y-56473851D01*
X64609770Y-56496029D01*
X64618035Y-56519129D01*
X64623996Y-56542927D01*
X64627596Y-56567196D01*
X64628800Y-56591700D01*
X64628800Y-57791700D01*
X64627596Y-57816204D01*
X64623996Y-57840473D01*
X64618035Y-57864271D01*
X64609770Y-57887371D01*
X64599280Y-57909549D01*
X64586667Y-57930593D01*
X64572053Y-57950298D01*
X64555577Y-57968477D01*
X64537398Y-57984953D01*
X64517693Y-57999567D01*
X64496649Y-58012180D01*
X64474471Y-58022670D01*
X64451371Y-58030935D01*
X64427573Y-58036896D01*
X64403304Y-58040496D01*
X64378800Y-58041700D01*
X63178800Y-58041700D01*
X63154296Y-58040496D01*
X63130027Y-58036896D01*
X63106229Y-58030935D01*
X63083129Y-58022670D01*
X63060951Y-58012180D01*
X63039907Y-57999567D01*
X63020202Y-57984953D01*
X63002023Y-57968477D01*
X62985547Y-57950298D01*
X62970933Y-57930593D01*
X62958320Y-57909549D01*
X62947830Y-57887371D01*
X62939565Y-57864271D01*
X62933604Y-57840473D01*
X62930004Y-57816204D01*
X62928800Y-57791700D01*
X62928800Y-56591700D01*
X62930004Y-56567196D01*
X62933604Y-56542927D01*
X62939565Y-56519129D01*
X62947830Y-56496029D01*
X62958320Y-56473851D01*
X62970933Y-56452807D01*
X62985547Y-56433102D01*
X63002023Y-56414923D01*
X63020202Y-56398447D01*
X63039907Y-56383833D01*
X63060951Y-56371220D01*
X63083129Y-56360730D01*
X63106229Y-56352465D01*
X63130027Y-56346504D01*
X63154296Y-56342904D01*
X63178800Y-56341700D01*
X64378800Y-56341700D01*
X64403304Y-56342904D01*
X64403304Y-56342904D01*
G37*
D27*
X63778800Y-57191700D03*
D28*
X63228800Y-56641700D03*
X63778800Y-56641700D03*
X64328800Y-56641700D03*
X63228800Y-57191700D03*
X63778800Y-57191700D03*
X64328800Y-57191700D03*
X63228800Y-57741700D03*
X63778800Y-57741700D03*
X64328800Y-57741700D03*
D17*
G36*
X62672426Y-56317001D02*
G01*
X62678493Y-56317901D01*
X62684443Y-56319391D01*
X62690218Y-56321458D01*
X62695762Y-56324080D01*
X62701023Y-56327233D01*
X62705950Y-56330887D01*
X62710494Y-56335006D01*
X62714613Y-56339550D01*
X62718267Y-56344477D01*
X62721420Y-56349738D01*
X62724042Y-56355282D01*
X62726109Y-56361057D01*
X62727599Y-56367007D01*
X62728499Y-56373074D01*
X62728800Y-56379200D01*
X62728800Y-56504200D01*
X62728499Y-56510326D01*
X62727599Y-56516393D01*
X62726109Y-56522343D01*
X62724042Y-56528118D01*
X62721420Y-56533662D01*
X62718267Y-56538923D01*
X62714613Y-56543850D01*
X62710494Y-56548394D01*
X62705950Y-56552513D01*
X62701023Y-56556167D01*
X62695762Y-56559320D01*
X62690218Y-56561942D01*
X62684443Y-56564009D01*
X62678493Y-56565499D01*
X62672426Y-56566399D01*
X62666300Y-56566700D01*
X61991300Y-56566700D01*
X61985174Y-56566399D01*
X61979107Y-56565499D01*
X61973157Y-56564009D01*
X61967382Y-56561942D01*
X61961838Y-56559320D01*
X61956577Y-56556167D01*
X61951650Y-56552513D01*
X61947106Y-56548394D01*
X61942987Y-56543850D01*
X61939333Y-56538923D01*
X61936180Y-56533662D01*
X61933558Y-56528118D01*
X61931491Y-56522343D01*
X61930001Y-56516393D01*
X61929101Y-56510326D01*
X61928800Y-56504200D01*
X61928800Y-56379200D01*
X61929101Y-56373074D01*
X61930001Y-56367007D01*
X61931491Y-56361057D01*
X61933558Y-56355282D01*
X61936180Y-56349738D01*
X61939333Y-56344477D01*
X61942987Y-56339550D01*
X61947106Y-56335006D01*
X61951650Y-56330887D01*
X61956577Y-56327233D01*
X61961838Y-56324080D01*
X61967382Y-56321458D01*
X61973157Y-56319391D01*
X61979107Y-56317901D01*
X61985174Y-56317001D01*
X61991300Y-56316700D01*
X62666300Y-56316700D01*
X62672426Y-56317001D01*
X62672426Y-56317001D01*
G37*
D29*
X62328800Y-56441700D03*
D17*
G36*
X62672426Y-56817001D02*
G01*
X62678493Y-56817901D01*
X62684443Y-56819391D01*
X62690218Y-56821458D01*
X62695762Y-56824080D01*
X62701023Y-56827233D01*
X62705950Y-56830887D01*
X62710494Y-56835006D01*
X62714613Y-56839550D01*
X62718267Y-56844477D01*
X62721420Y-56849738D01*
X62724042Y-56855282D01*
X62726109Y-56861057D01*
X62727599Y-56867007D01*
X62728499Y-56873074D01*
X62728800Y-56879200D01*
X62728800Y-57004200D01*
X62728499Y-57010326D01*
X62727599Y-57016393D01*
X62726109Y-57022343D01*
X62724042Y-57028118D01*
X62721420Y-57033662D01*
X62718267Y-57038923D01*
X62714613Y-57043850D01*
X62710494Y-57048394D01*
X62705950Y-57052513D01*
X62701023Y-57056167D01*
X62695762Y-57059320D01*
X62690218Y-57061942D01*
X62684443Y-57064009D01*
X62678493Y-57065499D01*
X62672426Y-57066399D01*
X62666300Y-57066700D01*
X61991300Y-57066700D01*
X61985174Y-57066399D01*
X61979107Y-57065499D01*
X61973157Y-57064009D01*
X61967382Y-57061942D01*
X61961838Y-57059320D01*
X61956577Y-57056167D01*
X61951650Y-57052513D01*
X61947106Y-57048394D01*
X61942987Y-57043850D01*
X61939333Y-57038923D01*
X61936180Y-57033662D01*
X61933558Y-57028118D01*
X61931491Y-57022343D01*
X61930001Y-57016393D01*
X61929101Y-57010326D01*
X61928800Y-57004200D01*
X61928800Y-56879200D01*
X61929101Y-56873074D01*
X61930001Y-56867007D01*
X61931491Y-56861057D01*
X61933558Y-56855282D01*
X61936180Y-56849738D01*
X61939333Y-56844477D01*
X61942987Y-56839550D01*
X61947106Y-56835006D01*
X61951650Y-56830887D01*
X61956577Y-56827233D01*
X61961838Y-56824080D01*
X61967382Y-56821458D01*
X61973157Y-56819391D01*
X61979107Y-56817901D01*
X61985174Y-56817001D01*
X61991300Y-56816700D01*
X62666300Y-56816700D01*
X62672426Y-56817001D01*
X62672426Y-56817001D01*
G37*
D29*
X62328800Y-56941700D03*
D17*
G36*
X62672426Y-57317001D02*
G01*
X62678493Y-57317901D01*
X62684443Y-57319391D01*
X62690218Y-57321458D01*
X62695762Y-57324080D01*
X62701023Y-57327233D01*
X62705950Y-57330887D01*
X62710494Y-57335006D01*
X62714613Y-57339550D01*
X62718267Y-57344477D01*
X62721420Y-57349738D01*
X62724042Y-57355282D01*
X62726109Y-57361057D01*
X62727599Y-57367007D01*
X62728499Y-57373074D01*
X62728800Y-57379200D01*
X62728800Y-57504200D01*
X62728499Y-57510326D01*
X62727599Y-57516393D01*
X62726109Y-57522343D01*
X62724042Y-57528118D01*
X62721420Y-57533662D01*
X62718267Y-57538923D01*
X62714613Y-57543850D01*
X62710494Y-57548394D01*
X62705950Y-57552513D01*
X62701023Y-57556167D01*
X62695762Y-57559320D01*
X62690218Y-57561942D01*
X62684443Y-57564009D01*
X62678493Y-57565499D01*
X62672426Y-57566399D01*
X62666300Y-57566700D01*
X61991300Y-57566700D01*
X61985174Y-57566399D01*
X61979107Y-57565499D01*
X61973157Y-57564009D01*
X61967382Y-57561942D01*
X61961838Y-57559320D01*
X61956577Y-57556167D01*
X61951650Y-57552513D01*
X61947106Y-57548394D01*
X61942987Y-57543850D01*
X61939333Y-57538923D01*
X61936180Y-57533662D01*
X61933558Y-57528118D01*
X61931491Y-57522343D01*
X61930001Y-57516393D01*
X61929101Y-57510326D01*
X61928800Y-57504200D01*
X61928800Y-57379200D01*
X61929101Y-57373074D01*
X61930001Y-57367007D01*
X61931491Y-57361057D01*
X61933558Y-57355282D01*
X61936180Y-57349738D01*
X61939333Y-57344477D01*
X61942987Y-57339550D01*
X61947106Y-57335006D01*
X61951650Y-57330887D01*
X61956577Y-57327233D01*
X61961838Y-57324080D01*
X61967382Y-57321458D01*
X61973157Y-57319391D01*
X61979107Y-57317901D01*
X61985174Y-57317001D01*
X61991300Y-57316700D01*
X62666300Y-57316700D01*
X62672426Y-57317001D01*
X62672426Y-57317001D01*
G37*
D29*
X62328800Y-57441700D03*
D17*
G36*
X62672426Y-57817001D02*
G01*
X62678493Y-57817901D01*
X62684443Y-57819391D01*
X62690218Y-57821458D01*
X62695762Y-57824080D01*
X62701023Y-57827233D01*
X62705950Y-57830887D01*
X62710494Y-57835006D01*
X62714613Y-57839550D01*
X62718267Y-57844477D01*
X62721420Y-57849738D01*
X62724042Y-57855282D01*
X62726109Y-57861057D01*
X62727599Y-57867007D01*
X62728499Y-57873074D01*
X62728800Y-57879200D01*
X62728800Y-58004200D01*
X62728499Y-58010326D01*
X62727599Y-58016393D01*
X62726109Y-58022343D01*
X62724042Y-58028118D01*
X62721420Y-58033662D01*
X62718267Y-58038923D01*
X62714613Y-58043850D01*
X62710494Y-58048394D01*
X62705950Y-58052513D01*
X62701023Y-58056167D01*
X62695762Y-58059320D01*
X62690218Y-58061942D01*
X62684443Y-58064009D01*
X62678493Y-58065499D01*
X62672426Y-58066399D01*
X62666300Y-58066700D01*
X61991300Y-58066700D01*
X61985174Y-58066399D01*
X61979107Y-58065499D01*
X61973157Y-58064009D01*
X61967382Y-58061942D01*
X61961838Y-58059320D01*
X61956577Y-58056167D01*
X61951650Y-58052513D01*
X61947106Y-58048394D01*
X61942987Y-58043850D01*
X61939333Y-58038923D01*
X61936180Y-58033662D01*
X61933558Y-58028118D01*
X61931491Y-58022343D01*
X61930001Y-58016393D01*
X61929101Y-58010326D01*
X61928800Y-58004200D01*
X61928800Y-57879200D01*
X61929101Y-57873074D01*
X61930001Y-57867007D01*
X61931491Y-57861057D01*
X61933558Y-57855282D01*
X61936180Y-57849738D01*
X61939333Y-57844477D01*
X61942987Y-57839550D01*
X61947106Y-57835006D01*
X61951650Y-57830887D01*
X61956577Y-57827233D01*
X61961838Y-57824080D01*
X61967382Y-57821458D01*
X61973157Y-57819391D01*
X61979107Y-57817901D01*
X61985174Y-57817001D01*
X61991300Y-57816700D01*
X62666300Y-57816700D01*
X62672426Y-57817001D01*
X62672426Y-57817001D01*
G37*
D29*
X62328800Y-57941700D03*
D17*
G36*
X63097426Y-58242001D02*
G01*
X63103493Y-58242901D01*
X63109443Y-58244391D01*
X63115218Y-58246458D01*
X63120762Y-58249080D01*
X63126023Y-58252233D01*
X63130950Y-58255887D01*
X63135494Y-58260006D01*
X63139613Y-58264550D01*
X63143267Y-58269477D01*
X63146420Y-58274738D01*
X63149042Y-58280282D01*
X63151109Y-58286057D01*
X63152599Y-58292007D01*
X63153499Y-58298074D01*
X63153800Y-58304200D01*
X63153800Y-58979200D01*
X63153499Y-58985326D01*
X63152599Y-58991393D01*
X63151109Y-58997343D01*
X63149042Y-59003118D01*
X63146420Y-59008662D01*
X63143267Y-59013923D01*
X63139613Y-59018850D01*
X63135494Y-59023394D01*
X63130950Y-59027513D01*
X63126023Y-59031167D01*
X63120762Y-59034320D01*
X63115218Y-59036942D01*
X63109443Y-59039009D01*
X63103493Y-59040499D01*
X63097426Y-59041399D01*
X63091300Y-59041700D01*
X62966300Y-59041700D01*
X62960174Y-59041399D01*
X62954107Y-59040499D01*
X62948157Y-59039009D01*
X62942382Y-59036942D01*
X62936838Y-59034320D01*
X62931577Y-59031167D01*
X62926650Y-59027513D01*
X62922106Y-59023394D01*
X62917987Y-59018850D01*
X62914333Y-59013923D01*
X62911180Y-59008662D01*
X62908558Y-59003118D01*
X62906491Y-58997343D01*
X62905001Y-58991393D01*
X62904101Y-58985326D01*
X62903800Y-58979200D01*
X62903800Y-58304200D01*
X62904101Y-58298074D01*
X62905001Y-58292007D01*
X62906491Y-58286057D01*
X62908558Y-58280282D01*
X62911180Y-58274738D01*
X62914333Y-58269477D01*
X62917987Y-58264550D01*
X62922106Y-58260006D01*
X62926650Y-58255887D01*
X62931577Y-58252233D01*
X62936838Y-58249080D01*
X62942382Y-58246458D01*
X62948157Y-58244391D01*
X62954107Y-58242901D01*
X62960174Y-58242001D01*
X62966300Y-58241700D01*
X63091300Y-58241700D01*
X63097426Y-58242001D01*
X63097426Y-58242001D01*
G37*
D29*
X63028800Y-58641700D03*
D17*
G36*
X63597426Y-58242001D02*
G01*
X63603493Y-58242901D01*
X63609443Y-58244391D01*
X63615218Y-58246458D01*
X63620762Y-58249080D01*
X63626023Y-58252233D01*
X63630950Y-58255887D01*
X63635494Y-58260006D01*
X63639613Y-58264550D01*
X63643267Y-58269477D01*
X63646420Y-58274738D01*
X63649042Y-58280282D01*
X63651109Y-58286057D01*
X63652599Y-58292007D01*
X63653499Y-58298074D01*
X63653800Y-58304200D01*
X63653800Y-58979200D01*
X63653499Y-58985326D01*
X63652599Y-58991393D01*
X63651109Y-58997343D01*
X63649042Y-59003118D01*
X63646420Y-59008662D01*
X63643267Y-59013923D01*
X63639613Y-59018850D01*
X63635494Y-59023394D01*
X63630950Y-59027513D01*
X63626023Y-59031167D01*
X63620762Y-59034320D01*
X63615218Y-59036942D01*
X63609443Y-59039009D01*
X63603493Y-59040499D01*
X63597426Y-59041399D01*
X63591300Y-59041700D01*
X63466300Y-59041700D01*
X63460174Y-59041399D01*
X63454107Y-59040499D01*
X63448157Y-59039009D01*
X63442382Y-59036942D01*
X63436838Y-59034320D01*
X63431577Y-59031167D01*
X63426650Y-59027513D01*
X63422106Y-59023394D01*
X63417987Y-59018850D01*
X63414333Y-59013923D01*
X63411180Y-59008662D01*
X63408558Y-59003118D01*
X63406491Y-58997343D01*
X63405001Y-58991393D01*
X63404101Y-58985326D01*
X63403800Y-58979200D01*
X63403800Y-58304200D01*
X63404101Y-58298074D01*
X63405001Y-58292007D01*
X63406491Y-58286057D01*
X63408558Y-58280282D01*
X63411180Y-58274738D01*
X63414333Y-58269477D01*
X63417987Y-58264550D01*
X63422106Y-58260006D01*
X63426650Y-58255887D01*
X63431577Y-58252233D01*
X63436838Y-58249080D01*
X63442382Y-58246458D01*
X63448157Y-58244391D01*
X63454107Y-58242901D01*
X63460174Y-58242001D01*
X63466300Y-58241700D01*
X63591300Y-58241700D01*
X63597426Y-58242001D01*
X63597426Y-58242001D01*
G37*
D29*
X63528800Y-58641700D03*
D17*
G36*
X64097426Y-58242001D02*
G01*
X64103493Y-58242901D01*
X64109443Y-58244391D01*
X64115218Y-58246458D01*
X64120762Y-58249080D01*
X64126023Y-58252233D01*
X64130950Y-58255887D01*
X64135494Y-58260006D01*
X64139613Y-58264550D01*
X64143267Y-58269477D01*
X64146420Y-58274738D01*
X64149042Y-58280282D01*
X64151109Y-58286057D01*
X64152599Y-58292007D01*
X64153499Y-58298074D01*
X64153800Y-58304200D01*
X64153800Y-58979200D01*
X64153499Y-58985326D01*
X64152599Y-58991393D01*
X64151109Y-58997343D01*
X64149042Y-59003118D01*
X64146420Y-59008662D01*
X64143267Y-59013923D01*
X64139613Y-59018850D01*
X64135494Y-59023394D01*
X64130950Y-59027513D01*
X64126023Y-59031167D01*
X64120762Y-59034320D01*
X64115218Y-59036942D01*
X64109443Y-59039009D01*
X64103493Y-59040499D01*
X64097426Y-59041399D01*
X64091300Y-59041700D01*
X63966300Y-59041700D01*
X63960174Y-59041399D01*
X63954107Y-59040499D01*
X63948157Y-59039009D01*
X63942382Y-59036942D01*
X63936838Y-59034320D01*
X63931577Y-59031167D01*
X63926650Y-59027513D01*
X63922106Y-59023394D01*
X63917987Y-59018850D01*
X63914333Y-59013923D01*
X63911180Y-59008662D01*
X63908558Y-59003118D01*
X63906491Y-58997343D01*
X63905001Y-58991393D01*
X63904101Y-58985326D01*
X63903800Y-58979200D01*
X63903800Y-58304200D01*
X63904101Y-58298074D01*
X63905001Y-58292007D01*
X63906491Y-58286057D01*
X63908558Y-58280282D01*
X63911180Y-58274738D01*
X63914333Y-58269477D01*
X63917987Y-58264550D01*
X63922106Y-58260006D01*
X63926650Y-58255887D01*
X63931577Y-58252233D01*
X63936838Y-58249080D01*
X63942382Y-58246458D01*
X63948157Y-58244391D01*
X63954107Y-58242901D01*
X63960174Y-58242001D01*
X63966300Y-58241700D01*
X64091300Y-58241700D01*
X64097426Y-58242001D01*
X64097426Y-58242001D01*
G37*
D29*
X64028800Y-58641700D03*
D17*
G36*
X64597426Y-58242001D02*
G01*
X64603493Y-58242901D01*
X64609443Y-58244391D01*
X64615218Y-58246458D01*
X64620762Y-58249080D01*
X64626023Y-58252233D01*
X64630950Y-58255887D01*
X64635494Y-58260006D01*
X64639613Y-58264550D01*
X64643267Y-58269477D01*
X64646420Y-58274738D01*
X64649042Y-58280282D01*
X64651109Y-58286057D01*
X64652599Y-58292007D01*
X64653499Y-58298074D01*
X64653800Y-58304200D01*
X64653800Y-58979200D01*
X64653499Y-58985326D01*
X64652599Y-58991393D01*
X64651109Y-58997343D01*
X64649042Y-59003118D01*
X64646420Y-59008662D01*
X64643267Y-59013923D01*
X64639613Y-59018850D01*
X64635494Y-59023394D01*
X64630950Y-59027513D01*
X64626023Y-59031167D01*
X64620762Y-59034320D01*
X64615218Y-59036942D01*
X64609443Y-59039009D01*
X64603493Y-59040499D01*
X64597426Y-59041399D01*
X64591300Y-59041700D01*
X64466300Y-59041700D01*
X64460174Y-59041399D01*
X64454107Y-59040499D01*
X64448157Y-59039009D01*
X64442382Y-59036942D01*
X64436838Y-59034320D01*
X64431577Y-59031167D01*
X64426650Y-59027513D01*
X64422106Y-59023394D01*
X64417987Y-59018850D01*
X64414333Y-59013923D01*
X64411180Y-59008662D01*
X64408558Y-59003118D01*
X64406491Y-58997343D01*
X64405001Y-58991393D01*
X64404101Y-58985326D01*
X64403800Y-58979200D01*
X64403800Y-58304200D01*
X64404101Y-58298074D01*
X64405001Y-58292007D01*
X64406491Y-58286057D01*
X64408558Y-58280282D01*
X64411180Y-58274738D01*
X64414333Y-58269477D01*
X64417987Y-58264550D01*
X64422106Y-58260006D01*
X64426650Y-58255887D01*
X64431577Y-58252233D01*
X64436838Y-58249080D01*
X64442382Y-58246458D01*
X64448157Y-58244391D01*
X64454107Y-58242901D01*
X64460174Y-58242001D01*
X64466300Y-58241700D01*
X64591300Y-58241700D01*
X64597426Y-58242001D01*
X64597426Y-58242001D01*
G37*
D29*
X64528800Y-58641700D03*
D17*
G36*
X65572426Y-57817001D02*
G01*
X65578493Y-57817901D01*
X65584443Y-57819391D01*
X65590218Y-57821458D01*
X65595762Y-57824080D01*
X65601023Y-57827233D01*
X65605950Y-57830887D01*
X65610494Y-57835006D01*
X65614613Y-57839550D01*
X65618267Y-57844477D01*
X65621420Y-57849738D01*
X65624042Y-57855282D01*
X65626109Y-57861057D01*
X65627599Y-57867007D01*
X65628499Y-57873074D01*
X65628800Y-57879200D01*
X65628800Y-58004200D01*
X65628499Y-58010326D01*
X65627599Y-58016393D01*
X65626109Y-58022343D01*
X65624042Y-58028118D01*
X65621420Y-58033662D01*
X65618267Y-58038923D01*
X65614613Y-58043850D01*
X65610494Y-58048394D01*
X65605950Y-58052513D01*
X65601023Y-58056167D01*
X65595762Y-58059320D01*
X65590218Y-58061942D01*
X65584443Y-58064009D01*
X65578493Y-58065499D01*
X65572426Y-58066399D01*
X65566300Y-58066700D01*
X64891300Y-58066700D01*
X64885174Y-58066399D01*
X64879107Y-58065499D01*
X64873157Y-58064009D01*
X64867382Y-58061942D01*
X64861838Y-58059320D01*
X64856577Y-58056167D01*
X64851650Y-58052513D01*
X64847106Y-58048394D01*
X64842987Y-58043850D01*
X64839333Y-58038923D01*
X64836180Y-58033662D01*
X64833558Y-58028118D01*
X64831491Y-58022343D01*
X64830001Y-58016393D01*
X64829101Y-58010326D01*
X64828800Y-58004200D01*
X64828800Y-57879200D01*
X64829101Y-57873074D01*
X64830001Y-57867007D01*
X64831491Y-57861057D01*
X64833558Y-57855282D01*
X64836180Y-57849738D01*
X64839333Y-57844477D01*
X64842987Y-57839550D01*
X64847106Y-57835006D01*
X64851650Y-57830887D01*
X64856577Y-57827233D01*
X64861838Y-57824080D01*
X64867382Y-57821458D01*
X64873157Y-57819391D01*
X64879107Y-57817901D01*
X64885174Y-57817001D01*
X64891300Y-57816700D01*
X65566300Y-57816700D01*
X65572426Y-57817001D01*
X65572426Y-57817001D01*
G37*
D29*
X65228800Y-57941700D03*
D17*
G36*
X65572426Y-57317001D02*
G01*
X65578493Y-57317901D01*
X65584443Y-57319391D01*
X65590218Y-57321458D01*
X65595762Y-57324080D01*
X65601023Y-57327233D01*
X65605950Y-57330887D01*
X65610494Y-57335006D01*
X65614613Y-57339550D01*
X65618267Y-57344477D01*
X65621420Y-57349738D01*
X65624042Y-57355282D01*
X65626109Y-57361057D01*
X65627599Y-57367007D01*
X65628499Y-57373074D01*
X65628800Y-57379200D01*
X65628800Y-57504200D01*
X65628499Y-57510326D01*
X65627599Y-57516393D01*
X65626109Y-57522343D01*
X65624042Y-57528118D01*
X65621420Y-57533662D01*
X65618267Y-57538923D01*
X65614613Y-57543850D01*
X65610494Y-57548394D01*
X65605950Y-57552513D01*
X65601023Y-57556167D01*
X65595762Y-57559320D01*
X65590218Y-57561942D01*
X65584443Y-57564009D01*
X65578493Y-57565499D01*
X65572426Y-57566399D01*
X65566300Y-57566700D01*
X64891300Y-57566700D01*
X64885174Y-57566399D01*
X64879107Y-57565499D01*
X64873157Y-57564009D01*
X64867382Y-57561942D01*
X64861838Y-57559320D01*
X64856577Y-57556167D01*
X64851650Y-57552513D01*
X64847106Y-57548394D01*
X64842987Y-57543850D01*
X64839333Y-57538923D01*
X64836180Y-57533662D01*
X64833558Y-57528118D01*
X64831491Y-57522343D01*
X64830001Y-57516393D01*
X64829101Y-57510326D01*
X64828800Y-57504200D01*
X64828800Y-57379200D01*
X64829101Y-57373074D01*
X64830001Y-57367007D01*
X64831491Y-57361057D01*
X64833558Y-57355282D01*
X64836180Y-57349738D01*
X64839333Y-57344477D01*
X64842987Y-57339550D01*
X64847106Y-57335006D01*
X64851650Y-57330887D01*
X64856577Y-57327233D01*
X64861838Y-57324080D01*
X64867382Y-57321458D01*
X64873157Y-57319391D01*
X64879107Y-57317901D01*
X64885174Y-57317001D01*
X64891300Y-57316700D01*
X65566300Y-57316700D01*
X65572426Y-57317001D01*
X65572426Y-57317001D01*
G37*
D29*
X65228800Y-57441700D03*
D17*
G36*
X65572426Y-56817001D02*
G01*
X65578493Y-56817901D01*
X65584443Y-56819391D01*
X65590218Y-56821458D01*
X65595762Y-56824080D01*
X65601023Y-56827233D01*
X65605950Y-56830887D01*
X65610494Y-56835006D01*
X65614613Y-56839550D01*
X65618267Y-56844477D01*
X65621420Y-56849738D01*
X65624042Y-56855282D01*
X65626109Y-56861057D01*
X65627599Y-56867007D01*
X65628499Y-56873074D01*
X65628800Y-56879200D01*
X65628800Y-57004200D01*
X65628499Y-57010326D01*
X65627599Y-57016393D01*
X65626109Y-57022343D01*
X65624042Y-57028118D01*
X65621420Y-57033662D01*
X65618267Y-57038923D01*
X65614613Y-57043850D01*
X65610494Y-57048394D01*
X65605950Y-57052513D01*
X65601023Y-57056167D01*
X65595762Y-57059320D01*
X65590218Y-57061942D01*
X65584443Y-57064009D01*
X65578493Y-57065499D01*
X65572426Y-57066399D01*
X65566300Y-57066700D01*
X64891300Y-57066700D01*
X64885174Y-57066399D01*
X64879107Y-57065499D01*
X64873157Y-57064009D01*
X64867382Y-57061942D01*
X64861838Y-57059320D01*
X64856577Y-57056167D01*
X64851650Y-57052513D01*
X64847106Y-57048394D01*
X64842987Y-57043850D01*
X64839333Y-57038923D01*
X64836180Y-57033662D01*
X64833558Y-57028118D01*
X64831491Y-57022343D01*
X64830001Y-57016393D01*
X64829101Y-57010326D01*
X64828800Y-57004200D01*
X64828800Y-56879200D01*
X64829101Y-56873074D01*
X64830001Y-56867007D01*
X64831491Y-56861057D01*
X64833558Y-56855282D01*
X64836180Y-56849738D01*
X64839333Y-56844477D01*
X64842987Y-56839550D01*
X64847106Y-56835006D01*
X64851650Y-56830887D01*
X64856577Y-56827233D01*
X64861838Y-56824080D01*
X64867382Y-56821458D01*
X64873157Y-56819391D01*
X64879107Y-56817901D01*
X64885174Y-56817001D01*
X64891300Y-56816700D01*
X65566300Y-56816700D01*
X65572426Y-56817001D01*
X65572426Y-56817001D01*
G37*
D29*
X65228800Y-56941700D03*
D17*
G36*
X65572426Y-56317001D02*
G01*
X65578493Y-56317901D01*
X65584443Y-56319391D01*
X65590218Y-56321458D01*
X65595762Y-56324080D01*
X65601023Y-56327233D01*
X65605950Y-56330887D01*
X65610494Y-56335006D01*
X65614613Y-56339550D01*
X65618267Y-56344477D01*
X65621420Y-56349738D01*
X65624042Y-56355282D01*
X65626109Y-56361057D01*
X65627599Y-56367007D01*
X65628499Y-56373074D01*
X65628800Y-56379200D01*
X65628800Y-56504200D01*
X65628499Y-56510326D01*
X65627599Y-56516393D01*
X65626109Y-56522343D01*
X65624042Y-56528118D01*
X65621420Y-56533662D01*
X65618267Y-56538923D01*
X65614613Y-56543850D01*
X65610494Y-56548394D01*
X65605950Y-56552513D01*
X65601023Y-56556167D01*
X65595762Y-56559320D01*
X65590218Y-56561942D01*
X65584443Y-56564009D01*
X65578493Y-56565499D01*
X65572426Y-56566399D01*
X65566300Y-56566700D01*
X64891300Y-56566700D01*
X64885174Y-56566399D01*
X64879107Y-56565499D01*
X64873157Y-56564009D01*
X64867382Y-56561942D01*
X64861838Y-56559320D01*
X64856577Y-56556167D01*
X64851650Y-56552513D01*
X64847106Y-56548394D01*
X64842987Y-56543850D01*
X64839333Y-56538923D01*
X64836180Y-56533662D01*
X64833558Y-56528118D01*
X64831491Y-56522343D01*
X64830001Y-56516393D01*
X64829101Y-56510326D01*
X64828800Y-56504200D01*
X64828800Y-56379200D01*
X64829101Y-56373074D01*
X64830001Y-56367007D01*
X64831491Y-56361057D01*
X64833558Y-56355282D01*
X64836180Y-56349738D01*
X64839333Y-56344477D01*
X64842987Y-56339550D01*
X64847106Y-56335006D01*
X64851650Y-56330887D01*
X64856577Y-56327233D01*
X64861838Y-56324080D01*
X64867382Y-56321458D01*
X64873157Y-56319391D01*
X64879107Y-56317901D01*
X64885174Y-56317001D01*
X64891300Y-56316700D01*
X65566300Y-56316700D01*
X65572426Y-56317001D01*
X65572426Y-56317001D01*
G37*
D29*
X65228800Y-56441700D03*
D17*
G36*
X64597426Y-55342001D02*
G01*
X64603493Y-55342901D01*
X64609443Y-55344391D01*
X64615218Y-55346458D01*
X64620762Y-55349080D01*
X64626023Y-55352233D01*
X64630950Y-55355887D01*
X64635494Y-55360006D01*
X64639613Y-55364550D01*
X64643267Y-55369477D01*
X64646420Y-55374738D01*
X64649042Y-55380282D01*
X64651109Y-55386057D01*
X64652599Y-55392007D01*
X64653499Y-55398074D01*
X64653800Y-55404200D01*
X64653800Y-56079200D01*
X64653499Y-56085326D01*
X64652599Y-56091393D01*
X64651109Y-56097343D01*
X64649042Y-56103118D01*
X64646420Y-56108662D01*
X64643267Y-56113923D01*
X64639613Y-56118850D01*
X64635494Y-56123394D01*
X64630950Y-56127513D01*
X64626023Y-56131167D01*
X64620762Y-56134320D01*
X64615218Y-56136942D01*
X64609443Y-56139009D01*
X64603493Y-56140499D01*
X64597426Y-56141399D01*
X64591300Y-56141700D01*
X64466300Y-56141700D01*
X64460174Y-56141399D01*
X64454107Y-56140499D01*
X64448157Y-56139009D01*
X64442382Y-56136942D01*
X64436838Y-56134320D01*
X64431577Y-56131167D01*
X64426650Y-56127513D01*
X64422106Y-56123394D01*
X64417987Y-56118850D01*
X64414333Y-56113923D01*
X64411180Y-56108662D01*
X64408558Y-56103118D01*
X64406491Y-56097343D01*
X64405001Y-56091393D01*
X64404101Y-56085326D01*
X64403800Y-56079200D01*
X64403800Y-55404200D01*
X64404101Y-55398074D01*
X64405001Y-55392007D01*
X64406491Y-55386057D01*
X64408558Y-55380282D01*
X64411180Y-55374738D01*
X64414333Y-55369477D01*
X64417987Y-55364550D01*
X64422106Y-55360006D01*
X64426650Y-55355887D01*
X64431577Y-55352233D01*
X64436838Y-55349080D01*
X64442382Y-55346458D01*
X64448157Y-55344391D01*
X64454107Y-55342901D01*
X64460174Y-55342001D01*
X64466300Y-55341700D01*
X64591300Y-55341700D01*
X64597426Y-55342001D01*
X64597426Y-55342001D01*
G37*
D29*
X64528800Y-55741700D03*
D17*
G36*
X64097426Y-55342001D02*
G01*
X64103493Y-55342901D01*
X64109443Y-55344391D01*
X64115218Y-55346458D01*
X64120762Y-55349080D01*
X64126023Y-55352233D01*
X64130950Y-55355887D01*
X64135494Y-55360006D01*
X64139613Y-55364550D01*
X64143267Y-55369477D01*
X64146420Y-55374738D01*
X64149042Y-55380282D01*
X64151109Y-55386057D01*
X64152599Y-55392007D01*
X64153499Y-55398074D01*
X64153800Y-55404200D01*
X64153800Y-56079200D01*
X64153499Y-56085326D01*
X64152599Y-56091393D01*
X64151109Y-56097343D01*
X64149042Y-56103118D01*
X64146420Y-56108662D01*
X64143267Y-56113923D01*
X64139613Y-56118850D01*
X64135494Y-56123394D01*
X64130950Y-56127513D01*
X64126023Y-56131167D01*
X64120762Y-56134320D01*
X64115218Y-56136942D01*
X64109443Y-56139009D01*
X64103493Y-56140499D01*
X64097426Y-56141399D01*
X64091300Y-56141700D01*
X63966300Y-56141700D01*
X63960174Y-56141399D01*
X63954107Y-56140499D01*
X63948157Y-56139009D01*
X63942382Y-56136942D01*
X63936838Y-56134320D01*
X63931577Y-56131167D01*
X63926650Y-56127513D01*
X63922106Y-56123394D01*
X63917987Y-56118850D01*
X63914333Y-56113923D01*
X63911180Y-56108662D01*
X63908558Y-56103118D01*
X63906491Y-56097343D01*
X63905001Y-56091393D01*
X63904101Y-56085326D01*
X63903800Y-56079200D01*
X63903800Y-55404200D01*
X63904101Y-55398074D01*
X63905001Y-55392007D01*
X63906491Y-55386057D01*
X63908558Y-55380282D01*
X63911180Y-55374738D01*
X63914333Y-55369477D01*
X63917987Y-55364550D01*
X63922106Y-55360006D01*
X63926650Y-55355887D01*
X63931577Y-55352233D01*
X63936838Y-55349080D01*
X63942382Y-55346458D01*
X63948157Y-55344391D01*
X63954107Y-55342901D01*
X63960174Y-55342001D01*
X63966300Y-55341700D01*
X64091300Y-55341700D01*
X64097426Y-55342001D01*
X64097426Y-55342001D01*
G37*
D29*
X64028800Y-55741700D03*
D17*
G36*
X63597426Y-55342001D02*
G01*
X63603493Y-55342901D01*
X63609443Y-55344391D01*
X63615218Y-55346458D01*
X63620762Y-55349080D01*
X63626023Y-55352233D01*
X63630950Y-55355887D01*
X63635494Y-55360006D01*
X63639613Y-55364550D01*
X63643267Y-55369477D01*
X63646420Y-55374738D01*
X63649042Y-55380282D01*
X63651109Y-55386057D01*
X63652599Y-55392007D01*
X63653499Y-55398074D01*
X63653800Y-55404200D01*
X63653800Y-56079200D01*
X63653499Y-56085326D01*
X63652599Y-56091393D01*
X63651109Y-56097343D01*
X63649042Y-56103118D01*
X63646420Y-56108662D01*
X63643267Y-56113923D01*
X63639613Y-56118850D01*
X63635494Y-56123394D01*
X63630950Y-56127513D01*
X63626023Y-56131167D01*
X63620762Y-56134320D01*
X63615218Y-56136942D01*
X63609443Y-56139009D01*
X63603493Y-56140499D01*
X63597426Y-56141399D01*
X63591300Y-56141700D01*
X63466300Y-56141700D01*
X63460174Y-56141399D01*
X63454107Y-56140499D01*
X63448157Y-56139009D01*
X63442382Y-56136942D01*
X63436838Y-56134320D01*
X63431577Y-56131167D01*
X63426650Y-56127513D01*
X63422106Y-56123394D01*
X63417987Y-56118850D01*
X63414333Y-56113923D01*
X63411180Y-56108662D01*
X63408558Y-56103118D01*
X63406491Y-56097343D01*
X63405001Y-56091393D01*
X63404101Y-56085326D01*
X63403800Y-56079200D01*
X63403800Y-55404200D01*
X63404101Y-55398074D01*
X63405001Y-55392007D01*
X63406491Y-55386057D01*
X63408558Y-55380282D01*
X63411180Y-55374738D01*
X63414333Y-55369477D01*
X63417987Y-55364550D01*
X63422106Y-55360006D01*
X63426650Y-55355887D01*
X63431577Y-55352233D01*
X63436838Y-55349080D01*
X63442382Y-55346458D01*
X63448157Y-55344391D01*
X63454107Y-55342901D01*
X63460174Y-55342001D01*
X63466300Y-55341700D01*
X63591300Y-55341700D01*
X63597426Y-55342001D01*
X63597426Y-55342001D01*
G37*
D29*
X63528800Y-55741700D03*
D17*
G36*
X63097426Y-55342001D02*
G01*
X63103493Y-55342901D01*
X63109443Y-55344391D01*
X63115218Y-55346458D01*
X63120762Y-55349080D01*
X63126023Y-55352233D01*
X63130950Y-55355887D01*
X63135494Y-55360006D01*
X63139613Y-55364550D01*
X63143267Y-55369477D01*
X63146420Y-55374738D01*
X63149042Y-55380282D01*
X63151109Y-55386057D01*
X63152599Y-55392007D01*
X63153499Y-55398074D01*
X63153800Y-55404200D01*
X63153800Y-56079200D01*
X63153499Y-56085326D01*
X63152599Y-56091393D01*
X63151109Y-56097343D01*
X63149042Y-56103118D01*
X63146420Y-56108662D01*
X63143267Y-56113923D01*
X63139613Y-56118850D01*
X63135494Y-56123394D01*
X63130950Y-56127513D01*
X63126023Y-56131167D01*
X63120762Y-56134320D01*
X63115218Y-56136942D01*
X63109443Y-56139009D01*
X63103493Y-56140499D01*
X63097426Y-56141399D01*
X63091300Y-56141700D01*
X62966300Y-56141700D01*
X62960174Y-56141399D01*
X62954107Y-56140499D01*
X62948157Y-56139009D01*
X62942382Y-56136942D01*
X62936838Y-56134320D01*
X62931577Y-56131167D01*
X62926650Y-56127513D01*
X62922106Y-56123394D01*
X62917987Y-56118850D01*
X62914333Y-56113923D01*
X62911180Y-56108662D01*
X62908558Y-56103118D01*
X62906491Y-56097343D01*
X62905001Y-56091393D01*
X62904101Y-56085326D01*
X62903800Y-56079200D01*
X62903800Y-55404200D01*
X62904101Y-55398074D01*
X62905001Y-55392007D01*
X62906491Y-55386057D01*
X62908558Y-55380282D01*
X62911180Y-55374738D01*
X62914333Y-55369477D01*
X62917987Y-55364550D01*
X62922106Y-55360006D01*
X62926650Y-55355887D01*
X62931577Y-55352233D01*
X62936838Y-55349080D01*
X62942382Y-55346458D01*
X62948157Y-55344391D01*
X62954107Y-55342901D01*
X62960174Y-55342001D01*
X62966300Y-55341700D01*
X63091300Y-55341700D01*
X63097426Y-55342001D01*
X63097426Y-55342001D01*
G37*
D29*
X63028800Y-55741700D03*
D17*
G36*
X91289203Y-47733522D02*
G01*
X91303764Y-47735682D01*
X91318043Y-47739259D01*
X91331903Y-47744218D01*
X91345210Y-47750512D01*
X91357836Y-47758080D01*
X91369659Y-47766848D01*
X91380566Y-47776734D01*
X91390452Y-47787641D01*
X91399220Y-47799464D01*
X91406788Y-47812090D01*
X91413082Y-47825397D01*
X91418041Y-47839257D01*
X91421618Y-47853536D01*
X91423778Y-47868097D01*
X91424500Y-47882800D01*
X91424500Y-48182800D01*
X91423778Y-48197503D01*
X91421618Y-48212064D01*
X91418041Y-48226343D01*
X91413082Y-48240203D01*
X91406788Y-48253510D01*
X91399220Y-48266136D01*
X91390452Y-48277959D01*
X91380566Y-48288866D01*
X91369659Y-48298752D01*
X91357836Y-48307520D01*
X91345210Y-48315088D01*
X91331903Y-48321382D01*
X91318043Y-48326341D01*
X91303764Y-48329918D01*
X91289203Y-48332078D01*
X91274500Y-48332800D01*
X89624500Y-48332800D01*
X89609797Y-48332078D01*
X89595236Y-48329918D01*
X89580957Y-48326341D01*
X89567097Y-48321382D01*
X89553790Y-48315088D01*
X89541164Y-48307520D01*
X89529341Y-48298752D01*
X89518434Y-48288866D01*
X89508548Y-48277959D01*
X89499780Y-48266136D01*
X89492212Y-48253510D01*
X89485918Y-48240203D01*
X89480959Y-48226343D01*
X89477382Y-48212064D01*
X89475222Y-48197503D01*
X89474500Y-48182800D01*
X89474500Y-47882800D01*
X89475222Y-47868097D01*
X89477382Y-47853536D01*
X89480959Y-47839257D01*
X89485918Y-47825397D01*
X89492212Y-47812090D01*
X89499780Y-47799464D01*
X89508548Y-47787641D01*
X89518434Y-47776734D01*
X89529341Y-47766848D01*
X89541164Y-47758080D01*
X89553790Y-47750512D01*
X89567097Y-47744218D01*
X89580957Y-47739259D01*
X89595236Y-47735682D01*
X89609797Y-47733522D01*
X89624500Y-47732800D01*
X91274500Y-47732800D01*
X91289203Y-47733522D01*
X91289203Y-47733522D01*
G37*
D28*
X90449500Y-48032800D03*
D17*
G36*
X91289203Y-46463522D02*
G01*
X91303764Y-46465682D01*
X91318043Y-46469259D01*
X91331903Y-46474218D01*
X91345210Y-46480512D01*
X91357836Y-46488080D01*
X91369659Y-46496848D01*
X91380566Y-46506734D01*
X91390452Y-46517641D01*
X91399220Y-46529464D01*
X91406788Y-46542090D01*
X91413082Y-46555397D01*
X91418041Y-46569257D01*
X91421618Y-46583536D01*
X91423778Y-46598097D01*
X91424500Y-46612800D01*
X91424500Y-46912800D01*
X91423778Y-46927503D01*
X91421618Y-46942064D01*
X91418041Y-46956343D01*
X91413082Y-46970203D01*
X91406788Y-46983510D01*
X91399220Y-46996136D01*
X91390452Y-47007959D01*
X91380566Y-47018866D01*
X91369659Y-47028752D01*
X91357836Y-47037520D01*
X91345210Y-47045088D01*
X91331903Y-47051382D01*
X91318043Y-47056341D01*
X91303764Y-47059918D01*
X91289203Y-47062078D01*
X91274500Y-47062800D01*
X89624500Y-47062800D01*
X89609797Y-47062078D01*
X89595236Y-47059918D01*
X89580957Y-47056341D01*
X89567097Y-47051382D01*
X89553790Y-47045088D01*
X89541164Y-47037520D01*
X89529341Y-47028752D01*
X89518434Y-47018866D01*
X89508548Y-47007959D01*
X89499780Y-46996136D01*
X89492212Y-46983510D01*
X89485918Y-46970203D01*
X89480959Y-46956343D01*
X89477382Y-46942064D01*
X89475222Y-46927503D01*
X89474500Y-46912800D01*
X89474500Y-46612800D01*
X89475222Y-46598097D01*
X89477382Y-46583536D01*
X89480959Y-46569257D01*
X89485918Y-46555397D01*
X89492212Y-46542090D01*
X89499780Y-46529464D01*
X89508548Y-46517641D01*
X89518434Y-46506734D01*
X89529341Y-46496848D01*
X89541164Y-46488080D01*
X89553790Y-46480512D01*
X89567097Y-46474218D01*
X89580957Y-46469259D01*
X89595236Y-46465682D01*
X89609797Y-46463522D01*
X89624500Y-46462800D01*
X91274500Y-46462800D01*
X91289203Y-46463522D01*
X91289203Y-46463522D01*
G37*
D28*
X90449500Y-46762800D03*
D17*
G36*
X91289203Y-45193522D02*
G01*
X91303764Y-45195682D01*
X91318043Y-45199259D01*
X91331903Y-45204218D01*
X91345210Y-45210512D01*
X91357836Y-45218080D01*
X91369659Y-45226848D01*
X91380566Y-45236734D01*
X91390452Y-45247641D01*
X91399220Y-45259464D01*
X91406788Y-45272090D01*
X91413082Y-45285397D01*
X91418041Y-45299257D01*
X91421618Y-45313536D01*
X91423778Y-45328097D01*
X91424500Y-45342800D01*
X91424500Y-45642800D01*
X91423778Y-45657503D01*
X91421618Y-45672064D01*
X91418041Y-45686343D01*
X91413082Y-45700203D01*
X91406788Y-45713510D01*
X91399220Y-45726136D01*
X91390452Y-45737959D01*
X91380566Y-45748866D01*
X91369659Y-45758752D01*
X91357836Y-45767520D01*
X91345210Y-45775088D01*
X91331903Y-45781382D01*
X91318043Y-45786341D01*
X91303764Y-45789918D01*
X91289203Y-45792078D01*
X91274500Y-45792800D01*
X89624500Y-45792800D01*
X89609797Y-45792078D01*
X89595236Y-45789918D01*
X89580957Y-45786341D01*
X89567097Y-45781382D01*
X89553790Y-45775088D01*
X89541164Y-45767520D01*
X89529341Y-45758752D01*
X89518434Y-45748866D01*
X89508548Y-45737959D01*
X89499780Y-45726136D01*
X89492212Y-45713510D01*
X89485918Y-45700203D01*
X89480959Y-45686343D01*
X89477382Y-45672064D01*
X89475222Y-45657503D01*
X89474500Y-45642800D01*
X89474500Y-45342800D01*
X89475222Y-45328097D01*
X89477382Y-45313536D01*
X89480959Y-45299257D01*
X89485918Y-45285397D01*
X89492212Y-45272090D01*
X89499780Y-45259464D01*
X89508548Y-45247641D01*
X89518434Y-45236734D01*
X89529341Y-45226848D01*
X89541164Y-45218080D01*
X89553790Y-45210512D01*
X89567097Y-45204218D01*
X89580957Y-45199259D01*
X89595236Y-45195682D01*
X89609797Y-45193522D01*
X89624500Y-45192800D01*
X91274500Y-45192800D01*
X91289203Y-45193522D01*
X91289203Y-45193522D01*
G37*
D28*
X90449500Y-45492800D03*
D17*
G36*
X91289203Y-43923522D02*
G01*
X91303764Y-43925682D01*
X91318043Y-43929259D01*
X91331903Y-43934218D01*
X91345210Y-43940512D01*
X91357836Y-43948080D01*
X91369659Y-43956848D01*
X91380566Y-43966734D01*
X91390452Y-43977641D01*
X91399220Y-43989464D01*
X91406788Y-44002090D01*
X91413082Y-44015397D01*
X91418041Y-44029257D01*
X91421618Y-44043536D01*
X91423778Y-44058097D01*
X91424500Y-44072800D01*
X91424500Y-44372800D01*
X91423778Y-44387503D01*
X91421618Y-44402064D01*
X91418041Y-44416343D01*
X91413082Y-44430203D01*
X91406788Y-44443510D01*
X91399220Y-44456136D01*
X91390452Y-44467959D01*
X91380566Y-44478866D01*
X91369659Y-44488752D01*
X91357836Y-44497520D01*
X91345210Y-44505088D01*
X91331903Y-44511382D01*
X91318043Y-44516341D01*
X91303764Y-44519918D01*
X91289203Y-44522078D01*
X91274500Y-44522800D01*
X89624500Y-44522800D01*
X89609797Y-44522078D01*
X89595236Y-44519918D01*
X89580957Y-44516341D01*
X89567097Y-44511382D01*
X89553790Y-44505088D01*
X89541164Y-44497520D01*
X89529341Y-44488752D01*
X89518434Y-44478866D01*
X89508548Y-44467959D01*
X89499780Y-44456136D01*
X89492212Y-44443510D01*
X89485918Y-44430203D01*
X89480959Y-44416343D01*
X89477382Y-44402064D01*
X89475222Y-44387503D01*
X89474500Y-44372800D01*
X89474500Y-44072800D01*
X89475222Y-44058097D01*
X89477382Y-44043536D01*
X89480959Y-44029257D01*
X89485918Y-44015397D01*
X89492212Y-44002090D01*
X89499780Y-43989464D01*
X89508548Y-43977641D01*
X89518434Y-43966734D01*
X89529341Y-43956848D01*
X89541164Y-43948080D01*
X89553790Y-43940512D01*
X89567097Y-43934218D01*
X89580957Y-43929259D01*
X89595236Y-43925682D01*
X89609797Y-43923522D01*
X89624500Y-43922800D01*
X91274500Y-43922800D01*
X91289203Y-43923522D01*
X91289203Y-43923522D01*
G37*
D28*
X90449500Y-44222800D03*
D17*
G36*
X86339203Y-43923522D02*
G01*
X86353764Y-43925682D01*
X86368043Y-43929259D01*
X86381903Y-43934218D01*
X86395210Y-43940512D01*
X86407836Y-43948080D01*
X86419659Y-43956848D01*
X86430566Y-43966734D01*
X86440452Y-43977641D01*
X86449220Y-43989464D01*
X86456788Y-44002090D01*
X86463082Y-44015397D01*
X86468041Y-44029257D01*
X86471618Y-44043536D01*
X86473778Y-44058097D01*
X86474500Y-44072800D01*
X86474500Y-44372800D01*
X86473778Y-44387503D01*
X86471618Y-44402064D01*
X86468041Y-44416343D01*
X86463082Y-44430203D01*
X86456788Y-44443510D01*
X86449220Y-44456136D01*
X86440452Y-44467959D01*
X86430566Y-44478866D01*
X86419659Y-44488752D01*
X86407836Y-44497520D01*
X86395210Y-44505088D01*
X86381903Y-44511382D01*
X86368043Y-44516341D01*
X86353764Y-44519918D01*
X86339203Y-44522078D01*
X86324500Y-44522800D01*
X84674500Y-44522800D01*
X84659797Y-44522078D01*
X84645236Y-44519918D01*
X84630957Y-44516341D01*
X84617097Y-44511382D01*
X84603790Y-44505088D01*
X84591164Y-44497520D01*
X84579341Y-44488752D01*
X84568434Y-44478866D01*
X84558548Y-44467959D01*
X84549780Y-44456136D01*
X84542212Y-44443510D01*
X84535918Y-44430203D01*
X84530959Y-44416343D01*
X84527382Y-44402064D01*
X84525222Y-44387503D01*
X84524500Y-44372800D01*
X84524500Y-44072800D01*
X84525222Y-44058097D01*
X84527382Y-44043536D01*
X84530959Y-44029257D01*
X84535918Y-44015397D01*
X84542212Y-44002090D01*
X84549780Y-43989464D01*
X84558548Y-43977641D01*
X84568434Y-43966734D01*
X84579341Y-43956848D01*
X84591164Y-43948080D01*
X84603790Y-43940512D01*
X84617097Y-43934218D01*
X84630957Y-43929259D01*
X84645236Y-43925682D01*
X84659797Y-43923522D01*
X84674500Y-43922800D01*
X86324500Y-43922800D01*
X86339203Y-43923522D01*
X86339203Y-43923522D01*
G37*
D28*
X85499500Y-44222800D03*
D17*
G36*
X86339203Y-45193522D02*
G01*
X86353764Y-45195682D01*
X86368043Y-45199259D01*
X86381903Y-45204218D01*
X86395210Y-45210512D01*
X86407836Y-45218080D01*
X86419659Y-45226848D01*
X86430566Y-45236734D01*
X86440452Y-45247641D01*
X86449220Y-45259464D01*
X86456788Y-45272090D01*
X86463082Y-45285397D01*
X86468041Y-45299257D01*
X86471618Y-45313536D01*
X86473778Y-45328097D01*
X86474500Y-45342800D01*
X86474500Y-45642800D01*
X86473778Y-45657503D01*
X86471618Y-45672064D01*
X86468041Y-45686343D01*
X86463082Y-45700203D01*
X86456788Y-45713510D01*
X86449220Y-45726136D01*
X86440452Y-45737959D01*
X86430566Y-45748866D01*
X86419659Y-45758752D01*
X86407836Y-45767520D01*
X86395210Y-45775088D01*
X86381903Y-45781382D01*
X86368043Y-45786341D01*
X86353764Y-45789918D01*
X86339203Y-45792078D01*
X86324500Y-45792800D01*
X84674500Y-45792800D01*
X84659797Y-45792078D01*
X84645236Y-45789918D01*
X84630957Y-45786341D01*
X84617097Y-45781382D01*
X84603790Y-45775088D01*
X84591164Y-45767520D01*
X84579341Y-45758752D01*
X84568434Y-45748866D01*
X84558548Y-45737959D01*
X84549780Y-45726136D01*
X84542212Y-45713510D01*
X84535918Y-45700203D01*
X84530959Y-45686343D01*
X84527382Y-45672064D01*
X84525222Y-45657503D01*
X84524500Y-45642800D01*
X84524500Y-45342800D01*
X84525222Y-45328097D01*
X84527382Y-45313536D01*
X84530959Y-45299257D01*
X84535918Y-45285397D01*
X84542212Y-45272090D01*
X84549780Y-45259464D01*
X84558548Y-45247641D01*
X84568434Y-45236734D01*
X84579341Y-45226848D01*
X84591164Y-45218080D01*
X84603790Y-45210512D01*
X84617097Y-45204218D01*
X84630957Y-45199259D01*
X84645236Y-45195682D01*
X84659797Y-45193522D01*
X84674500Y-45192800D01*
X86324500Y-45192800D01*
X86339203Y-45193522D01*
X86339203Y-45193522D01*
G37*
D28*
X85499500Y-45492800D03*
D17*
G36*
X86339203Y-46463522D02*
G01*
X86353764Y-46465682D01*
X86368043Y-46469259D01*
X86381903Y-46474218D01*
X86395210Y-46480512D01*
X86407836Y-46488080D01*
X86419659Y-46496848D01*
X86430566Y-46506734D01*
X86440452Y-46517641D01*
X86449220Y-46529464D01*
X86456788Y-46542090D01*
X86463082Y-46555397D01*
X86468041Y-46569257D01*
X86471618Y-46583536D01*
X86473778Y-46598097D01*
X86474500Y-46612800D01*
X86474500Y-46912800D01*
X86473778Y-46927503D01*
X86471618Y-46942064D01*
X86468041Y-46956343D01*
X86463082Y-46970203D01*
X86456788Y-46983510D01*
X86449220Y-46996136D01*
X86440452Y-47007959D01*
X86430566Y-47018866D01*
X86419659Y-47028752D01*
X86407836Y-47037520D01*
X86395210Y-47045088D01*
X86381903Y-47051382D01*
X86368043Y-47056341D01*
X86353764Y-47059918D01*
X86339203Y-47062078D01*
X86324500Y-47062800D01*
X84674500Y-47062800D01*
X84659797Y-47062078D01*
X84645236Y-47059918D01*
X84630957Y-47056341D01*
X84617097Y-47051382D01*
X84603790Y-47045088D01*
X84591164Y-47037520D01*
X84579341Y-47028752D01*
X84568434Y-47018866D01*
X84558548Y-47007959D01*
X84549780Y-46996136D01*
X84542212Y-46983510D01*
X84535918Y-46970203D01*
X84530959Y-46956343D01*
X84527382Y-46942064D01*
X84525222Y-46927503D01*
X84524500Y-46912800D01*
X84524500Y-46612800D01*
X84525222Y-46598097D01*
X84527382Y-46583536D01*
X84530959Y-46569257D01*
X84535918Y-46555397D01*
X84542212Y-46542090D01*
X84549780Y-46529464D01*
X84558548Y-46517641D01*
X84568434Y-46506734D01*
X84579341Y-46496848D01*
X84591164Y-46488080D01*
X84603790Y-46480512D01*
X84617097Y-46474218D01*
X84630957Y-46469259D01*
X84645236Y-46465682D01*
X84659797Y-46463522D01*
X84674500Y-46462800D01*
X86324500Y-46462800D01*
X86339203Y-46463522D01*
X86339203Y-46463522D01*
G37*
D28*
X85499500Y-46762800D03*
D17*
G36*
X86339203Y-47733522D02*
G01*
X86353764Y-47735682D01*
X86368043Y-47739259D01*
X86381903Y-47744218D01*
X86395210Y-47750512D01*
X86407836Y-47758080D01*
X86419659Y-47766848D01*
X86430566Y-47776734D01*
X86440452Y-47787641D01*
X86449220Y-47799464D01*
X86456788Y-47812090D01*
X86463082Y-47825397D01*
X86468041Y-47839257D01*
X86471618Y-47853536D01*
X86473778Y-47868097D01*
X86474500Y-47882800D01*
X86474500Y-48182800D01*
X86473778Y-48197503D01*
X86471618Y-48212064D01*
X86468041Y-48226343D01*
X86463082Y-48240203D01*
X86456788Y-48253510D01*
X86449220Y-48266136D01*
X86440452Y-48277959D01*
X86430566Y-48288866D01*
X86419659Y-48298752D01*
X86407836Y-48307520D01*
X86395210Y-48315088D01*
X86381903Y-48321382D01*
X86368043Y-48326341D01*
X86353764Y-48329918D01*
X86339203Y-48332078D01*
X86324500Y-48332800D01*
X84674500Y-48332800D01*
X84659797Y-48332078D01*
X84645236Y-48329918D01*
X84630957Y-48326341D01*
X84617097Y-48321382D01*
X84603790Y-48315088D01*
X84591164Y-48307520D01*
X84579341Y-48298752D01*
X84568434Y-48288866D01*
X84558548Y-48277959D01*
X84549780Y-48266136D01*
X84542212Y-48253510D01*
X84535918Y-48240203D01*
X84530959Y-48226343D01*
X84527382Y-48212064D01*
X84525222Y-48197503D01*
X84524500Y-48182800D01*
X84524500Y-47882800D01*
X84525222Y-47868097D01*
X84527382Y-47853536D01*
X84530959Y-47839257D01*
X84535918Y-47825397D01*
X84542212Y-47812090D01*
X84549780Y-47799464D01*
X84558548Y-47787641D01*
X84568434Y-47776734D01*
X84579341Y-47766848D01*
X84591164Y-47758080D01*
X84603790Y-47750512D01*
X84617097Y-47744218D01*
X84630957Y-47739259D01*
X84645236Y-47735682D01*
X84659797Y-47733522D01*
X84674500Y-47732800D01*
X86324500Y-47732800D01*
X86339203Y-47733522D01*
X86339203Y-47733522D01*
G37*
D28*
X85499500Y-48032800D03*
D30*
X64326900Y-44234700D03*
D31*
X64326900Y-50534700D03*
X66626900Y-50534700D03*
X62026900Y-50534700D03*
D17*
G36*
X82624591Y-45399253D02*
G01*
X82645826Y-45402403D01*
X82666650Y-45407619D01*
X82686862Y-45414851D01*
X82706268Y-45424030D01*
X82724681Y-45435066D01*
X82741924Y-45447854D01*
X82757830Y-45462270D01*
X82772246Y-45478176D01*
X82785034Y-45495419D01*
X82796070Y-45513832D01*
X82805249Y-45533238D01*
X82812481Y-45553450D01*
X82817697Y-45574274D01*
X82820847Y-45595509D01*
X82821900Y-45616950D01*
X82821900Y-46054450D01*
X82820847Y-46075891D01*
X82817697Y-46097126D01*
X82812481Y-46117950D01*
X82805249Y-46138162D01*
X82796070Y-46157568D01*
X82785034Y-46175981D01*
X82772246Y-46193224D01*
X82757830Y-46209130D01*
X82741924Y-46223546D01*
X82724681Y-46236334D01*
X82706268Y-46247370D01*
X82686862Y-46256549D01*
X82666650Y-46263781D01*
X82645826Y-46268997D01*
X82624591Y-46272147D01*
X82603150Y-46273200D01*
X82090650Y-46273200D01*
X82069209Y-46272147D01*
X82047974Y-46268997D01*
X82027150Y-46263781D01*
X82006938Y-46256549D01*
X81987532Y-46247370D01*
X81969119Y-46236334D01*
X81951876Y-46223546D01*
X81935970Y-46209130D01*
X81921554Y-46193224D01*
X81908766Y-46175981D01*
X81897730Y-46157568D01*
X81888551Y-46138162D01*
X81881319Y-46117950D01*
X81876103Y-46097126D01*
X81872953Y-46075891D01*
X81871900Y-46054450D01*
X81871900Y-45616950D01*
X81872953Y-45595509D01*
X81876103Y-45574274D01*
X81881319Y-45553450D01*
X81888551Y-45533238D01*
X81897730Y-45513832D01*
X81908766Y-45495419D01*
X81921554Y-45478176D01*
X81935970Y-45462270D01*
X81951876Y-45447854D01*
X81969119Y-45435066D01*
X81987532Y-45424030D01*
X82006938Y-45414851D01*
X82027150Y-45407619D01*
X82047974Y-45402403D01*
X82069209Y-45399253D01*
X82090650Y-45398200D01*
X82603150Y-45398200D01*
X82624591Y-45399253D01*
X82624591Y-45399253D01*
G37*
D18*
X82346900Y-45835700D03*
D17*
G36*
X82624591Y-43824253D02*
G01*
X82645826Y-43827403D01*
X82666650Y-43832619D01*
X82686862Y-43839851D01*
X82706268Y-43849030D01*
X82724681Y-43860066D01*
X82741924Y-43872854D01*
X82757830Y-43887270D01*
X82772246Y-43903176D01*
X82785034Y-43920419D01*
X82796070Y-43938832D01*
X82805249Y-43958238D01*
X82812481Y-43978450D01*
X82817697Y-43999274D01*
X82820847Y-44020509D01*
X82821900Y-44041950D01*
X82821900Y-44479450D01*
X82820847Y-44500891D01*
X82817697Y-44522126D01*
X82812481Y-44542950D01*
X82805249Y-44563162D01*
X82796070Y-44582568D01*
X82785034Y-44600981D01*
X82772246Y-44618224D01*
X82757830Y-44634130D01*
X82741924Y-44648546D01*
X82724681Y-44661334D01*
X82706268Y-44672370D01*
X82686862Y-44681549D01*
X82666650Y-44688781D01*
X82645826Y-44693997D01*
X82624591Y-44697147D01*
X82603150Y-44698200D01*
X82090650Y-44698200D01*
X82069209Y-44697147D01*
X82047974Y-44693997D01*
X82027150Y-44688781D01*
X82006938Y-44681549D01*
X81987532Y-44672370D01*
X81969119Y-44661334D01*
X81951876Y-44648546D01*
X81935970Y-44634130D01*
X81921554Y-44618224D01*
X81908766Y-44600981D01*
X81897730Y-44582568D01*
X81888551Y-44563162D01*
X81881319Y-44542950D01*
X81876103Y-44522126D01*
X81872953Y-44500891D01*
X81871900Y-44479450D01*
X81871900Y-44041950D01*
X81872953Y-44020509D01*
X81876103Y-43999274D01*
X81881319Y-43978450D01*
X81888551Y-43958238D01*
X81897730Y-43938832D01*
X81908766Y-43920419D01*
X81921554Y-43903176D01*
X81935970Y-43887270D01*
X81951876Y-43872854D01*
X81969119Y-43860066D01*
X81987532Y-43849030D01*
X82006938Y-43839851D01*
X82027150Y-43832619D01*
X82047974Y-43827403D01*
X82069209Y-43824253D01*
X82090650Y-43823200D01*
X82603150Y-43823200D01*
X82624591Y-43824253D01*
X82624591Y-43824253D01*
G37*
D18*
X82346900Y-44260700D03*
D17*
G36*
X67906091Y-53057953D02*
G01*
X67927326Y-53061103D01*
X67948150Y-53066319D01*
X67968362Y-53073551D01*
X67987768Y-53082730D01*
X68006181Y-53093766D01*
X68023424Y-53106554D01*
X68039330Y-53120970D01*
X68053746Y-53136876D01*
X68066534Y-53154119D01*
X68077570Y-53172532D01*
X68086749Y-53191938D01*
X68093981Y-53212150D01*
X68099197Y-53232974D01*
X68102347Y-53254209D01*
X68103400Y-53275650D01*
X68103400Y-53788150D01*
X68102347Y-53809591D01*
X68099197Y-53830826D01*
X68093981Y-53851650D01*
X68086749Y-53871862D01*
X68077570Y-53891268D01*
X68066534Y-53909681D01*
X68053746Y-53926924D01*
X68039330Y-53942830D01*
X68023424Y-53957246D01*
X68006181Y-53970034D01*
X67987768Y-53981070D01*
X67968362Y-53990249D01*
X67948150Y-53997481D01*
X67927326Y-54002697D01*
X67906091Y-54005847D01*
X67884650Y-54006900D01*
X67447150Y-54006900D01*
X67425709Y-54005847D01*
X67404474Y-54002697D01*
X67383650Y-53997481D01*
X67363438Y-53990249D01*
X67344032Y-53981070D01*
X67325619Y-53970034D01*
X67308376Y-53957246D01*
X67292470Y-53942830D01*
X67278054Y-53926924D01*
X67265266Y-53909681D01*
X67254230Y-53891268D01*
X67245051Y-53871862D01*
X67237819Y-53851650D01*
X67232603Y-53830826D01*
X67229453Y-53809591D01*
X67228400Y-53788150D01*
X67228400Y-53275650D01*
X67229453Y-53254209D01*
X67232603Y-53232974D01*
X67237819Y-53212150D01*
X67245051Y-53191938D01*
X67254230Y-53172532D01*
X67265266Y-53154119D01*
X67278054Y-53136876D01*
X67292470Y-53120970D01*
X67308376Y-53106554D01*
X67325619Y-53093766D01*
X67344032Y-53082730D01*
X67363438Y-53073551D01*
X67383650Y-53066319D01*
X67404474Y-53061103D01*
X67425709Y-53057953D01*
X67447150Y-53056900D01*
X67884650Y-53056900D01*
X67906091Y-53057953D01*
X67906091Y-53057953D01*
G37*
D18*
X67665900Y-53531900D03*
D17*
G36*
X66331091Y-53057953D02*
G01*
X66352326Y-53061103D01*
X66373150Y-53066319D01*
X66393362Y-53073551D01*
X66412768Y-53082730D01*
X66431181Y-53093766D01*
X66448424Y-53106554D01*
X66464330Y-53120970D01*
X66478746Y-53136876D01*
X66491534Y-53154119D01*
X66502570Y-53172532D01*
X66511749Y-53191938D01*
X66518981Y-53212150D01*
X66524197Y-53232974D01*
X66527347Y-53254209D01*
X66528400Y-53275650D01*
X66528400Y-53788150D01*
X66527347Y-53809591D01*
X66524197Y-53830826D01*
X66518981Y-53851650D01*
X66511749Y-53871862D01*
X66502570Y-53891268D01*
X66491534Y-53909681D01*
X66478746Y-53926924D01*
X66464330Y-53942830D01*
X66448424Y-53957246D01*
X66431181Y-53970034D01*
X66412768Y-53981070D01*
X66393362Y-53990249D01*
X66373150Y-53997481D01*
X66352326Y-54002697D01*
X66331091Y-54005847D01*
X66309650Y-54006900D01*
X65872150Y-54006900D01*
X65850709Y-54005847D01*
X65829474Y-54002697D01*
X65808650Y-53997481D01*
X65788438Y-53990249D01*
X65769032Y-53981070D01*
X65750619Y-53970034D01*
X65733376Y-53957246D01*
X65717470Y-53942830D01*
X65703054Y-53926924D01*
X65690266Y-53909681D01*
X65679230Y-53891268D01*
X65670051Y-53871862D01*
X65662819Y-53851650D01*
X65657603Y-53830826D01*
X65654453Y-53809591D01*
X65653400Y-53788150D01*
X65653400Y-53275650D01*
X65654453Y-53254209D01*
X65657603Y-53232974D01*
X65662819Y-53212150D01*
X65670051Y-53191938D01*
X65679230Y-53172532D01*
X65690266Y-53154119D01*
X65703054Y-53136876D01*
X65717470Y-53120970D01*
X65733376Y-53106554D01*
X65750619Y-53093766D01*
X65769032Y-53082730D01*
X65788438Y-53073551D01*
X65808650Y-53066319D01*
X65829474Y-53061103D01*
X65850709Y-53057953D01*
X65872150Y-53056900D01*
X66309650Y-53056900D01*
X66331091Y-53057953D01*
X66331091Y-53057953D01*
G37*
D18*
X66090900Y-53531900D03*
D17*
G36*
X60527191Y-57210853D02*
G01*
X60548426Y-57214003D01*
X60569250Y-57219219D01*
X60589462Y-57226451D01*
X60608868Y-57235630D01*
X60627281Y-57246666D01*
X60644524Y-57259454D01*
X60660430Y-57273870D01*
X60674846Y-57289776D01*
X60687634Y-57307019D01*
X60698670Y-57325432D01*
X60707849Y-57344838D01*
X60715081Y-57365050D01*
X60720297Y-57385874D01*
X60723447Y-57407109D01*
X60724500Y-57428550D01*
X60724500Y-57941050D01*
X60723447Y-57962491D01*
X60720297Y-57983726D01*
X60715081Y-58004550D01*
X60707849Y-58024762D01*
X60698670Y-58044168D01*
X60687634Y-58062581D01*
X60674846Y-58079824D01*
X60660430Y-58095730D01*
X60644524Y-58110146D01*
X60627281Y-58122934D01*
X60608868Y-58133970D01*
X60589462Y-58143149D01*
X60569250Y-58150381D01*
X60548426Y-58155597D01*
X60527191Y-58158747D01*
X60505750Y-58159800D01*
X60068250Y-58159800D01*
X60046809Y-58158747D01*
X60025574Y-58155597D01*
X60004750Y-58150381D01*
X59984538Y-58143149D01*
X59965132Y-58133970D01*
X59946719Y-58122934D01*
X59929476Y-58110146D01*
X59913570Y-58095730D01*
X59899154Y-58079824D01*
X59886366Y-58062581D01*
X59875330Y-58044168D01*
X59866151Y-58024762D01*
X59858919Y-58004550D01*
X59853703Y-57983726D01*
X59850553Y-57962491D01*
X59849500Y-57941050D01*
X59849500Y-57428550D01*
X59850553Y-57407109D01*
X59853703Y-57385874D01*
X59858919Y-57365050D01*
X59866151Y-57344838D01*
X59875330Y-57325432D01*
X59886366Y-57307019D01*
X59899154Y-57289776D01*
X59913570Y-57273870D01*
X59929476Y-57259454D01*
X59946719Y-57246666D01*
X59965132Y-57235630D01*
X59984538Y-57226451D01*
X60004750Y-57219219D01*
X60025574Y-57214003D01*
X60046809Y-57210853D01*
X60068250Y-57209800D01*
X60505750Y-57209800D01*
X60527191Y-57210853D01*
X60527191Y-57210853D01*
G37*
D18*
X60287000Y-57684800D03*
D17*
G36*
X58952191Y-57210853D02*
G01*
X58973426Y-57214003D01*
X58994250Y-57219219D01*
X59014462Y-57226451D01*
X59033868Y-57235630D01*
X59052281Y-57246666D01*
X59069524Y-57259454D01*
X59085430Y-57273870D01*
X59099846Y-57289776D01*
X59112634Y-57307019D01*
X59123670Y-57325432D01*
X59132849Y-57344838D01*
X59140081Y-57365050D01*
X59145297Y-57385874D01*
X59148447Y-57407109D01*
X59149500Y-57428550D01*
X59149500Y-57941050D01*
X59148447Y-57962491D01*
X59145297Y-57983726D01*
X59140081Y-58004550D01*
X59132849Y-58024762D01*
X59123670Y-58044168D01*
X59112634Y-58062581D01*
X59099846Y-58079824D01*
X59085430Y-58095730D01*
X59069524Y-58110146D01*
X59052281Y-58122934D01*
X59033868Y-58133970D01*
X59014462Y-58143149D01*
X58994250Y-58150381D01*
X58973426Y-58155597D01*
X58952191Y-58158747D01*
X58930750Y-58159800D01*
X58493250Y-58159800D01*
X58471809Y-58158747D01*
X58450574Y-58155597D01*
X58429750Y-58150381D01*
X58409538Y-58143149D01*
X58390132Y-58133970D01*
X58371719Y-58122934D01*
X58354476Y-58110146D01*
X58338570Y-58095730D01*
X58324154Y-58079824D01*
X58311366Y-58062581D01*
X58300330Y-58044168D01*
X58291151Y-58024762D01*
X58283919Y-58004550D01*
X58278703Y-57983726D01*
X58275553Y-57962491D01*
X58274500Y-57941050D01*
X58274500Y-57428550D01*
X58275553Y-57407109D01*
X58278703Y-57385874D01*
X58283919Y-57365050D01*
X58291151Y-57344838D01*
X58300330Y-57325432D01*
X58311366Y-57307019D01*
X58324154Y-57289776D01*
X58338570Y-57273870D01*
X58354476Y-57259454D01*
X58371719Y-57246666D01*
X58390132Y-57235630D01*
X58409538Y-57226451D01*
X58429750Y-57219219D01*
X58450574Y-57214003D01*
X58471809Y-57210853D01*
X58493250Y-57209800D01*
X58930750Y-57209800D01*
X58952191Y-57210853D01*
X58952191Y-57210853D01*
G37*
D18*
X58712000Y-57684800D03*
D17*
G36*
X69175991Y-57388653D02*
G01*
X69197226Y-57391803D01*
X69218050Y-57397019D01*
X69238262Y-57404251D01*
X69257668Y-57413430D01*
X69276081Y-57424466D01*
X69293324Y-57437254D01*
X69309230Y-57451670D01*
X69323646Y-57467576D01*
X69336434Y-57484819D01*
X69347470Y-57503232D01*
X69356649Y-57522638D01*
X69363881Y-57542850D01*
X69369097Y-57563674D01*
X69372247Y-57584909D01*
X69373300Y-57606350D01*
X69373300Y-58118850D01*
X69372247Y-58140291D01*
X69369097Y-58161526D01*
X69363881Y-58182350D01*
X69356649Y-58202562D01*
X69347470Y-58221968D01*
X69336434Y-58240381D01*
X69323646Y-58257624D01*
X69309230Y-58273530D01*
X69293324Y-58287946D01*
X69276081Y-58300734D01*
X69257668Y-58311770D01*
X69238262Y-58320949D01*
X69218050Y-58328181D01*
X69197226Y-58333397D01*
X69175991Y-58336547D01*
X69154550Y-58337600D01*
X68717050Y-58337600D01*
X68695609Y-58336547D01*
X68674374Y-58333397D01*
X68653550Y-58328181D01*
X68633338Y-58320949D01*
X68613932Y-58311770D01*
X68595519Y-58300734D01*
X68578276Y-58287946D01*
X68562370Y-58273530D01*
X68547954Y-58257624D01*
X68535166Y-58240381D01*
X68524130Y-58221968D01*
X68514951Y-58202562D01*
X68507719Y-58182350D01*
X68502503Y-58161526D01*
X68499353Y-58140291D01*
X68498300Y-58118850D01*
X68498300Y-57606350D01*
X68499353Y-57584909D01*
X68502503Y-57563674D01*
X68507719Y-57542850D01*
X68514951Y-57522638D01*
X68524130Y-57503232D01*
X68535166Y-57484819D01*
X68547954Y-57467576D01*
X68562370Y-57451670D01*
X68578276Y-57437254D01*
X68595519Y-57424466D01*
X68613932Y-57413430D01*
X68633338Y-57404251D01*
X68653550Y-57397019D01*
X68674374Y-57391803D01*
X68695609Y-57388653D01*
X68717050Y-57387600D01*
X69154550Y-57387600D01*
X69175991Y-57388653D01*
X69175991Y-57388653D01*
G37*
D18*
X68935800Y-57862600D03*
D17*
G36*
X67600991Y-57388653D02*
G01*
X67622226Y-57391803D01*
X67643050Y-57397019D01*
X67663262Y-57404251D01*
X67682668Y-57413430D01*
X67701081Y-57424466D01*
X67718324Y-57437254D01*
X67734230Y-57451670D01*
X67748646Y-57467576D01*
X67761434Y-57484819D01*
X67772470Y-57503232D01*
X67781649Y-57522638D01*
X67788881Y-57542850D01*
X67794097Y-57563674D01*
X67797247Y-57584909D01*
X67798300Y-57606350D01*
X67798300Y-58118850D01*
X67797247Y-58140291D01*
X67794097Y-58161526D01*
X67788881Y-58182350D01*
X67781649Y-58202562D01*
X67772470Y-58221968D01*
X67761434Y-58240381D01*
X67748646Y-58257624D01*
X67734230Y-58273530D01*
X67718324Y-58287946D01*
X67701081Y-58300734D01*
X67682668Y-58311770D01*
X67663262Y-58320949D01*
X67643050Y-58328181D01*
X67622226Y-58333397D01*
X67600991Y-58336547D01*
X67579550Y-58337600D01*
X67142050Y-58337600D01*
X67120609Y-58336547D01*
X67099374Y-58333397D01*
X67078550Y-58328181D01*
X67058338Y-58320949D01*
X67038932Y-58311770D01*
X67020519Y-58300734D01*
X67003276Y-58287946D01*
X66987370Y-58273530D01*
X66972954Y-58257624D01*
X66960166Y-58240381D01*
X66949130Y-58221968D01*
X66939951Y-58202562D01*
X66932719Y-58182350D01*
X66927503Y-58161526D01*
X66924353Y-58140291D01*
X66923300Y-58118850D01*
X66923300Y-57606350D01*
X66924353Y-57584909D01*
X66927503Y-57563674D01*
X66932719Y-57542850D01*
X66939951Y-57522638D01*
X66949130Y-57503232D01*
X66960166Y-57484819D01*
X66972954Y-57467576D01*
X66987370Y-57451670D01*
X67003276Y-57437254D01*
X67020519Y-57424466D01*
X67038932Y-57413430D01*
X67058338Y-57404251D01*
X67078550Y-57397019D01*
X67099374Y-57391803D01*
X67120609Y-57388653D01*
X67142050Y-57387600D01*
X67579550Y-57387600D01*
X67600991Y-57388653D01*
X67600991Y-57388653D01*
G37*
D18*
X67360800Y-57862600D03*
D20*
X117094100Y-61431300D03*
X117094100Y-63971300D03*
X114554100Y-61431300D03*
X114554100Y-63971300D03*
X112014100Y-61431300D03*
D19*
X112014100Y-63971300D03*
X112268100Y-72429500D03*
D20*
X112268100Y-69889500D03*
X114808100Y-72429500D03*
X114808100Y-69889500D03*
X117348100Y-72429500D03*
X117348100Y-69889500D03*
D32*
X106750200Y-62830800D03*
X106750200Y-64730800D03*
X108750200Y-63780800D03*
X109454800Y-72414300D03*
X107454800Y-73364300D03*
X107454800Y-71464300D03*
D33*
X104917300Y-49410500D03*
X106817300Y-49410500D03*
X105867300Y-47410500D03*
D17*
G36*
X104951191Y-62417253D02*
G01*
X104972426Y-62420403D01*
X104993250Y-62425619D01*
X105013462Y-62432851D01*
X105032868Y-62442030D01*
X105051281Y-62453066D01*
X105068524Y-62465854D01*
X105084430Y-62480270D01*
X105098846Y-62496176D01*
X105111634Y-62513419D01*
X105122670Y-62531832D01*
X105131849Y-62551238D01*
X105139081Y-62571450D01*
X105144297Y-62592274D01*
X105147447Y-62613509D01*
X105148500Y-62634950D01*
X105148500Y-63072450D01*
X105147447Y-63093891D01*
X105144297Y-63115126D01*
X105139081Y-63135950D01*
X105131849Y-63156162D01*
X105122670Y-63175568D01*
X105111634Y-63193981D01*
X105098846Y-63211224D01*
X105084430Y-63227130D01*
X105068524Y-63241546D01*
X105051281Y-63254334D01*
X105032868Y-63265370D01*
X105013462Y-63274549D01*
X104993250Y-63281781D01*
X104972426Y-63286997D01*
X104951191Y-63290147D01*
X104929750Y-63291200D01*
X104417250Y-63291200D01*
X104395809Y-63290147D01*
X104374574Y-63286997D01*
X104353750Y-63281781D01*
X104333538Y-63274549D01*
X104314132Y-63265370D01*
X104295719Y-63254334D01*
X104278476Y-63241546D01*
X104262570Y-63227130D01*
X104248154Y-63211224D01*
X104235366Y-63193981D01*
X104224330Y-63175568D01*
X104215151Y-63156162D01*
X104207919Y-63135950D01*
X104202703Y-63115126D01*
X104199553Y-63093891D01*
X104198500Y-63072450D01*
X104198500Y-62634950D01*
X104199553Y-62613509D01*
X104202703Y-62592274D01*
X104207919Y-62571450D01*
X104215151Y-62551238D01*
X104224330Y-62531832D01*
X104235366Y-62513419D01*
X104248154Y-62496176D01*
X104262570Y-62480270D01*
X104278476Y-62465854D01*
X104295719Y-62453066D01*
X104314132Y-62442030D01*
X104333538Y-62432851D01*
X104353750Y-62425619D01*
X104374574Y-62420403D01*
X104395809Y-62417253D01*
X104417250Y-62416200D01*
X104929750Y-62416200D01*
X104951191Y-62417253D01*
X104951191Y-62417253D01*
G37*
D18*
X104673500Y-62853700D03*
D17*
G36*
X104951191Y-63992253D02*
G01*
X104972426Y-63995403D01*
X104993250Y-64000619D01*
X105013462Y-64007851D01*
X105032868Y-64017030D01*
X105051281Y-64028066D01*
X105068524Y-64040854D01*
X105084430Y-64055270D01*
X105098846Y-64071176D01*
X105111634Y-64088419D01*
X105122670Y-64106832D01*
X105131849Y-64126238D01*
X105139081Y-64146450D01*
X105144297Y-64167274D01*
X105147447Y-64188509D01*
X105148500Y-64209950D01*
X105148500Y-64647450D01*
X105147447Y-64668891D01*
X105144297Y-64690126D01*
X105139081Y-64710950D01*
X105131849Y-64731162D01*
X105122670Y-64750568D01*
X105111634Y-64768981D01*
X105098846Y-64786224D01*
X105084430Y-64802130D01*
X105068524Y-64816546D01*
X105051281Y-64829334D01*
X105032868Y-64840370D01*
X105013462Y-64849549D01*
X104993250Y-64856781D01*
X104972426Y-64861997D01*
X104951191Y-64865147D01*
X104929750Y-64866200D01*
X104417250Y-64866200D01*
X104395809Y-64865147D01*
X104374574Y-64861997D01*
X104353750Y-64856781D01*
X104333538Y-64849549D01*
X104314132Y-64840370D01*
X104295719Y-64829334D01*
X104278476Y-64816546D01*
X104262570Y-64802130D01*
X104248154Y-64786224D01*
X104235366Y-64768981D01*
X104224330Y-64750568D01*
X104215151Y-64731162D01*
X104207919Y-64710950D01*
X104202703Y-64690126D01*
X104199553Y-64668891D01*
X104198500Y-64647450D01*
X104198500Y-64209950D01*
X104199553Y-64188509D01*
X104202703Y-64167274D01*
X104207919Y-64146450D01*
X104215151Y-64126238D01*
X104224330Y-64106832D01*
X104235366Y-64088419D01*
X104248154Y-64071176D01*
X104262570Y-64055270D01*
X104278476Y-64040854D01*
X104295719Y-64028066D01*
X104314132Y-64017030D01*
X104333538Y-64007851D01*
X104353750Y-64000619D01*
X104374574Y-63995403D01*
X104395809Y-63992253D01*
X104417250Y-63991200D01*
X104929750Y-63991200D01*
X104951191Y-63992253D01*
X104951191Y-63992253D01*
G37*
D18*
X104673500Y-64428700D03*
D17*
G36*
X102792191Y-72336153D02*
G01*
X102813426Y-72339303D01*
X102834250Y-72344519D01*
X102854462Y-72351751D01*
X102873868Y-72360930D01*
X102892281Y-72371966D01*
X102909524Y-72384754D01*
X102925430Y-72399170D01*
X102939846Y-72415076D01*
X102952634Y-72432319D01*
X102963670Y-72450732D01*
X102972849Y-72470138D01*
X102980081Y-72490350D01*
X102985297Y-72511174D01*
X102988447Y-72532409D01*
X102989500Y-72553850D01*
X102989500Y-72991350D01*
X102988447Y-73012791D01*
X102985297Y-73034026D01*
X102980081Y-73054850D01*
X102972849Y-73075062D01*
X102963670Y-73094468D01*
X102952634Y-73112881D01*
X102939846Y-73130124D01*
X102925430Y-73146030D01*
X102909524Y-73160446D01*
X102892281Y-73173234D01*
X102873868Y-73184270D01*
X102854462Y-73193449D01*
X102834250Y-73200681D01*
X102813426Y-73205897D01*
X102792191Y-73209047D01*
X102770750Y-73210100D01*
X102258250Y-73210100D01*
X102236809Y-73209047D01*
X102215574Y-73205897D01*
X102194750Y-73200681D01*
X102174538Y-73193449D01*
X102155132Y-73184270D01*
X102136719Y-73173234D01*
X102119476Y-73160446D01*
X102103570Y-73146030D01*
X102089154Y-73130124D01*
X102076366Y-73112881D01*
X102065330Y-73094468D01*
X102056151Y-73075062D01*
X102048919Y-73054850D01*
X102043703Y-73034026D01*
X102040553Y-73012791D01*
X102039500Y-72991350D01*
X102039500Y-72553850D01*
X102040553Y-72532409D01*
X102043703Y-72511174D01*
X102048919Y-72490350D01*
X102056151Y-72470138D01*
X102065330Y-72450732D01*
X102076366Y-72432319D01*
X102089154Y-72415076D01*
X102103570Y-72399170D01*
X102119476Y-72384754D01*
X102136719Y-72371966D01*
X102155132Y-72360930D01*
X102174538Y-72351751D01*
X102194750Y-72344519D01*
X102215574Y-72339303D01*
X102236809Y-72336153D01*
X102258250Y-72335100D01*
X102770750Y-72335100D01*
X102792191Y-72336153D01*
X102792191Y-72336153D01*
G37*
D18*
X102514500Y-72772600D03*
D17*
G36*
X102792191Y-70761153D02*
G01*
X102813426Y-70764303D01*
X102834250Y-70769519D01*
X102854462Y-70776751D01*
X102873868Y-70785930D01*
X102892281Y-70796966D01*
X102909524Y-70809754D01*
X102925430Y-70824170D01*
X102939846Y-70840076D01*
X102952634Y-70857319D01*
X102963670Y-70875732D01*
X102972849Y-70895138D01*
X102980081Y-70915350D01*
X102985297Y-70936174D01*
X102988447Y-70957409D01*
X102989500Y-70978850D01*
X102989500Y-71416350D01*
X102988447Y-71437791D01*
X102985297Y-71459026D01*
X102980081Y-71479850D01*
X102972849Y-71500062D01*
X102963670Y-71519468D01*
X102952634Y-71537881D01*
X102939846Y-71555124D01*
X102925430Y-71571030D01*
X102909524Y-71585446D01*
X102892281Y-71598234D01*
X102873868Y-71609270D01*
X102854462Y-71618449D01*
X102834250Y-71625681D01*
X102813426Y-71630897D01*
X102792191Y-71634047D01*
X102770750Y-71635100D01*
X102258250Y-71635100D01*
X102236809Y-71634047D01*
X102215574Y-71630897D01*
X102194750Y-71625681D01*
X102174538Y-71618449D01*
X102155132Y-71609270D01*
X102136719Y-71598234D01*
X102119476Y-71585446D01*
X102103570Y-71571030D01*
X102089154Y-71555124D01*
X102076366Y-71537881D01*
X102065330Y-71519468D01*
X102056151Y-71500062D01*
X102048919Y-71479850D01*
X102043703Y-71459026D01*
X102040553Y-71437791D01*
X102039500Y-71416350D01*
X102039500Y-70978850D01*
X102040553Y-70957409D01*
X102043703Y-70936174D01*
X102048919Y-70915350D01*
X102056151Y-70895138D01*
X102065330Y-70875732D01*
X102076366Y-70857319D01*
X102089154Y-70840076D01*
X102103570Y-70824170D01*
X102119476Y-70809754D01*
X102136719Y-70796966D01*
X102155132Y-70785930D01*
X102174538Y-70776751D01*
X102194750Y-70769519D01*
X102215574Y-70764303D01*
X102236809Y-70761153D01*
X102258250Y-70760100D01*
X102770750Y-70760100D01*
X102792191Y-70761153D01*
X102792191Y-70761153D01*
G37*
D18*
X102514500Y-71197600D03*
D17*
G36*
X62762391Y-53121453D02*
G01*
X62783626Y-53124603D01*
X62804450Y-53129819D01*
X62824662Y-53137051D01*
X62844068Y-53146230D01*
X62862481Y-53157266D01*
X62879724Y-53170054D01*
X62895630Y-53184470D01*
X62910046Y-53200376D01*
X62922834Y-53217619D01*
X62933870Y-53236032D01*
X62943049Y-53255438D01*
X62950281Y-53275650D01*
X62955497Y-53296474D01*
X62958647Y-53317709D01*
X62959700Y-53339150D01*
X62959700Y-53851650D01*
X62958647Y-53873091D01*
X62955497Y-53894326D01*
X62950281Y-53915150D01*
X62943049Y-53935362D01*
X62933870Y-53954768D01*
X62922834Y-53973181D01*
X62910046Y-53990424D01*
X62895630Y-54006330D01*
X62879724Y-54020746D01*
X62862481Y-54033534D01*
X62844068Y-54044570D01*
X62824662Y-54053749D01*
X62804450Y-54060981D01*
X62783626Y-54066197D01*
X62762391Y-54069347D01*
X62740950Y-54070400D01*
X62303450Y-54070400D01*
X62282009Y-54069347D01*
X62260774Y-54066197D01*
X62239950Y-54060981D01*
X62219738Y-54053749D01*
X62200332Y-54044570D01*
X62181919Y-54033534D01*
X62164676Y-54020746D01*
X62148770Y-54006330D01*
X62134354Y-53990424D01*
X62121566Y-53973181D01*
X62110530Y-53954768D01*
X62101351Y-53935362D01*
X62094119Y-53915150D01*
X62088903Y-53894326D01*
X62085753Y-53873091D01*
X62084700Y-53851650D01*
X62084700Y-53339150D01*
X62085753Y-53317709D01*
X62088903Y-53296474D01*
X62094119Y-53275650D01*
X62101351Y-53255438D01*
X62110530Y-53236032D01*
X62121566Y-53217619D01*
X62134354Y-53200376D01*
X62148770Y-53184470D01*
X62164676Y-53170054D01*
X62181919Y-53157266D01*
X62200332Y-53146230D01*
X62219738Y-53137051D01*
X62239950Y-53129819D01*
X62260774Y-53124603D01*
X62282009Y-53121453D01*
X62303450Y-53120400D01*
X62740950Y-53120400D01*
X62762391Y-53121453D01*
X62762391Y-53121453D01*
G37*
D18*
X62522200Y-53595400D03*
D17*
G36*
X64337391Y-53121453D02*
G01*
X64358626Y-53124603D01*
X64379450Y-53129819D01*
X64399662Y-53137051D01*
X64419068Y-53146230D01*
X64437481Y-53157266D01*
X64454724Y-53170054D01*
X64470630Y-53184470D01*
X64485046Y-53200376D01*
X64497834Y-53217619D01*
X64508870Y-53236032D01*
X64518049Y-53255438D01*
X64525281Y-53275650D01*
X64530497Y-53296474D01*
X64533647Y-53317709D01*
X64534700Y-53339150D01*
X64534700Y-53851650D01*
X64533647Y-53873091D01*
X64530497Y-53894326D01*
X64525281Y-53915150D01*
X64518049Y-53935362D01*
X64508870Y-53954768D01*
X64497834Y-53973181D01*
X64485046Y-53990424D01*
X64470630Y-54006330D01*
X64454724Y-54020746D01*
X64437481Y-54033534D01*
X64419068Y-54044570D01*
X64399662Y-54053749D01*
X64379450Y-54060981D01*
X64358626Y-54066197D01*
X64337391Y-54069347D01*
X64315950Y-54070400D01*
X63878450Y-54070400D01*
X63857009Y-54069347D01*
X63835774Y-54066197D01*
X63814950Y-54060981D01*
X63794738Y-54053749D01*
X63775332Y-54044570D01*
X63756919Y-54033534D01*
X63739676Y-54020746D01*
X63723770Y-54006330D01*
X63709354Y-53990424D01*
X63696566Y-53973181D01*
X63685530Y-53954768D01*
X63676351Y-53935362D01*
X63669119Y-53915150D01*
X63663903Y-53894326D01*
X63660753Y-53873091D01*
X63659700Y-53851650D01*
X63659700Y-53339150D01*
X63660753Y-53317709D01*
X63663903Y-53296474D01*
X63669119Y-53275650D01*
X63676351Y-53255438D01*
X63685530Y-53236032D01*
X63696566Y-53217619D01*
X63709354Y-53200376D01*
X63723770Y-53184470D01*
X63739676Y-53170054D01*
X63756919Y-53157266D01*
X63775332Y-53146230D01*
X63794738Y-53137051D01*
X63814950Y-53129819D01*
X63835774Y-53124603D01*
X63857009Y-53121453D01*
X63878450Y-53120400D01*
X64315950Y-53120400D01*
X64337391Y-53121453D01*
X64337391Y-53121453D01*
G37*
D18*
X64097200Y-53595400D03*
D17*
G36*
X60539991Y-53121453D02*
G01*
X60561226Y-53124603D01*
X60582050Y-53129819D01*
X60602262Y-53137051D01*
X60621668Y-53146230D01*
X60640081Y-53157266D01*
X60657324Y-53170054D01*
X60673230Y-53184470D01*
X60687646Y-53200376D01*
X60700434Y-53217619D01*
X60711470Y-53236032D01*
X60720649Y-53255438D01*
X60727881Y-53275650D01*
X60733097Y-53296474D01*
X60736247Y-53317709D01*
X60737300Y-53339150D01*
X60737300Y-53851650D01*
X60736247Y-53873091D01*
X60733097Y-53894326D01*
X60727881Y-53915150D01*
X60720649Y-53935362D01*
X60711470Y-53954768D01*
X60700434Y-53973181D01*
X60687646Y-53990424D01*
X60673230Y-54006330D01*
X60657324Y-54020746D01*
X60640081Y-54033534D01*
X60621668Y-54044570D01*
X60602262Y-54053749D01*
X60582050Y-54060981D01*
X60561226Y-54066197D01*
X60539991Y-54069347D01*
X60518550Y-54070400D01*
X60081050Y-54070400D01*
X60059609Y-54069347D01*
X60038374Y-54066197D01*
X60017550Y-54060981D01*
X59997338Y-54053749D01*
X59977932Y-54044570D01*
X59959519Y-54033534D01*
X59942276Y-54020746D01*
X59926370Y-54006330D01*
X59911954Y-53990424D01*
X59899166Y-53973181D01*
X59888130Y-53954768D01*
X59878951Y-53935362D01*
X59871719Y-53915150D01*
X59866503Y-53894326D01*
X59863353Y-53873091D01*
X59862300Y-53851650D01*
X59862300Y-53339150D01*
X59863353Y-53317709D01*
X59866503Y-53296474D01*
X59871719Y-53275650D01*
X59878951Y-53255438D01*
X59888130Y-53236032D01*
X59899166Y-53217619D01*
X59911954Y-53200376D01*
X59926370Y-53184470D01*
X59942276Y-53170054D01*
X59959519Y-53157266D01*
X59977932Y-53146230D01*
X59997338Y-53137051D01*
X60017550Y-53129819D01*
X60038374Y-53124603D01*
X60059609Y-53121453D01*
X60081050Y-53120400D01*
X60518550Y-53120400D01*
X60539991Y-53121453D01*
X60539991Y-53121453D01*
G37*
D18*
X60299800Y-53595400D03*
D17*
G36*
X58964991Y-53121453D02*
G01*
X58986226Y-53124603D01*
X59007050Y-53129819D01*
X59027262Y-53137051D01*
X59046668Y-53146230D01*
X59065081Y-53157266D01*
X59082324Y-53170054D01*
X59098230Y-53184470D01*
X59112646Y-53200376D01*
X59125434Y-53217619D01*
X59136470Y-53236032D01*
X59145649Y-53255438D01*
X59152881Y-53275650D01*
X59158097Y-53296474D01*
X59161247Y-53317709D01*
X59162300Y-53339150D01*
X59162300Y-53851650D01*
X59161247Y-53873091D01*
X59158097Y-53894326D01*
X59152881Y-53915150D01*
X59145649Y-53935362D01*
X59136470Y-53954768D01*
X59125434Y-53973181D01*
X59112646Y-53990424D01*
X59098230Y-54006330D01*
X59082324Y-54020746D01*
X59065081Y-54033534D01*
X59046668Y-54044570D01*
X59027262Y-54053749D01*
X59007050Y-54060981D01*
X58986226Y-54066197D01*
X58964991Y-54069347D01*
X58943550Y-54070400D01*
X58506050Y-54070400D01*
X58484609Y-54069347D01*
X58463374Y-54066197D01*
X58442550Y-54060981D01*
X58422338Y-54053749D01*
X58402932Y-54044570D01*
X58384519Y-54033534D01*
X58367276Y-54020746D01*
X58351370Y-54006330D01*
X58336954Y-53990424D01*
X58324166Y-53973181D01*
X58313130Y-53954768D01*
X58303951Y-53935362D01*
X58296719Y-53915150D01*
X58291503Y-53894326D01*
X58288353Y-53873091D01*
X58287300Y-53851650D01*
X58287300Y-53339150D01*
X58288353Y-53317709D01*
X58291503Y-53296474D01*
X58296719Y-53275650D01*
X58303951Y-53255438D01*
X58313130Y-53236032D01*
X58324166Y-53217619D01*
X58336954Y-53200376D01*
X58351370Y-53184470D01*
X58367276Y-53170054D01*
X58384519Y-53157266D01*
X58402932Y-53146230D01*
X58422338Y-53137051D01*
X58442550Y-53129819D01*
X58463374Y-53124603D01*
X58484609Y-53121453D01*
X58506050Y-53120400D01*
X58943550Y-53120400D01*
X58964991Y-53121453D01*
X58964991Y-53121453D01*
G37*
D18*
X58724800Y-53595400D03*
D17*
G36*
X105218491Y-50619553D02*
G01*
X105239726Y-50622703D01*
X105260550Y-50627919D01*
X105280762Y-50635151D01*
X105300168Y-50644330D01*
X105318581Y-50655366D01*
X105335824Y-50668154D01*
X105351730Y-50682570D01*
X105366146Y-50698476D01*
X105378934Y-50715719D01*
X105389970Y-50734132D01*
X105399149Y-50753538D01*
X105406381Y-50773750D01*
X105411597Y-50794574D01*
X105414747Y-50815809D01*
X105415800Y-50837250D01*
X105415800Y-51349750D01*
X105414747Y-51371191D01*
X105411597Y-51392426D01*
X105406381Y-51413250D01*
X105399149Y-51433462D01*
X105389970Y-51452868D01*
X105378934Y-51471281D01*
X105366146Y-51488524D01*
X105351730Y-51504430D01*
X105335824Y-51518846D01*
X105318581Y-51531634D01*
X105300168Y-51542670D01*
X105280762Y-51551849D01*
X105260550Y-51559081D01*
X105239726Y-51564297D01*
X105218491Y-51567447D01*
X105197050Y-51568500D01*
X104759550Y-51568500D01*
X104738109Y-51567447D01*
X104716874Y-51564297D01*
X104696050Y-51559081D01*
X104675838Y-51551849D01*
X104656432Y-51542670D01*
X104638019Y-51531634D01*
X104620776Y-51518846D01*
X104604870Y-51504430D01*
X104590454Y-51488524D01*
X104577666Y-51471281D01*
X104566630Y-51452868D01*
X104557451Y-51433462D01*
X104550219Y-51413250D01*
X104545003Y-51392426D01*
X104541853Y-51371191D01*
X104540800Y-51349750D01*
X104540800Y-50837250D01*
X104541853Y-50815809D01*
X104545003Y-50794574D01*
X104550219Y-50773750D01*
X104557451Y-50753538D01*
X104566630Y-50734132D01*
X104577666Y-50715719D01*
X104590454Y-50698476D01*
X104604870Y-50682570D01*
X104620776Y-50668154D01*
X104638019Y-50655366D01*
X104656432Y-50644330D01*
X104675838Y-50635151D01*
X104696050Y-50627919D01*
X104716874Y-50622703D01*
X104738109Y-50619553D01*
X104759550Y-50618500D01*
X105197050Y-50618500D01*
X105218491Y-50619553D01*
X105218491Y-50619553D01*
G37*
D18*
X104978300Y-51093500D03*
D17*
G36*
X106793491Y-50619553D02*
G01*
X106814726Y-50622703D01*
X106835550Y-50627919D01*
X106855762Y-50635151D01*
X106875168Y-50644330D01*
X106893581Y-50655366D01*
X106910824Y-50668154D01*
X106926730Y-50682570D01*
X106941146Y-50698476D01*
X106953934Y-50715719D01*
X106964970Y-50734132D01*
X106974149Y-50753538D01*
X106981381Y-50773750D01*
X106986597Y-50794574D01*
X106989747Y-50815809D01*
X106990800Y-50837250D01*
X106990800Y-51349750D01*
X106989747Y-51371191D01*
X106986597Y-51392426D01*
X106981381Y-51413250D01*
X106974149Y-51433462D01*
X106964970Y-51452868D01*
X106953934Y-51471281D01*
X106941146Y-51488524D01*
X106926730Y-51504430D01*
X106910824Y-51518846D01*
X106893581Y-51531634D01*
X106875168Y-51542670D01*
X106855762Y-51551849D01*
X106835550Y-51559081D01*
X106814726Y-51564297D01*
X106793491Y-51567447D01*
X106772050Y-51568500D01*
X106334550Y-51568500D01*
X106313109Y-51567447D01*
X106291874Y-51564297D01*
X106271050Y-51559081D01*
X106250838Y-51551849D01*
X106231432Y-51542670D01*
X106213019Y-51531634D01*
X106195776Y-51518846D01*
X106179870Y-51504430D01*
X106165454Y-51488524D01*
X106152666Y-51471281D01*
X106141630Y-51452868D01*
X106132451Y-51433462D01*
X106125219Y-51413250D01*
X106120003Y-51392426D01*
X106116853Y-51371191D01*
X106115800Y-51349750D01*
X106115800Y-50837250D01*
X106116853Y-50815809D01*
X106120003Y-50794574D01*
X106125219Y-50773750D01*
X106132451Y-50753538D01*
X106141630Y-50734132D01*
X106152666Y-50715719D01*
X106165454Y-50698476D01*
X106179870Y-50682570D01*
X106195776Y-50668154D01*
X106213019Y-50655366D01*
X106231432Y-50644330D01*
X106250838Y-50635151D01*
X106271050Y-50627919D01*
X106291874Y-50622703D01*
X106313109Y-50619553D01*
X106334550Y-50618500D01*
X106772050Y-50618500D01*
X106793491Y-50619553D01*
X106793491Y-50619553D01*
G37*
D18*
X106553300Y-51093500D03*
D17*
G36*
X60514691Y-55242353D02*
G01*
X60535926Y-55245503D01*
X60556750Y-55250719D01*
X60576962Y-55257951D01*
X60596368Y-55267130D01*
X60614781Y-55278166D01*
X60632024Y-55290954D01*
X60647930Y-55305370D01*
X60662346Y-55321276D01*
X60675134Y-55338519D01*
X60686170Y-55356932D01*
X60695349Y-55376338D01*
X60702581Y-55396550D01*
X60707797Y-55417374D01*
X60710947Y-55438609D01*
X60712000Y-55460050D01*
X60712000Y-55972550D01*
X60710947Y-55993991D01*
X60707797Y-56015226D01*
X60702581Y-56036050D01*
X60695349Y-56056262D01*
X60686170Y-56075668D01*
X60675134Y-56094081D01*
X60662346Y-56111324D01*
X60647930Y-56127230D01*
X60632024Y-56141646D01*
X60614781Y-56154434D01*
X60596368Y-56165470D01*
X60576962Y-56174649D01*
X60556750Y-56181881D01*
X60535926Y-56187097D01*
X60514691Y-56190247D01*
X60493250Y-56191300D01*
X60055750Y-56191300D01*
X60034309Y-56190247D01*
X60013074Y-56187097D01*
X59992250Y-56181881D01*
X59972038Y-56174649D01*
X59952632Y-56165470D01*
X59934219Y-56154434D01*
X59916976Y-56141646D01*
X59901070Y-56127230D01*
X59886654Y-56111324D01*
X59873866Y-56094081D01*
X59862830Y-56075668D01*
X59853651Y-56056262D01*
X59846419Y-56036050D01*
X59841203Y-56015226D01*
X59838053Y-55993991D01*
X59837000Y-55972550D01*
X59837000Y-55460050D01*
X59838053Y-55438609D01*
X59841203Y-55417374D01*
X59846419Y-55396550D01*
X59853651Y-55376338D01*
X59862830Y-55356932D01*
X59873866Y-55338519D01*
X59886654Y-55321276D01*
X59901070Y-55305370D01*
X59916976Y-55290954D01*
X59934219Y-55278166D01*
X59952632Y-55267130D01*
X59972038Y-55257951D01*
X59992250Y-55250719D01*
X60013074Y-55245503D01*
X60034309Y-55242353D01*
X60055750Y-55241300D01*
X60493250Y-55241300D01*
X60514691Y-55242353D01*
X60514691Y-55242353D01*
G37*
D18*
X60274500Y-55716300D03*
D17*
G36*
X58939691Y-55242353D02*
G01*
X58960926Y-55245503D01*
X58981750Y-55250719D01*
X59001962Y-55257951D01*
X59021368Y-55267130D01*
X59039781Y-55278166D01*
X59057024Y-55290954D01*
X59072930Y-55305370D01*
X59087346Y-55321276D01*
X59100134Y-55338519D01*
X59111170Y-55356932D01*
X59120349Y-55376338D01*
X59127581Y-55396550D01*
X59132797Y-55417374D01*
X59135947Y-55438609D01*
X59137000Y-55460050D01*
X59137000Y-55972550D01*
X59135947Y-55993991D01*
X59132797Y-56015226D01*
X59127581Y-56036050D01*
X59120349Y-56056262D01*
X59111170Y-56075668D01*
X59100134Y-56094081D01*
X59087346Y-56111324D01*
X59072930Y-56127230D01*
X59057024Y-56141646D01*
X59039781Y-56154434D01*
X59021368Y-56165470D01*
X59001962Y-56174649D01*
X58981750Y-56181881D01*
X58960926Y-56187097D01*
X58939691Y-56190247D01*
X58918250Y-56191300D01*
X58480750Y-56191300D01*
X58459309Y-56190247D01*
X58438074Y-56187097D01*
X58417250Y-56181881D01*
X58397038Y-56174649D01*
X58377632Y-56165470D01*
X58359219Y-56154434D01*
X58341976Y-56141646D01*
X58326070Y-56127230D01*
X58311654Y-56111324D01*
X58298866Y-56094081D01*
X58287830Y-56075668D01*
X58278651Y-56056262D01*
X58271419Y-56036050D01*
X58266203Y-56015226D01*
X58263053Y-55993991D01*
X58262000Y-55972550D01*
X58262000Y-55460050D01*
X58263053Y-55438609D01*
X58266203Y-55417374D01*
X58271419Y-55396550D01*
X58278651Y-55376338D01*
X58287830Y-55356932D01*
X58298866Y-55338519D01*
X58311654Y-55321276D01*
X58326070Y-55305370D01*
X58341976Y-55290954D01*
X58359219Y-55278166D01*
X58377632Y-55267130D01*
X58397038Y-55257951D01*
X58417250Y-55250719D01*
X58438074Y-55245503D01*
X58459309Y-55242353D01*
X58480750Y-55241300D01*
X58918250Y-55241300D01*
X58939691Y-55242353D01*
X58939691Y-55242353D01*
G37*
D18*
X58699500Y-55716300D03*
D34*
X105833800Y-66739900D03*
X104533800Y-66739900D03*
X105183800Y-68639900D03*
X105183800Y-66739900D03*
X104533800Y-68639900D03*
X105833800Y-68639900D03*
D17*
G36*
X102678591Y-68336053D02*
G01*
X102699826Y-68339203D01*
X102720650Y-68344419D01*
X102740862Y-68351651D01*
X102760268Y-68360830D01*
X102778681Y-68371866D01*
X102795924Y-68384654D01*
X102811830Y-68399070D01*
X102826246Y-68414976D01*
X102839034Y-68432219D01*
X102850070Y-68450632D01*
X102859249Y-68470038D01*
X102866481Y-68490250D01*
X102871697Y-68511074D01*
X102874847Y-68532309D01*
X102875900Y-68553750D01*
X102875900Y-69066250D01*
X102874847Y-69087691D01*
X102871697Y-69108926D01*
X102866481Y-69129750D01*
X102859249Y-69149962D01*
X102850070Y-69169368D01*
X102839034Y-69187781D01*
X102826246Y-69205024D01*
X102811830Y-69220930D01*
X102795924Y-69235346D01*
X102778681Y-69248134D01*
X102760268Y-69259170D01*
X102740862Y-69268349D01*
X102720650Y-69275581D01*
X102699826Y-69280797D01*
X102678591Y-69283947D01*
X102657150Y-69285000D01*
X102219650Y-69285000D01*
X102198209Y-69283947D01*
X102176974Y-69280797D01*
X102156150Y-69275581D01*
X102135938Y-69268349D01*
X102116532Y-69259170D01*
X102098119Y-69248134D01*
X102080876Y-69235346D01*
X102064970Y-69220930D01*
X102050554Y-69205024D01*
X102037766Y-69187781D01*
X102026730Y-69169368D01*
X102017551Y-69149962D01*
X102010319Y-69129750D01*
X102005103Y-69108926D01*
X102001953Y-69087691D01*
X102000900Y-69066250D01*
X102000900Y-68553750D01*
X102001953Y-68532309D01*
X102005103Y-68511074D01*
X102010319Y-68490250D01*
X102017551Y-68470038D01*
X102026730Y-68450632D01*
X102037766Y-68432219D01*
X102050554Y-68414976D01*
X102064970Y-68399070D01*
X102080876Y-68384654D01*
X102098119Y-68371866D01*
X102116532Y-68360830D01*
X102135938Y-68351651D01*
X102156150Y-68344419D01*
X102176974Y-68339203D01*
X102198209Y-68336053D01*
X102219650Y-68335000D01*
X102657150Y-68335000D01*
X102678591Y-68336053D01*
X102678591Y-68336053D01*
G37*
D18*
X102438400Y-68810000D03*
D17*
G36*
X101103591Y-68336053D02*
G01*
X101124826Y-68339203D01*
X101145650Y-68344419D01*
X101165862Y-68351651D01*
X101185268Y-68360830D01*
X101203681Y-68371866D01*
X101220924Y-68384654D01*
X101236830Y-68399070D01*
X101251246Y-68414976D01*
X101264034Y-68432219D01*
X101275070Y-68450632D01*
X101284249Y-68470038D01*
X101291481Y-68490250D01*
X101296697Y-68511074D01*
X101299847Y-68532309D01*
X101300900Y-68553750D01*
X101300900Y-69066250D01*
X101299847Y-69087691D01*
X101296697Y-69108926D01*
X101291481Y-69129750D01*
X101284249Y-69149962D01*
X101275070Y-69169368D01*
X101264034Y-69187781D01*
X101251246Y-69205024D01*
X101236830Y-69220930D01*
X101220924Y-69235346D01*
X101203681Y-69248134D01*
X101185268Y-69259170D01*
X101165862Y-69268349D01*
X101145650Y-69275581D01*
X101124826Y-69280797D01*
X101103591Y-69283947D01*
X101082150Y-69285000D01*
X100644650Y-69285000D01*
X100623209Y-69283947D01*
X100601974Y-69280797D01*
X100581150Y-69275581D01*
X100560938Y-69268349D01*
X100541532Y-69259170D01*
X100523119Y-69248134D01*
X100505876Y-69235346D01*
X100489970Y-69220930D01*
X100475554Y-69205024D01*
X100462766Y-69187781D01*
X100451730Y-69169368D01*
X100442551Y-69149962D01*
X100435319Y-69129750D01*
X100430103Y-69108926D01*
X100426953Y-69087691D01*
X100425900Y-69066250D01*
X100425900Y-68553750D01*
X100426953Y-68532309D01*
X100430103Y-68511074D01*
X100435319Y-68490250D01*
X100442551Y-68470038D01*
X100451730Y-68450632D01*
X100462766Y-68432219D01*
X100475554Y-68414976D01*
X100489970Y-68399070D01*
X100505876Y-68384654D01*
X100523119Y-68371866D01*
X100541532Y-68360830D01*
X100560938Y-68351651D01*
X100581150Y-68344419D01*
X100601974Y-68339203D01*
X100623209Y-68336053D01*
X100644650Y-68335000D01*
X101082150Y-68335000D01*
X101103591Y-68336053D01*
X101103591Y-68336053D01*
G37*
D18*
X100863400Y-68810000D03*
D17*
G36*
X101332191Y-65999253D02*
G01*
X101353426Y-66002403D01*
X101374250Y-66007619D01*
X101394462Y-66014851D01*
X101413868Y-66024030D01*
X101432281Y-66035066D01*
X101449524Y-66047854D01*
X101465430Y-66062270D01*
X101479846Y-66078176D01*
X101492634Y-66095419D01*
X101503670Y-66113832D01*
X101512849Y-66133238D01*
X101520081Y-66153450D01*
X101525297Y-66174274D01*
X101528447Y-66195509D01*
X101529500Y-66216950D01*
X101529500Y-66729450D01*
X101528447Y-66750891D01*
X101525297Y-66772126D01*
X101520081Y-66792950D01*
X101512849Y-66813162D01*
X101503670Y-66832568D01*
X101492634Y-66850981D01*
X101479846Y-66868224D01*
X101465430Y-66884130D01*
X101449524Y-66898546D01*
X101432281Y-66911334D01*
X101413868Y-66922370D01*
X101394462Y-66931549D01*
X101374250Y-66938781D01*
X101353426Y-66943997D01*
X101332191Y-66947147D01*
X101310750Y-66948200D01*
X100873250Y-66948200D01*
X100851809Y-66947147D01*
X100830574Y-66943997D01*
X100809750Y-66938781D01*
X100789538Y-66931549D01*
X100770132Y-66922370D01*
X100751719Y-66911334D01*
X100734476Y-66898546D01*
X100718570Y-66884130D01*
X100704154Y-66868224D01*
X100691366Y-66850981D01*
X100680330Y-66832568D01*
X100671151Y-66813162D01*
X100663919Y-66792950D01*
X100658703Y-66772126D01*
X100655553Y-66750891D01*
X100654500Y-66729450D01*
X100654500Y-66216950D01*
X100655553Y-66195509D01*
X100658703Y-66174274D01*
X100663919Y-66153450D01*
X100671151Y-66133238D01*
X100680330Y-66113832D01*
X100691366Y-66095419D01*
X100704154Y-66078176D01*
X100718570Y-66062270D01*
X100734476Y-66047854D01*
X100751719Y-66035066D01*
X100770132Y-66024030D01*
X100789538Y-66014851D01*
X100809750Y-66007619D01*
X100830574Y-66002403D01*
X100851809Y-65999253D01*
X100873250Y-65998200D01*
X101310750Y-65998200D01*
X101332191Y-65999253D01*
X101332191Y-65999253D01*
G37*
D18*
X101092000Y-66473200D03*
D17*
G36*
X102907191Y-65999253D02*
G01*
X102928426Y-66002403D01*
X102949250Y-66007619D01*
X102969462Y-66014851D01*
X102988868Y-66024030D01*
X103007281Y-66035066D01*
X103024524Y-66047854D01*
X103040430Y-66062270D01*
X103054846Y-66078176D01*
X103067634Y-66095419D01*
X103078670Y-66113832D01*
X103087849Y-66133238D01*
X103095081Y-66153450D01*
X103100297Y-66174274D01*
X103103447Y-66195509D01*
X103104500Y-66216950D01*
X103104500Y-66729450D01*
X103103447Y-66750891D01*
X103100297Y-66772126D01*
X103095081Y-66792950D01*
X103087849Y-66813162D01*
X103078670Y-66832568D01*
X103067634Y-66850981D01*
X103054846Y-66868224D01*
X103040430Y-66884130D01*
X103024524Y-66898546D01*
X103007281Y-66911334D01*
X102988868Y-66922370D01*
X102969462Y-66931549D01*
X102949250Y-66938781D01*
X102928426Y-66943997D01*
X102907191Y-66947147D01*
X102885750Y-66948200D01*
X102448250Y-66948200D01*
X102426809Y-66947147D01*
X102405574Y-66943997D01*
X102384750Y-66938781D01*
X102364538Y-66931549D01*
X102345132Y-66922370D01*
X102326719Y-66911334D01*
X102309476Y-66898546D01*
X102293570Y-66884130D01*
X102279154Y-66868224D01*
X102266366Y-66850981D01*
X102255330Y-66832568D01*
X102246151Y-66813162D01*
X102238919Y-66792950D01*
X102233703Y-66772126D01*
X102230553Y-66750891D01*
X102229500Y-66729450D01*
X102229500Y-66216950D01*
X102230553Y-66195509D01*
X102233703Y-66174274D01*
X102238919Y-66153450D01*
X102246151Y-66133238D01*
X102255330Y-66113832D01*
X102266366Y-66095419D01*
X102279154Y-66078176D01*
X102293570Y-66062270D01*
X102309476Y-66047854D01*
X102326719Y-66035066D01*
X102345132Y-66024030D01*
X102364538Y-66014851D01*
X102384750Y-66007619D01*
X102405574Y-66002403D01*
X102426809Y-65999253D01*
X102448250Y-65998200D01*
X102885750Y-65998200D01*
X102907191Y-65999253D01*
X102907191Y-65999253D01*
G37*
D18*
X102667000Y-66473200D03*
D17*
G36*
X103021391Y-64119653D02*
G01*
X103042626Y-64122803D01*
X103063450Y-64128019D01*
X103083662Y-64135251D01*
X103103068Y-64144430D01*
X103121481Y-64155466D01*
X103138724Y-64168254D01*
X103154630Y-64182670D01*
X103169046Y-64198576D01*
X103181834Y-64215819D01*
X103192870Y-64234232D01*
X103202049Y-64253638D01*
X103209281Y-64273850D01*
X103214497Y-64294674D01*
X103217647Y-64315909D01*
X103218700Y-64337350D01*
X103218700Y-64849850D01*
X103217647Y-64871291D01*
X103214497Y-64892526D01*
X103209281Y-64913350D01*
X103202049Y-64933562D01*
X103192870Y-64952968D01*
X103181834Y-64971381D01*
X103169046Y-64988624D01*
X103154630Y-65004530D01*
X103138724Y-65018946D01*
X103121481Y-65031734D01*
X103103068Y-65042770D01*
X103083662Y-65051949D01*
X103063450Y-65059181D01*
X103042626Y-65064397D01*
X103021391Y-65067547D01*
X102999950Y-65068600D01*
X102562450Y-65068600D01*
X102541009Y-65067547D01*
X102519774Y-65064397D01*
X102498950Y-65059181D01*
X102478738Y-65051949D01*
X102459332Y-65042770D01*
X102440919Y-65031734D01*
X102423676Y-65018946D01*
X102407770Y-65004530D01*
X102393354Y-64988624D01*
X102380566Y-64971381D01*
X102369530Y-64952968D01*
X102360351Y-64933562D01*
X102353119Y-64913350D01*
X102347903Y-64892526D01*
X102344753Y-64871291D01*
X102343700Y-64849850D01*
X102343700Y-64337350D01*
X102344753Y-64315909D01*
X102347903Y-64294674D01*
X102353119Y-64273850D01*
X102360351Y-64253638D01*
X102369530Y-64234232D01*
X102380566Y-64215819D01*
X102393354Y-64198576D01*
X102407770Y-64182670D01*
X102423676Y-64168254D01*
X102440919Y-64155466D01*
X102459332Y-64144430D01*
X102478738Y-64135251D01*
X102498950Y-64128019D01*
X102519774Y-64122803D01*
X102541009Y-64119653D01*
X102562450Y-64118600D01*
X102999950Y-64118600D01*
X103021391Y-64119653D01*
X103021391Y-64119653D01*
G37*
D18*
X102781200Y-64593600D03*
D17*
G36*
X101446391Y-64119653D02*
G01*
X101467626Y-64122803D01*
X101488450Y-64128019D01*
X101508662Y-64135251D01*
X101528068Y-64144430D01*
X101546481Y-64155466D01*
X101563724Y-64168254D01*
X101579630Y-64182670D01*
X101594046Y-64198576D01*
X101606834Y-64215819D01*
X101617870Y-64234232D01*
X101627049Y-64253638D01*
X101634281Y-64273850D01*
X101639497Y-64294674D01*
X101642647Y-64315909D01*
X101643700Y-64337350D01*
X101643700Y-64849850D01*
X101642647Y-64871291D01*
X101639497Y-64892526D01*
X101634281Y-64913350D01*
X101627049Y-64933562D01*
X101617870Y-64952968D01*
X101606834Y-64971381D01*
X101594046Y-64988624D01*
X101579630Y-65004530D01*
X101563724Y-65018946D01*
X101546481Y-65031734D01*
X101528068Y-65042770D01*
X101508662Y-65051949D01*
X101488450Y-65059181D01*
X101467626Y-65064397D01*
X101446391Y-65067547D01*
X101424950Y-65068600D01*
X100987450Y-65068600D01*
X100966009Y-65067547D01*
X100944774Y-65064397D01*
X100923950Y-65059181D01*
X100903738Y-65051949D01*
X100884332Y-65042770D01*
X100865919Y-65031734D01*
X100848676Y-65018946D01*
X100832770Y-65004530D01*
X100818354Y-64988624D01*
X100805566Y-64971381D01*
X100794530Y-64952968D01*
X100785351Y-64933562D01*
X100778119Y-64913350D01*
X100772903Y-64892526D01*
X100769753Y-64871291D01*
X100768700Y-64849850D01*
X100768700Y-64337350D01*
X100769753Y-64315909D01*
X100772903Y-64294674D01*
X100778119Y-64273850D01*
X100785351Y-64253638D01*
X100794530Y-64234232D01*
X100805566Y-64215819D01*
X100818354Y-64198576D01*
X100832770Y-64182670D01*
X100848676Y-64168254D01*
X100865919Y-64155466D01*
X100884332Y-64144430D01*
X100903738Y-64135251D01*
X100923950Y-64128019D01*
X100944774Y-64122803D01*
X100966009Y-64119653D01*
X100987450Y-64118600D01*
X101424950Y-64118600D01*
X101446391Y-64119653D01*
X101446391Y-64119653D01*
G37*
D18*
X101206200Y-64593600D03*
D17*
G36*
X104646891Y-69682253D02*
G01*
X104668126Y-69685403D01*
X104688950Y-69690619D01*
X104709162Y-69697851D01*
X104728568Y-69707030D01*
X104746981Y-69718066D01*
X104764224Y-69730854D01*
X104780130Y-69745270D01*
X104794546Y-69761176D01*
X104807334Y-69778419D01*
X104818370Y-69796832D01*
X104827549Y-69816238D01*
X104834781Y-69836450D01*
X104839997Y-69857274D01*
X104843147Y-69878509D01*
X104844200Y-69899950D01*
X104844200Y-70412450D01*
X104843147Y-70433891D01*
X104839997Y-70455126D01*
X104834781Y-70475950D01*
X104827549Y-70496162D01*
X104818370Y-70515568D01*
X104807334Y-70533981D01*
X104794546Y-70551224D01*
X104780130Y-70567130D01*
X104764224Y-70581546D01*
X104746981Y-70594334D01*
X104728568Y-70605370D01*
X104709162Y-70614549D01*
X104688950Y-70621781D01*
X104668126Y-70626997D01*
X104646891Y-70630147D01*
X104625450Y-70631200D01*
X104187950Y-70631200D01*
X104166509Y-70630147D01*
X104145274Y-70626997D01*
X104124450Y-70621781D01*
X104104238Y-70614549D01*
X104084832Y-70605370D01*
X104066419Y-70594334D01*
X104049176Y-70581546D01*
X104033270Y-70567130D01*
X104018854Y-70551224D01*
X104006066Y-70533981D01*
X103995030Y-70515568D01*
X103985851Y-70496162D01*
X103978619Y-70475950D01*
X103973403Y-70455126D01*
X103970253Y-70433891D01*
X103969200Y-70412450D01*
X103969200Y-69899950D01*
X103970253Y-69878509D01*
X103973403Y-69857274D01*
X103978619Y-69836450D01*
X103985851Y-69816238D01*
X103995030Y-69796832D01*
X104006066Y-69778419D01*
X104018854Y-69761176D01*
X104033270Y-69745270D01*
X104049176Y-69730854D01*
X104066419Y-69718066D01*
X104084832Y-69707030D01*
X104104238Y-69697851D01*
X104124450Y-69690619D01*
X104145274Y-69685403D01*
X104166509Y-69682253D01*
X104187950Y-69681200D01*
X104625450Y-69681200D01*
X104646891Y-69682253D01*
X104646891Y-69682253D01*
G37*
D18*
X104406700Y-70156200D03*
D17*
G36*
X106221891Y-69682253D02*
G01*
X106243126Y-69685403D01*
X106263950Y-69690619D01*
X106284162Y-69697851D01*
X106303568Y-69707030D01*
X106321981Y-69718066D01*
X106339224Y-69730854D01*
X106355130Y-69745270D01*
X106369546Y-69761176D01*
X106382334Y-69778419D01*
X106393370Y-69796832D01*
X106402549Y-69816238D01*
X106409781Y-69836450D01*
X106414997Y-69857274D01*
X106418147Y-69878509D01*
X106419200Y-69899950D01*
X106419200Y-70412450D01*
X106418147Y-70433891D01*
X106414997Y-70455126D01*
X106409781Y-70475950D01*
X106402549Y-70496162D01*
X106393370Y-70515568D01*
X106382334Y-70533981D01*
X106369546Y-70551224D01*
X106355130Y-70567130D01*
X106339224Y-70581546D01*
X106321981Y-70594334D01*
X106303568Y-70605370D01*
X106284162Y-70614549D01*
X106263950Y-70621781D01*
X106243126Y-70626997D01*
X106221891Y-70630147D01*
X106200450Y-70631200D01*
X105762950Y-70631200D01*
X105741509Y-70630147D01*
X105720274Y-70626997D01*
X105699450Y-70621781D01*
X105679238Y-70614549D01*
X105659832Y-70605370D01*
X105641419Y-70594334D01*
X105624176Y-70581546D01*
X105608270Y-70567130D01*
X105593854Y-70551224D01*
X105581066Y-70533981D01*
X105570030Y-70515568D01*
X105560851Y-70496162D01*
X105553619Y-70475950D01*
X105548403Y-70455126D01*
X105545253Y-70433891D01*
X105544200Y-70412450D01*
X105544200Y-69899950D01*
X105545253Y-69878509D01*
X105548403Y-69857274D01*
X105553619Y-69836450D01*
X105560851Y-69816238D01*
X105570030Y-69796832D01*
X105581066Y-69778419D01*
X105593854Y-69761176D01*
X105608270Y-69745270D01*
X105624176Y-69730854D01*
X105641419Y-69718066D01*
X105659832Y-69707030D01*
X105679238Y-69697851D01*
X105699450Y-69690619D01*
X105720274Y-69685403D01*
X105741509Y-69682253D01*
X105762950Y-69681200D01*
X106200450Y-69681200D01*
X106221891Y-69682253D01*
X106221891Y-69682253D01*
G37*
D18*
X105981700Y-70156200D03*
D17*
G36*
X101751191Y-53883453D02*
G01*
X101772426Y-53886603D01*
X101793250Y-53891819D01*
X101813462Y-53899051D01*
X101832868Y-53908230D01*
X101851281Y-53919266D01*
X101868524Y-53932054D01*
X101884430Y-53946470D01*
X101898846Y-53962376D01*
X101911634Y-53979619D01*
X101922670Y-53998032D01*
X101931849Y-54017438D01*
X101939081Y-54037650D01*
X101944297Y-54058474D01*
X101947447Y-54079709D01*
X101948500Y-54101150D01*
X101948500Y-54613650D01*
X101947447Y-54635091D01*
X101944297Y-54656326D01*
X101939081Y-54677150D01*
X101931849Y-54697362D01*
X101922670Y-54716768D01*
X101911634Y-54735181D01*
X101898846Y-54752424D01*
X101884430Y-54768330D01*
X101868524Y-54782746D01*
X101851281Y-54795534D01*
X101832868Y-54806570D01*
X101813462Y-54815749D01*
X101793250Y-54822981D01*
X101772426Y-54828197D01*
X101751191Y-54831347D01*
X101729750Y-54832400D01*
X101292250Y-54832400D01*
X101270809Y-54831347D01*
X101249574Y-54828197D01*
X101228750Y-54822981D01*
X101208538Y-54815749D01*
X101189132Y-54806570D01*
X101170719Y-54795534D01*
X101153476Y-54782746D01*
X101137570Y-54768330D01*
X101123154Y-54752424D01*
X101110366Y-54735181D01*
X101099330Y-54716768D01*
X101090151Y-54697362D01*
X101082919Y-54677150D01*
X101077703Y-54656326D01*
X101074553Y-54635091D01*
X101073500Y-54613650D01*
X101073500Y-54101150D01*
X101074553Y-54079709D01*
X101077703Y-54058474D01*
X101082919Y-54037650D01*
X101090151Y-54017438D01*
X101099330Y-53998032D01*
X101110366Y-53979619D01*
X101123154Y-53962376D01*
X101137570Y-53946470D01*
X101153476Y-53932054D01*
X101170719Y-53919266D01*
X101189132Y-53908230D01*
X101208538Y-53899051D01*
X101228750Y-53891819D01*
X101249574Y-53886603D01*
X101270809Y-53883453D01*
X101292250Y-53882400D01*
X101729750Y-53882400D01*
X101751191Y-53883453D01*
X101751191Y-53883453D01*
G37*
D18*
X101511000Y-54357400D03*
D17*
G36*
X103326191Y-53883453D02*
G01*
X103347426Y-53886603D01*
X103368250Y-53891819D01*
X103388462Y-53899051D01*
X103407868Y-53908230D01*
X103426281Y-53919266D01*
X103443524Y-53932054D01*
X103459430Y-53946470D01*
X103473846Y-53962376D01*
X103486634Y-53979619D01*
X103497670Y-53998032D01*
X103506849Y-54017438D01*
X103514081Y-54037650D01*
X103519297Y-54058474D01*
X103522447Y-54079709D01*
X103523500Y-54101150D01*
X103523500Y-54613650D01*
X103522447Y-54635091D01*
X103519297Y-54656326D01*
X103514081Y-54677150D01*
X103506849Y-54697362D01*
X103497670Y-54716768D01*
X103486634Y-54735181D01*
X103473846Y-54752424D01*
X103459430Y-54768330D01*
X103443524Y-54782746D01*
X103426281Y-54795534D01*
X103407868Y-54806570D01*
X103388462Y-54815749D01*
X103368250Y-54822981D01*
X103347426Y-54828197D01*
X103326191Y-54831347D01*
X103304750Y-54832400D01*
X102867250Y-54832400D01*
X102845809Y-54831347D01*
X102824574Y-54828197D01*
X102803750Y-54822981D01*
X102783538Y-54815749D01*
X102764132Y-54806570D01*
X102745719Y-54795534D01*
X102728476Y-54782746D01*
X102712570Y-54768330D01*
X102698154Y-54752424D01*
X102685366Y-54735181D01*
X102674330Y-54716768D01*
X102665151Y-54697362D01*
X102657919Y-54677150D01*
X102652703Y-54656326D01*
X102649553Y-54635091D01*
X102648500Y-54613650D01*
X102648500Y-54101150D01*
X102649553Y-54079709D01*
X102652703Y-54058474D01*
X102657919Y-54037650D01*
X102665151Y-54017438D01*
X102674330Y-53998032D01*
X102685366Y-53979619D01*
X102698154Y-53962376D01*
X102712570Y-53946470D01*
X102728476Y-53932054D01*
X102745719Y-53919266D01*
X102764132Y-53908230D01*
X102783538Y-53899051D01*
X102803750Y-53891819D01*
X102824574Y-53886603D01*
X102845809Y-53883453D01*
X102867250Y-53882400D01*
X103304750Y-53882400D01*
X103326191Y-53883453D01*
X103326191Y-53883453D01*
G37*
D18*
X103086000Y-54357400D03*
D17*
G36*
X103326191Y-52257853D02*
G01*
X103347426Y-52261003D01*
X103368250Y-52266219D01*
X103388462Y-52273451D01*
X103407868Y-52282630D01*
X103426281Y-52293666D01*
X103443524Y-52306454D01*
X103459430Y-52320870D01*
X103473846Y-52336776D01*
X103486634Y-52354019D01*
X103497670Y-52372432D01*
X103506849Y-52391838D01*
X103514081Y-52412050D01*
X103519297Y-52432874D01*
X103522447Y-52454109D01*
X103523500Y-52475550D01*
X103523500Y-52988050D01*
X103522447Y-53009491D01*
X103519297Y-53030726D01*
X103514081Y-53051550D01*
X103506849Y-53071762D01*
X103497670Y-53091168D01*
X103486634Y-53109581D01*
X103473846Y-53126824D01*
X103459430Y-53142730D01*
X103443524Y-53157146D01*
X103426281Y-53169934D01*
X103407868Y-53180970D01*
X103388462Y-53190149D01*
X103368250Y-53197381D01*
X103347426Y-53202597D01*
X103326191Y-53205747D01*
X103304750Y-53206800D01*
X102867250Y-53206800D01*
X102845809Y-53205747D01*
X102824574Y-53202597D01*
X102803750Y-53197381D01*
X102783538Y-53190149D01*
X102764132Y-53180970D01*
X102745719Y-53169934D01*
X102728476Y-53157146D01*
X102712570Y-53142730D01*
X102698154Y-53126824D01*
X102685366Y-53109581D01*
X102674330Y-53091168D01*
X102665151Y-53071762D01*
X102657919Y-53051550D01*
X102652703Y-53030726D01*
X102649553Y-53009491D01*
X102648500Y-52988050D01*
X102648500Y-52475550D01*
X102649553Y-52454109D01*
X102652703Y-52432874D01*
X102657919Y-52412050D01*
X102665151Y-52391838D01*
X102674330Y-52372432D01*
X102685366Y-52354019D01*
X102698154Y-52336776D01*
X102712570Y-52320870D01*
X102728476Y-52306454D01*
X102745719Y-52293666D01*
X102764132Y-52282630D01*
X102783538Y-52273451D01*
X102803750Y-52266219D01*
X102824574Y-52261003D01*
X102845809Y-52257853D01*
X102867250Y-52256800D01*
X103304750Y-52256800D01*
X103326191Y-52257853D01*
X103326191Y-52257853D01*
G37*
D18*
X103086000Y-52731800D03*
D17*
G36*
X101751191Y-52257853D02*
G01*
X101772426Y-52261003D01*
X101793250Y-52266219D01*
X101813462Y-52273451D01*
X101832868Y-52282630D01*
X101851281Y-52293666D01*
X101868524Y-52306454D01*
X101884430Y-52320870D01*
X101898846Y-52336776D01*
X101911634Y-52354019D01*
X101922670Y-52372432D01*
X101931849Y-52391838D01*
X101939081Y-52412050D01*
X101944297Y-52432874D01*
X101947447Y-52454109D01*
X101948500Y-52475550D01*
X101948500Y-52988050D01*
X101947447Y-53009491D01*
X101944297Y-53030726D01*
X101939081Y-53051550D01*
X101931849Y-53071762D01*
X101922670Y-53091168D01*
X101911634Y-53109581D01*
X101898846Y-53126824D01*
X101884430Y-53142730D01*
X101868524Y-53157146D01*
X101851281Y-53169934D01*
X101832868Y-53180970D01*
X101813462Y-53190149D01*
X101793250Y-53197381D01*
X101772426Y-53202597D01*
X101751191Y-53205747D01*
X101729750Y-53206800D01*
X101292250Y-53206800D01*
X101270809Y-53205747D01*
X101249574Y-53202597D01*
X101228750Y-53197381D01*
X101208538Y-53190149D01*
X101189132Y-53180970D01*
X101170719Y-53169934D01*
X101153476Y-53157146D01*
X101137570Y-53142730D01*
X101123154Y-53126824D01*
X101110366Y-53109581D01*
X101099330Y-53091168D01*
X101090151Y-53071762D01*
X101082919Y-53051550D01*
X101077703Y-53030726D01*
X101074553Y-53009491D01*
X101073500Y-52988050D01*
X101073500Y-52475550D01*
X101074553Y-52454109D01*
X101077703Y-52432874D01*
X101082919Y-52412050D01*
X101090151Y-52391838D01*
X101099330Y-52372432D01*
X101110366Y-52354019D01*
X101123154Y-52336776D01*
X101137570Y-52320870D01*
X101153476Y-52306454D01*
X101170719Y-52293666D01*
X101189132Y-52282630D01*
X101208538Y-52273451D01*
X101228750Y-52266219D01*
X101249574Y-52261003D01*
X101270809Y-52257853D01*
X101292250Y-52256800D01*
X101729750Y-52256800D01*
X101751191Y-52257853D01*
X101751191Y-52257853D01*
G37*
D18*
X101511000Y-52731800D03*
D32*
X103174900Y-50859900D03*
X103174900Y-48959900D03*
X101174900Y-49909900D03*
D17*
G36*
X54993304Y-47707104D02*
G01*
X55017573Y-47710704D01*
X55041371Y-47716665D01*
X55064471Y-47724930D01*
X55086649Y-47735420D01*
X55107693Y-47748033D01*
X55127398Y-47762647D01*
X55145577Y-47779123D01*
X55162053Y-47797302D01*
X55176667Y-47817007D01*
X55189280Y-47838051D01*
X55199770Y-47860229D01*
X55208035Y-47883329D01*
X55213996Y-47907127D01*
X55217596Y-47931396D01*
X55218800Y-47955900D01*
X55218800Y-49455900D01*
X55217596Y-49480404D01*
X55213996Y-49504673D01*
X55208035Y-49528471D01*
X55199770Y-49551571D01*
X55189280Y-49573749D01*
X55176667Y-49594793D01*
X55162053Y-49614498D01*
X55145577Y-49632677D01*
X55127398Y-49649153D01*
X55107693Y-49663767D01*
X55086649Y-49676380D01*
X55064471Y-49686870D01*
X55041371Y-49695135D01*
X55017573Y-49701096D01*
X54993304Y-49704696D01*
X54968800Y-49705900D01*
X53768800Y-49705900D01*
X53744296Y-49704696D01*
X53720027Y-49701096D01*
X53696229Y-49695135D01*
X53673129Y-49686870D01*
X53650951Y-49676380D01*
X53629907Y-49663767D01*
X53610202Y-49649153D01*
X53592023Y-49632677D01*
X53575547Y-49614498D01*
X53560933Y-49594793D01*
X53548320Y-49573749D01*
X53537830Y-49551571D01*
X53529565Y-49528471D01*
X53523604Y-49504673D01*
X53520004Y-49480404D01*
X53518800Y-49455900D01*
X53518800Y-47955900D01*
X53520004Y-47931396D01*
X53523604Y-47907127D01*
X53529565Y-47883329D01*
X53537830Y-47860229D01*
X53548320Y-47838051D01*
X53560933Y-47817007D01*
X53575547Y-47797302D01*
X53592023Y-47779123D01*
X53610202Y-47762647D01*
X53629907Y-47748033D01*
X53650951Y-47735420D01*
X53673129Y-47724930D01*
X53696229Y-47716665D01*
X53720027Y-47710704D01*
X53744296Y-47707104D01*
X53768800Y-47705900D01*
X54968800Y-47705900D01*
X54993304Y-47707104D01*
X54993304Y-47707104D01*
G37*
D27*
X54368800Y-48705900D03*
D35*
X56868800Y-48705900D03*
D33*
X99019500Y-68635500D03*
X97119500Y-68635500D03*
X98069500Y-70635500D03*
D36*
X92239710Y-71865012D03*
X118867564Y-54718167D03*
X62941300Y-71096000D03*
D37*
X73050500Y-62993400D03*
X82943800Y-47397800D03*
X85849023Y-45478575D03*
X73950019Y-62556491D03*
X71932900Y-66981200D03*
X73939500Y-67070100D03*
X98902205Y-58928299D03*
X97688500Y-68626812D03*
X117449700Y-56110000D03*
X88074600Y-45746800D03*
X58724800Y-53595400D03*
X58699500Y-55716300D03*
X58712000Y-57684800D03*
X62522200Y-53595400D03*
X67665900Y-53531900D03*
X68935800Y-57862600D03*
D36*
X62026900Y-50534700D03*
X104406700Y-70156200D03*
D37*
X106261000Y-66397000D03*
D36*
X70523200Y-45148200D03*
X70523200Y-50598200D03*
D37*
X82219900Y-51207800D03*
X79423200Y-45148200D03*
X101264111Y-64592919D03*
D36*
X90360600Y-55245009D03*
X92617254Y-73452211D03*
X82219900Y-51207800D03*
D37*
X87528500Y-71057900D03*
D36*
X87528500Y-71057900D03*
X117030600Y-50509300D03*
X99229712Y-70939088D03*
X57457500Y-64751900D03*
X71701401Y-73518801D03*
X60782500Y-73976900D03*
X56337300Y-72467600D03*
X79921200Y-70930900D03*
X56908800Y-68601922D03*
X107531000Y-65520700D03*
X107454800Y-73264291D03*
D37*
X77794565Y-58185913D03*
X77504107Y-59468274D03*
X80429200Y-57748300D03*
X58636000Y-69546600D03*
X81826200Y-57761000D03*
X60134600Y-70016500D03*
X83072653Y-58094429D03*
X62014200Y-70080000D03*
X84065857Y-57977939D03*
X64008100Y-70041900D03*
X86115151Y-57530852D03*
X65303500Y-70080000D03*
X85515849Y-58331390D03*
X68186400Y-70003800D03*
X114528700Y-52998500D03*
X89185291Y-58425783D03*
X114554100Y-54268500D03*
X90200080Y-58385909D03*
X118122800Y-52594098D03*
X90290479Y-59418918D03*
X116027300Y-56338600D03*
X90214282Y-60672180D03*
D36*
X68732500Y-55627400D03*
X64897100Y-55411500D03*
X76822400Y-51334800D03*
X83393616Y-44598458D03*
D37*
X113296800Y-55881400D03*
X95150656Y-54226844D03*
X87452300Y-68855002D03*
X105448200Y-59323100D03*
X97753356Y-64384321D03*
X90640000Y-64149100D03*
X86816274Y-60833456D03*
X100190282Y-59732999D03*
X109766200Y-61799600D03*
X90386000Y-62853700D03*
X95326300Y-59183400D03*
X73253700Y-72543800D03*
X80670500Y-53417600D03*
X80247700Y-55745000D03*
X98733724Y-60384404D03*
X95504100Y-67819400D03*
X98337310Y-66905000D03*
X73787100Y-54433600D03*
X62138213Y-54916553D03*
D38*
X64326900Y-44234700D02*
X64326900Y-50534700D01*
X51089599Y-49468357D02*
X51089599Y-71575999D01*
X56323256Y-44234700D02*
X51089599Y-49468357D01*
X51089599Y-71575999D02*
X52514600Y-73001000D01*
X64326900Y-44234700D02*
X56323256Y-44234700D01*
X92946816Y-71865012D02*
X92239710Y-71865012D01*
X93072712Y-71865012D02*
X92946816Y-71865012D01*
X93192700Y-71985000D02*
X93072712Y-71865012D01*
D39*
X118653500Y-53369100D02*
X118153500Y-53369100D01*
X118867564Y-54718167D02*
X118202567Y-54718167D01*
X118202567Y-54718167D02*
X118153500Y-54669100D01*
X118867564Y-54718167D02*
X118867564Y-53583164D01*
X118867564Y-53583164D02*
X118653500Y-53369100D01*
D38*
X96583500Y-71985000D02*
X97193100Y-72594600D01*
X93192700Y-71985000D02*
X96583500Y-71985000D01*
X97193100Y-71511900D02*
X98069500Y-70635500D01*
X97193100Y-72594600D02*
X97193100Y-71511900D01*
X62982500Y-71137200D02*
X62941300Y-71096000D01*
X62982500Y-73976900D02*
X62982500Y-71137200D01*
D39*
X74942700Y-69445000D02*
X73050500Y-67552800D01*
X76192700Y-69445000D02*
X74942700Y-69445000D01*
X83578800Y-46762800D02*
X82943800Y-47397800D01*
X85499500Y-46762800D02*
X83578800Y-46762800D01*
X72554198Y-68049102D02*
X71318198Y-68049102D01*
X73050500Y-67552800D02*
X72554198Y-68049102D01*
X53364599Y-69611001D02*
X52514600Y-70461000D01*
X71046008Y-67776912D02*
X55198688Y-67776912D01*
X55198688Y-67776912D02*
X53364599Y-69611001D01*
X71318198Y-68049102D02*
X71046008Y-67776912D01*
X73050500Y-63559085D02*
X73050500Y-62993400D01*
X72858899Y-66633199D02*
X73050500Y-66441598D01*
X73050500Y-67552800D02*
X72858899Y-67361199D01*
X72858899Y-67361199D02*
X72858899Y-66633199D01*
X73050500Y-66441598D02*
X73050500Y-63559085D01*
X85849023Y-45478575D02*
X85737800Y-45589798D01*
X85596498Y-45589798D02*
X85499500Y-45492800D01*
X85737800Y-45589798D02*
X85596498Y-45589798D01*
X73939500Y-63132695D02*
X73950019Y-63122176D01*
X76192700Y-68175000D02*
X74942700Y-68175000D01*
X73950019Y-63122176D02*
X73950019Y-62556491D01*
X74942700Y-68175000D02*
X73939500Y-67171800D01*
X73950019Y-62556491D02*
X73550020Y-62156492D01*
X53364599Y-67071001D02*
X52514600Y-67921000D01*
X56472499Y-67326901D02*
X71587199Y-67326901D01*
X53364599Y-67071001D02*
X56216599Y-67071001D01*
X56216599Y-67071001D02*
X56472499Y-67326901D01*
X71587199Y-67326901D02*
X71932900Y-66981200D01*
X73939500Y-67070100D02*
X73939500Y-63132695D01*
X73939500Y-67171800D02*
X73939500Y-67070100D01*
X53716681Y-65381000D02*
X52514600Y-65381000D01*
X55170782Y-63926899D02*
X59124999Y-63926899D01*
X53716681Y-65381000D02*
X55170782Y-63926899D01*
X59124999Y-63926899D02*
X60363200Y-65165100D01*
X64834298Y-65165100D02*
X73254398Y-56745000D01*
X74942700Y-56745000D02*
X76192700Y-56745000D01*
X73254398Y-56745000D02*
X74942700Y-56745000D01*
X60363200Y-65165100D02*
X64834298Y-65165100D01*
X94442700Y-70715000D02*
X93192700Y-70715000D01*
X95090000Y-70715000D02*
X94442700Y-70715000D01*
X97119500Y-68685500D02*
X95090000Y-70715000D01*
X97119500Y-68635500D02*
X97119500Y-68685500D01*
X72528698Y-55761998D02*
X72528698Y-54618998D01*
X72528698Y-54618998D02*
X73439098Y-53708598D01*
X89061289Y-54419999D02*
X89979446Y-53501842D01*
X89979446Y-53501842D02*
X95498658Y-53501842D01*
X98902205Y-56905389D02*
X98902205Y-58362614D01*
X76688003Y-54419999D02*
X89061289Y-54419999D01*
X98902205Y-58362614D02*
X98902205Y-58928299D01*
X95498658Y-53501842D02*
X98902205Y-56905389D01*
X75976602Y-53708598D02*
X76688003Y-54419999D01*
X73439098Y-53708598D02*
X75976602Y-53708598D01*
X97128188Y-68626812D02*
X97119500Y-68635500D01*
X97688500Y-68626812D02*
X97128188Y-68626812D01*
X65449696Y-62841000D02*
X72528698Y-55761998D01*
X52514600Y-62841000D02*
X65449696Y-62841000D01*
X117793498Y-54019100D02*
X118153500Y-54019100D01*
X117143498Y-54669100D02*
X117793498Y-54019100D01*
X116103500Y-54669100D02*
X117143498Y-54669100D01*
X116103500Y-54669100D02*
X116103500Y-54763800D01*
X116103500Y-54763800D02*
X117449700Y-56110000D01*
X90449500Y-45492800D02*
X88328600Y-45492800D01*
X88328600Y-45492800D02*
X88074600Y-45746800D01*
X63528800Y-57441700D02*
X63778800Y-57191700D01*
X63528800Y-58641700D02*
X63528800Y-57441700D01*
X63778800Y-57391700D02*
X63778800Y-57191700D01*
X64528800Y-58141700D02*
X63778800Y-57391700D01*
X64528800Y-58641700D02*
X64528800Y-58141700D01*
X63578800Y-57191700D02*
X63778800Y-57191700D01*
X62828800Y-57941700D02*
X63578800Y-57191700D01*
X62328800Y-57941700D02*
X62828800Y-57941700D01*
X64028800Y-56941700D02*
X63778800Y-57191700D01*
X64028800Y-55741700D02*
X64028800Y-56941700D01*
D38*
X62026900Y-53100100D02*
X62522200Y-53595400D01*
X62026900Y-50534700D02*
X62026900Y-53100100D01*
D39*
X105833800Y-66739900D02*
X105918100Y-66739900D01*
X105918100Y-66739900D02*
X106261000Y-66397000D01*
X104406700Y-68767000D02*
X104533800Y-68639900D01*
X104406700Y-70156200D02*
X104406700Y-68767000D01*
D38*
X101511000Y-50246000D02*
X101174900Y-49909900D01*
X101511000Y-52731800D02*
X101511000Y-50246000D01*
X100419000Y-49154000D02*
X101174900Y-49909900D01*
X100419000Y-44527600D02*
X100419000Y-49154000D01*
X80110700Y-45835700D02*
X79423200Y-45148200D01*
X82346900Y-45835700D02*
X80110700Y-45835700D01*
D39*
X73273200Y-50598200D02*
X73373200Y-50698200D01*
X70523200Y-50598200D02*
X73273200Y-50598200D01*
X79423200Y-50598200D02*
X81610300Y-50598200D01*
X81610300Y-50598200D02*
X82219900Y-51207800D01*
X64028800Y-55102000D02*
X64028800Y-55741700D01*
X62522200Y-53595400D02*
X64028800Y-55102000D01*
D38*
X117449700Y-61075700D02*
X117094100Y-61431300D01*
X117449700Y-56110000D02*
X117449700Y-61075700D01*
X90360600Y-55697900D02*
X90360600Y-55245009D01*
X90407700Y-55745000D02*
X90360600Y-55697900D01*
X93087850Y-73452211D02*
X92617254Y-73452211D01*
X93192700Y-73255000D02*
X93192700Y-73347361D01*
X93192700Y-73347361D02*
X93087850Y-73452211D01*
X74442700Y-73255000D02*
X76192700Y-73255000D01*
X74178899Y-73518801D02*
X74442700Y-73255000D01*
X71701401Y-73518801D02*
X74178899Y-73518801D01*
X100419000Y-44527600D02*
X93738800Y-51207800D01*
X93738800Y-51207800D02*
X82219900Y-51207800D01*
X89922811Y-73452211D02*
X87528500Y-71057900D01*
X92617254Y-73452211D02*
X89922811Y-73452211D01*
X117143498Y-54669100D02*
X117143498Y-50622198D01*
X117143498Y-50622198D02*
X117030600Y-50509300D01*
X61535690Y-58734810D02*
X62128790Y-58141710D01*
X58712000Y-57684800D02*
X58712000Y-58259800D01*
X59187010Y-58734810D02*
X61535690Y-58734810D01*
X58712000Y-58259800D02*
X59187010Y-58734810D01*
X99229712Y-70045712D02*
X99019500Y-69835500D01*
X99019500Y-69835500D02*
X99019500Y-68635500D01*
X98768100Y-72594600D02*
X99229712Y-72132988D01*
X99229712Y-72132988D02*
X99229712Y-70939088D01*
X99229712Y-70939088D02*
X99229712Y-70045712D01*
X76192700Y-73255000D02*
X77597100Y-73255000D01*
X77597100Y-73255000D02*
X79921200Y-70930900D01*
X56337300Y-72467600D02*
X56337300Y-69173422D01*
X56337300Y-69173422D02*
X56408801Y-69101921D01*
X56408801Y-69101921D02*
X56908800Y-68601922D01*
D39*
X65228800Y-56941700D02*
X65228800Y-57441700D01*
X66939900Y-57441700D02*
X67360800Y-57862600D01*
X65228800Y-57441700D02*
X66939900Y-57441700D01*
D38*
X66626900Y-52995900D02*
X66090900Y-53531900D01*
X66626900Y-50534700D02*
X66626900Y-52995900D01*
X66090900Y-54358036D02*
X67360800Y-55627936D01*
X67360800Y-55627936D02*
X67360800Y-57287600D01*
X66090900Y-53531900D02*
X66090900Y-54358036D01*
X67360800Y-57287600D02*
X67360800Y-57862600D01*
D39*
X106448100Y-64428700D02*
X106750200Y-64730800D01*
X104673500Y-64428700D02*
X106448100Y-64428700D01*
D38*
X106817300Y-50829500D02*
X106553300Y-51093500D01*
X106817300Y-49410500D02*
X106817300Y-50829500D01*
X77848199Y-45112234D02*
X77848199Y-43838199D01*
X73837234Y-49123199D02*
X77848199Y-45112234D01*
X77848199Y-43838199D02*
X78504998Y-43181400D01*
X66626900Y-50534700D02*
X68038401Y-49123199D01*
X68038401Y-49123199D02*
X73837234Y-49123199D01*
X108431102Y-49410500D02*
X107967300Y-49410500D01*
X107967300Y-49410500D02*
X106817300Y-49410500D01*
X112004001Y-45837601D02*
X108431102Y-49410500D01*
X112004001Y-43217599D02*
X112004001Y-45837601D01*
X111889001Y-43102599D02*
X112004001Y-43217599D01*
X91487223Y-43102599D02*
X111889001Y-43102599D01*
X91408422Y-43181400D02*
X91487223Y-43102599D01*
X78504998Y-43181400D02*
X91408422Y-43181400D01*
X106750200Y-64730800D02*
X106750200Y-64739900D01*
X106750200Y-64739900D02*
X107531000Y-65520700D01*
X105916202Y-60298102D02*
X105631550Y-60298102D01*
X106553300Y-59661004D02*
X105916202Y-60298102D01*
X104189340Y-63967088D02*
X104211888Y-63967088D01*
X103623490Y-63401238D02*
X104189340Y-63967088D01*
X103623490Y-62306162D02*
X103623490Y-63401238D01*
X106553300Y-51093500D02*
X106553300Y-59661004D01*
X105631550Y-60298102D02*
X103623490Y-62306162D01*
X104211888Y-63967088D02*
X104673500Y-64428700D01*
D39*
X102514500Y-72772600D02*
X106963109Y-72772600D01*
X106963109Y-72772600D02*
X107454800Y-73264291D01*
X62833090Y-58837410D02*
X62833090Y-59887990D01*
X63028800Y-58641700D02*
X62833090Y-58837410D01*
D38*
X65335410Y-59887990D02*
X67360800Y-57862600D01*
X62833090Y-59887990D02*
X65335410Y-59887990D01*
D39*
X76192700Y-60555000D02*
X77442700Y-60555000D01*
X77442700Y-60555000D02*
X78243698Y-59754002D01*
X78243698Y-58635046D02*
X78194564Y-58585912D01*
X78243698Y-59754002D02*
X78243698Y-58635046D01*
X78194564Y-58585912D02*
X77794565Y-58185913D01*
X77442700Y-59285000D02*
X77504107Y-59346407D01*
X77504107Y-59346407D02*
X77504107Y-59468274D01*
X76192700Y-59285000D02*
X77442700Y-59285000D01*
X81517700Y-56995000D02*
X81517700Y-55745000D01*
X81164399Y-57348301D02*
X81517700Y-56995000D01*
X80829199Y-57348301D02*
X81164399Y-57348301D01*
X80429200Y-57748300D02*
X80829199Y-57348301D01*
X58686800Y-69597400D02*
X58686800Y-71854421D01*
X58636000Y-69546600D02*
X58686800Y-69597400D01*
X58582500Y-71958721D02*
X58582500Y-73976900D01*
X58686800Y-71854421D02*
X58582500Y-71958721D01*
X82787700Y-56799500D02*
X82787700Y-55745000D01*
X81826200Y-57761000D02*
X82787700Y-56799500D01*
X59682500Y-70468600D02*
X59682500Y-71844794D01*
X60134600Y-70016500D02*
X59682500Y-70468600D01*
X59682500Y-71844794D02*
X59682500Y-73976900D01*
X84057700Y-56543697D02*
X83072653Y-57528744D01*
X83072653Y-57528744D02*
X83072653Y-58094429D01*
X84057700Y-55745000D02*
X84057700Y-56543697D01*
X61882500Y-73164732D02*
X61882500Y-73976900D01*
X62230275Y-72810166D02*
X61882500Y-73164732D01*
X62224669Y-72230288D02*
X62230275Y-72810166D01*
X61882500Y-70211700D02*
X61882500Y-71894673D01*
X61882500Y-71894673D02*
X62224669Y-72230288D01*
X62014200Y-70080000D02*
X61882500Y-70211700D01*
X84344761Y-57977939D02*
X84065857Y-57977939D01*
X85327700Y-55745000D02*
X85327700Y-56995000D01*
X85327700Y-56995000D02*
X84344761Y-57977939D01*
X64008100Y-73902500D02*
X64082500Y-73976900D01*
X64008100Y-70041900D02*
X64008100Y-73902500D01*
X86597700Y-57048303D02*
X86515150Y-57130853D01*
X86597700Y-55745000D02*
X86597700Y-57048303D01*
X86515150Y-57130853D02*
X86115151Y-57530852D01*
X65303500Y-73855900D02*
X65182500Y-73976900D01*
X65303500Y-70080000D02*
X65303500Y-73855900D01*
X86531310Y-58331390D02*
X86081534Y-58331390D01*
X87867700Y-56995000D02*
X86531310Y-58331390D01*
X87867700Y-55745000D02*
X87867700Y-56995000D01*
X86081534Y-58331390D02*
X85515849Y-58331390D01*
X66282500Y-71907700D02*
X66282500Y-73976900D01*
X68186400Y-70003800D02*
X66282500Y-71907700D01*
X91196978Y-47133510D02*
X91749510Y-47686042D01*
X91749510Y-48379558D02*
X91296168Y-48832900D01*
X90449500Y-46762800D02*
X90820210Y-47133510D01*
X91749510Y-47686042D02*
X91749510Y-48379558D01*
X90820210Y-47133510D02*
X91196978Y-47133510D01*
X75773200Y-49448200D02*
X75773200Y-50698200D01*
X76388500Y-48832900D02*
X75773200Y-49448200D01*
X91296168Y-48832900D02*
X76388500Y-48832900D01*
X89824490Y-47407790D02*
X90078790Y-47662090D01*
X74973200Y-48977198D02*
X76777199Y-47173199D01*
X76777199Y-47173199D02*
X81646195Y-47173199D01*
X83661130Y-48224402D02*
X84477742Y-47407790D01*
X90078790Y-47662090D02*
X90449500Y-48032800D01*
X84477742Y-47407790D02*
X89824490Y-47407790D01*
X74973200Y-50698200D02*
X74973200Y-48977198D01*
X82697398Y-48224402D02*
X83661130Y-48224402D01*
X81646195Y-47173199D02*
X82697398Y-48224402D01*
X114528700Y-52998500D02*
X115528499Y-52998500D01*
X115603500Y-52719100D02*
X116103500Y-52719100D01*
X115528499Y-52794101D02*
X115603500Y-52719100D01*
X115528499Y-52998500D02*
X115528499Y-52794101D01*
X81082946Y-61558458D02*
X87164276Y-61558458D01*
X87541276Y-60069798D02*
X88785292Y-58825782D01*
X76192700Y-63095000D02*
X79546404Y-63095000D01*
X88785292Y-58825782D02*
X89185291Y-58425783D01*
X87164276Y-61558458D02*
X87541276Y-61181458D01*
X87541276Y-61181458D02*
X87541276Y-60069798D01*
X79546404Y-63095000D02*
X81082946Y-61558458D01*
X115953501Y-53519099D02*
X116103500Y-53369100D01*
X115303501Y-53519099D02*
X115953501Y-53519099D01*
X114554100Y-54268500D02*
X115303501Y-53519099D01*
X78912815Y-64365000D02*
X81269346Y-62008469D01*
X90200080Y-58436313D02*
X90200080Y-58385909D01*
X87991287Y-61367858D02*
X87991287Y-60645106D01*
X87991287Y-60645106D02*
X90200080Y-58436313D01*
X76192700Y-64365000D02*
X78912815Y-64365000D01*
X81269346Y-62008469D02*
X87350676Y-62008469D01*
X87350676Y-62008469D02*
X87991287Y-61367858D01*
X118122800Y-52869099D02*
X118122800Y-52594098D01*
X88441298Y-61268099D02*
X89890480Y-59818917D01*
X89890480Y-59818917D02*
X90290479Y-59418918D01*
X77442700Y-66905000D02*
X81889220Y-62458480D01*
X76192700Y-66905000D02*
X77442700Y-66905000D01*
X81889220Y-62458480D02*
X87537076Y-62458480D01*
X87537076Y-62458480D02*
X88441298Y-61554258D01*
X88441298Y-61554258D02*
X88441298Y-61268099D01*
X115603500Y-54019100D02*
X116103500Y-54019100D01*
X115528499Y-54094101D02*
X115603500Y-54019100D01*
X115528499Y-55274114D02*
X115528499Y-54094101D01*
X116027300Y-55772915D02*
X115528499Y-55274114D01*
X116027300Y-56338600D02*
X116027300Y-55772915D01*
X78054300Y-70103400D02*
X78054300Y-67808398D01*
X77442700Y-70715000D02*
X78054300Y-70103400D01*
X76192700Y-70715000D02*
X77442700Y-70715000D01*
X82954207Y-62908491D02*
X87977971Y-62908491D01*
X78054300Y-67808398D02*
X82954207Y-62908491D01*
X89814283Y-61072179D02*
X90214282Y-60672180D01*
X87977971Y-62908491D02*
X89814283Y-61072179D01*
X76573200Y-51948200D02*
X76606500Y-51981500D01*
X76573200Y-50698200D02*
X76573200Y-51948200D01*
X76606500Y-51981500D02*
X76606500Y-52604800D01*
D38*
X64897100Y-55411500D02*
X64728810Y-55579790D01*
X82384800Y-44222800D02*
X82346900Y-44260700D01*
X85499500Y-44222800D02*
X82384800Y-44222800D01*
X76822400Y-51334800D02*
X76598201Y-51110601D01*
X83055858Y-44260700D02*
X83393616Y-44598458D01*
X82346900Y-44260700D02*
X83055858Y-44260700D01*
X76606500Y-52604800D02*
X71755100Y-52604800D01*
X71755100Y-52604800D02*
X69232499Y-55127401D01*
X69232499Y-55127401D02*
X68732500Y-55627400D01*
D39*
X60530100Y-57441700D02*
X62328800Y-57441700D01*
X60287000Y-57684800D02*
X60530100Y-57441700D01*
X62328800Y-57441700D02*
X62328800Y-56941700D01*
X56868800Y-49955900D02*
X56868800Y-48705900D01*
X56868800Y-55129594D02*
X56868800Y-49955900D01*
X58623996Y-56884790D02*
X56868800Y-55129594D01*
X59486990Y-56884790D02*
X58623996Y-56884790D01*
X60287000Y-57684800D02*
X59486990Y-56884790D01*
X105867300Y-44895900D02*
X105499000Y-44527600D01*
X105867300Y-47410500D02*
X105867300Y-44895900D01*
X115919099Y-61995301D02*
X115919099Y-58503699D01*
X117944099Y-63121301D02*
X117944099Y-62892299D01*
X117094100Y-63971300D02*
X117944099Y-63121301D01*
X117944099Y-62892299D02*
X117658101Y-62606301D01*
X117658101Y-62606301D02*
X116530099Y-62606301D01*
X115919099Y-58503699D02*
X113296800Y-55881400D01*
X116530099Y-62606301D02*
X115919099Y-61995301D01*
X94584971Y-54226844D02*
X95150656Y-54226844D01*
X89137700Y-54979998D02*
X89890854Y-54226844D01*
X89137700Y-55745000D02*
X89137700Y-54979998D01*
X89890854Y-54226844D02*
X94584971Y-54226844D01*
X100171485Y-64384321D02*
X98319041Y-64384321D01*
X98319041Y-64384321D02*
X97753356Y-64384321D01*
X105448200Y-59323100D02*
X105048201Y-59723099D01*
X105048201Y-59723099D02*
X104832707Y-59723099D01*
X104832707Y-59723099D02*
X100171485Y-64384321D01*
X90640000Y-66392702D02*
X90640000Y-64149100D01*
X87452300Y-68855002D02*
X88177700Y-68855002D01*
X88177700Y-68855002D02*
X90640000Y-66392702D01*
X76192700Y-61825000D02*
X77442700Y-61825000D01*
X86588408Y-61061322D02*
X86816274Y-60833456D01*
X83578172Y-60150794D02*
X84488700Y-61061322D01*
X77442700Y-61825000D02*
X79116906Y-60150794D01*
X84488700Y-61061322D02*
X86588408Y-61061322D01*
X79116906Y-60150794D02*
X83578172Y-60150794D01*
X98385723Y-59659403D02*
X99551001Y-59659403D01*
X97730819Y-59004499D02*
X98385723Y-59659403D01*
X94442700Y-56745000D02*
X96702199Y-59004499D01*
X96702199Y-59004499D02*
X97730819Y-59004499D01*
X99551001Y-59659403D02*
X99624597Y-59732999D01*
X99624597Y-59732999D02*
X100190282Y-59732999D01*
X93192700Y-56745000D02*
X94442700Y-56745000D01*
X112014100Y-61431300D02*
X110134500Y-61431300D01*
X110134500Y-61431300D02*
X109766200Y-61799600D01*
X80397939Y-59652197D02*
X78265754Y-57520012D01*
X85862111Y-60611311D02*
X84675100Y-60611311D01*
X84675100Y-60611311D02*
X83715987Y-59652198D01*
X90409990Y-57570500D02*
X88902921Y-57570500D01*
X77517701Y-57394963D02*
X76897664Y-58015000D01*
X83715987Y-59652198D02*
X80397939Y-59652197D01*
X88902921Y-57570500D02*
X85862111Y-60611311D01*
X90386000Y-62853700D02*
X91015489Y-62224211D01*
X78081299Y-57520012D02*
X77956250Y-57394963D01*
X91015489Y-62224211D02*
X91015489Y-58175999D01*
X76897664Y-58015000D02*
X76192700Y-58015000D01*
X91015489Y-58175999D02*
X90409990Y-57570500D01*
X78265754Y-57520012D02*
X78081299Y-57520012D01*
X77956250Y-57394963D02*
X77517701Y-57394963D01*
X111823600Y-63780800D02*
X112014100Y-63971300D01*
X108750200Y-63780800D02*
X111823600Y-63780800D01*
X112252900Y-72414300D02*
X112268100Y-72429500D01*
X109454800Y-72414300D02*
X112252900Y-72414300D01*
X94157900Y-58015000D02*
X93192700Y-58015000D01*
X95326300Y-59183400D02*
X94157900Y-58015000D01*
X73812500Y-71985000D02*
X76192700Y-71985000D01*
X73253700Y-72543800D02*
X73812500Y-71985000D01*
X100211880Y-60784403D02*
X99133723Y-60784403D01*
X100915283Y-58282056D02*
X100915283Y-60081000D01*
X99133723Y-60784403D02*
X98733724Y-60384404D01*
X81070499Y-53017601D02*
X95650828Y-53017601D01*
X80670500Y-53417600D02*
X81070499Y-53017601D01*
X100915283Y-60081000D02*
X100211880Y-60784403D01*
X95650828Y-53017601D02*
X100915283Y-58282056D01*
X115639950Y-74137650D02*
X115491861Y-74285739D01*
X117348100Y-72429500D02*
X115639950Y-74137650D01*
X87924502Y-70232898D02*
X87132498Y-70232898D01*
X86703498Y-70661898D02*
X86703498Y-71453902D01*
X86703498Y-71453902D02*
X89634896Y-74385300D01*
X87132498Y-70232898D02*
X86703498Y-70661898D01*
X115392300Y-74385300D02*
X115639950Y-74137650D01*
X89634896Y-74385300D02*
X115392300Y-74385300D01*
X91414700Y-66742700D02*
X87924502Y-70232898D01*
X91414700Y-62837998D02*
X91414700Y-66742700D01*
X92427698Y-61825000D02*
X91414700Y-62837998D01*
X93192700Y-61825000D02*
X92427698Y-61825000D01*
X106727300Y-62853700D02*
X106750200Y-62830800D01*
X104673500Y-62853700D02*
X106727300Y-62853700D01*
X106750200Y-62830800D02*
X106800200Y-62830800D01*
X107927002Y-63957602D02*
X107927002Y-64695698D01*
X108356002Y-65992698D02*
X105833800Y-68514900D01*
X106800200Y-62830800D02*
X107927002Y-63957602D01*
X107927002Y-64695698D02*
X108356002Y-65124698D01*
X105833800Y-68514900D02*
X105833800Y-68639900D01*
X108356002Y-65124698D02*
X108356002Y-65992698D01*
X107188100Y-71197600D02*
X107454800Y-71464300D01*
X102514500Y-71197600D02*
X107188100Y-71197600D01*
X101625910Y-70309010D02*
X102052888Y-70735988D01*
X101625910Y-68378496D02*
X101625910Y-70309010D01*
X101994416Y-68009990D02*
X101625910Y-68378496D01*
X102813710Y-68009990D02*
X101994416Y-68009990D01*
X104083800Y-66739900D02*
X102813710Y-68009990D01*
X104533800Y-66739900D02*
X104083800Y-66739900D01*
X102052888Y-70735988D02*
X102514500Y-71197600D01*
X104466700Y-48959900D02*
X104917300Y-49410500D01*
X103174900Y-48959900D02*
X104466700Y-48959900D01*
X104978300Y-49471500D02*
X104917300Y-49410500D01*
X104978300Y-51093500D02*
X104978300Y-49471500D01*
X97402889Y-67630001D02*
X99683401Y-67630001D01*
X100401788Y-68348388D02*
X100863400Y-68810000D01*
X93192700Y-65635000D02*
X95407888Y-65635000D01*
X95407888Y-65635000D02*
X97402889Y-67630001D01*
X99683401Y-67630001D02*
X100401788Y-68348388D01*
X94442700Y-66905000D02*
X95357100Y-67819400D01*
X93192700Y-66905000D02*
X94442700Y-66905000D01*
X95357100Y-67819400D02*
X95504100Y-67819400D01*
X101092000Y-66473200D02*
X98769110Y-66473200D01*
X98737309Y-66505001D02*
X98337310Y-66905000D01*
X98769110Y-66473200D02*
X98737309Y-66505001D01*
X66038600Y-56441700D02*
X65228800Y-56441700D01*
X66408400Y-56071900D02*
X66038600Y-56441700D01*
X64634700Y-53595400D02*
X65041100Y-54001800D01*
X64097200Y-53595400D02*
X64634700Y-53595400D01*
X65041100Y-54001800D02*
X65041100Y-54298200D01*
X65041100Y-54298200D02*
X66408400Y-55665500D01*
X66408400Y-55665500D02*
X66408400Y-56071900D01*
X61871100Y-55741700D02*
X60299800Y-54170400D01*
X63028800Y-55741700D02*
X61871100Y-55741700D01*
X60299800Y-54170400D02*
X60299800Y-53595400D01*
X101511000Y-61183702D02*
X99408101Y-63286601D01*
X101511000Y-54357400D02*
X101511000Y-61183702D01*
X94442700Y-63095000D02*
X93192700Y-63095000D01*
X94634301Y-63286601D02*
X94442700Y-63095000D01*
X99408101Y-63286601D02*
X94634301Y-63286601D01*
X93192700Y-60555000D02*
X91643300Y-60555000D01*
X91643300Y-60555000D02*
X91465500Y-60377200D01*
X90596390Y-57120490D02*
X88716520Y-57120491D01*
X91465498Y-57989598D02*
X90596390Y-57120490D01*
X91465500Y-60377200D02*
X91465498Y-57989598D01*
X88716520Y-57120491D02*
X85808355Y-60028656D01*
X84861500Y-60161301D02*
X83902387Y-59202188D01*
X85808355Y-60028656D02*
X85675710Y-60161301D01*
X83902387Y-59202188D02*
X80584340Y-59202188D01*
X85675710Y-60161301D02*
X84861500Y-60161301D01*
X77517701Y-56320003D02*
X77517701Y-56034999D01*
X78452153Y-57070001D02*
X78267699Y-57070001D01*
X80584340Y-59202188D02*
X78452153Y-57070001D01*
X77517701Y-56034999D02*
X75916302Y-54433600D01*
X78267699Y-57070001D02*
X77517701Y-56320003D01*
X75916302Y-54433600D02*
X73787100Y-54433600D01*
X63528800Y-55241700D02*
X63528800Y-55741700D01*
X63203653Y-54916553D02*
X63528800Y-55241700D01*
X62138213Y-54916553D02*
X63203653Y-54916553D01*
X60274500Y-55716300D02*
X60999900Y-56441700D01*
X61828800Y-56441700D02*
X62328800Y-56441700D01*
X60999900Y-56441700D02*
X61828800Y-56441700D01*
X105183800Y-69358300D02*
X105981700Y-70156200D01*
X105183800Y-68913900D02*
X105183800Y-69358300D01*
X105183800Y-68639900D02*
X105183800Y-68913900D01*
X105108799Y-67989899D02*
X105183800Y-68064900D01*
X102438400Y-68810000D02*
X102975900Y-68810000D01*
X105183800Y-68064900D02*
X105183800Y-68913900D01*
X103796001Y-67989899D02*
X105108799Y-67989899D01*
X102975900Y-68810000D02*
X103796001Y-67989899D01*
X102781200Y-66359000D02*
X102667000Y-66473200D01*
X102781200Y-64593600D02*
X102781200Y-66359000D01*
X105108799Y-66089899D02*
X105183800Y-66164900D01*
X103587801Y-66089899D02*
X105108799Y-66089899D01*
X103204500Y-66473200D02*
X103587801Y-66089899D01*
X105183800Y-66164900D02*
X105183800Y-66739900D01*
X102667000Y-66473200D02*
X103204500Y-66473200D01*
X103086000Y-54357400D02*
X103086000Y-52731800D01*
X103086000Y-50948800D02*
X103174900Y-50859900D01*
X103086000Y-52731800D02*
X103086000Y-50948800D01*
M02*
