M48
; DRILL file {KiCad 5.1.4+dfsg1-1} date Wed 01 Apr 2020 03:50:06 PM PDT
; FORMAT={-:-/ absolute / inch / decimal}
; #@! TF.CreationDate,2020-04-01T15:50:06-07:00
; #@! TF.GenerationSoftware,Kicad,Pcbnew,5.1.4+dfsg1-1
; #@! TF.FileFunction,Plated,1,2,PTH
FMAT,2
INCH
T1C0.0118
T2C0.0157
T3C0.0236
T4C0.0394
%
G90
G05
T1
X2.4893Y-2.23
X2.4893Y-2.2516
X2.4893Y-2.2733
X2.511Y-2.23
X2.511Y-2.2516
X2.511Y-2.2733
X2.5326Y-2.23
X2.5326Y-2.2516
X2.5326Y-2.2733
T2
X2.3085Y-2.7381
X2.311Y-2.1936
X2.3115Y-2.2711
X2.312Y-2.1101
X2.3675Y-2.7566
X2.4415Y-2.7591
X2.4464Y-2.1621
X2.4615Y-2.1101
X2.52Y-2.7576
X2.571Y-2.7591
X2.664Y-2.1076
X2.6845Y-2.7561
X2.714Y-2.2781
X2.832Y-2.6371
X2.876Y-2.4801
X2.884Y-2.8561
X2.905Y-2.1431
X2.911Y-2.6406
X2.9114Y-2.4629
X3.0513Y-2.3413
X3.0628Y-2.2908
X3.1269Y-1.7775
X3.1594Y-2.1947
X3.1665Y-2.2736
X3.176Y-2.1031
X3.2215Y-2.2741
X3.237Y-2.0161
X3.2655Y-1.8661
X3.2706Y-2.2872
X3.3097Y-2.2826
X3.3668Y-2.2965
X3.3799Y-1.7905
X3.3904Y-2.265
X3.418Y-2.395
X3.443Y-2.7108
X3.446Y-2.7976
X3.4675Y-1.8011
X3.5112Y-2.3002
X3.5512Y-2.2987
X3.5517Y-2.3887
X3.5547Y-2.3393
X3.5585Y-2.4746
X3.5685Y-2.5256
X3.7461Y-2.1349
X3.753Y-2.3301
X3.76Y-2.6701
X3.846Y-2.7018
X3.8486Y-2.5348
X3.8715Y-2.6341
X3.8872Y-2.3773
X3.8938Y-2.32
X3.9445Y-2.3517
X3.9868Y-2.543
X4.1515Y-2.3356
X4.1835Y-2.6141
X4.3215Y-2.4331
X4.4605Y-2.2001
X4.509Y-2.0866
X4.51Y-2.1366
X4.568Y-2.2181
X4.624Y-2.2091
X4.6505Y-2.0706
T3
X2.218Y-2.8531
X2.2405Y-2.7009
X2.2621Y-2.5493
X2.393Y-2.9125
X2.442Y-1.9896
X2.478Y-2.7991
X2.555Y-2.1816
X2.706Y-2.1901
X2.7765Y-1.7775
X2.7765Y-1.9921
X2.8229Y-2.8944
X3.0245Y-2.0211
X3.1465Y-2.7926
X3.237Y-2.0161
X3.2832Y-1.7558
X3.446Y-2.7976
X3.5575Y-2.175
X3.6315Y-2.8293
X3.6463Y-2.8918
X3.9067Y-2.7929
X4.1105Y-2.7621
X4.2305Y-2.8844
X4.2335Y-2.5796
X4.6075Y-1.9886
X4.6798Y-2.1543
T4
X4.42Y-2.7516
X4.42Y-2.8516
X4.52Y-2.7516
X4.52Y-2.8516
X4.62Y-2.7516
X4.62Y-2.8516
X4.41Y-2.4186
X4.41Y-2.5186
X4.51Y-2.4186
X4.51Y-2.5186
X4.61Y-2.4186
X4.61Y-2.5186
X2.1405Y-1.9176
X2.2389Y-1.9176
X2.0675Y-2.3741
X2.0675Y-2.4741
X2.0675Y-2.5741
X2.0675Y-2.6741
X2.0675Y-2.7741
X2.0675Y-2.8741
X3.7535Y-1.7531
X3.8535Y-1.7531
X3.9535Y-1.7531
X4.0535Y-1.7531
X4.1535Y-1.7531
X4.2535Y-1.7531
X4.3535Y-1.7531
T0
M30
